<svg width="1920" height="1046" viewBox="0 0 1920 1046" fill="none" xmlns="http://www.w3.org/2000/svg">
<g clip-path="url(#clip0_413_364)">
<rect width="1920" height="1046" fill="url(#paint0_linear_413_364)"/>
<path d="M620.112 640C611.238 640 603.784 636.983 597.75 630.949C591.716 624.56 588.699 616.751 588.699 607.522V357.284L599.88 359.947L497.123 487.195L494.46 480.274H682.937C691.456 480.274 698.555 483.113 704.234 488.792C709.913 494.472 712.753 501.571 712.753 510.089C712.753 518.253 709.913 525.175 704.234 530.854C698.555 536.178 691.456 538.84 682.937 538.84H450.269C442.816 538.84 435.539 535.823 428.44 529.789C421.696 523.755 418.324 516.301 418.324 507.427C418.324 499.618 420.986 492.519 426.311 486.13L594.556 280.083C597.395 276.179 601.122 273.162 605.736 271.032C610.351 268.548 615.497 267.305 621.177 267.305C630.405 267.305 637.859 270.5 643.538 276.889C649.572 282.923 652.589 290.554 652.589 299.783V607.522C652.589 616.751 649.395 624.56 643.006 630.949C636.972 636.983 629.34 640 620.112 640ZM889.459 645.324C858.933 645.324 833.022 637.338 811.725 621.365C790.783 605.038 774.811 582.499 763.807 553.748C752.804 524.642 747.302 491.277 747.302 453.653C747.302 415.673 752.804 382.308 763.807 353.557C774.811 324.807 790.783 302.445 811.725 286.472C833.022 270.145 858.933 261.981 889.459 261.981C919.984 261.981 945.718 270.145 966.66 286.472C987.956 302.445 1004.11 324.807 1015.11 353.557C1026.11 382.308 1031.62 415.673 1031.62 453.653C1031.62 491.277 1026.11 524.642 1015.11 553.748C1004.11 582.499 987.956 605.038 966.66 621.365C945.718 637.338 919.984 645.324 889.459 645.324ZM889.459 581.434C904.366 581.434 917.144 576.819 927.793 567.591C938.796 558.007 947.315 543.809 953.349 524.997C959.383 505.83 962.4 482.048 962.4 453.653C962.4 424.902 959.383 401.12 953.349 382.308C947.315 363.496 938.796 349.476 927.793 340.247C917.144 330.663 904.366 325.872 889.459 325.872C874.906 325.872 862.128 330.663 851.124 340.247C840.121 349.476 831.602 363.496 825.568 382.308C819.534 401.12 816.517 424.902 816.517 453.653C816.517 482.048 819.534 505.83 825.568 524.997C831.602 543.809 840.121 558.007 851.124 567.591C862.128 576.819 874.906 581.434 889.459 581.434ZM1260.16 640C1251.29 640 1243.83 636.983 1237.8 630.949C1231.77 624.56 1228.75 616.751 1228.75 607.522V357.284L1239.93 359.947L1137.17 487.195L1134.51 480.274H1322.99C1331.51 480.274 1338.6 483.113 1344.28 488.792C1349.96 494.472 1352.8 501.571 1352.8 510.089C1352.8 518.253 1349.96 525.175 1344.28 530.854C1338.6 536.178 1331.51 538.84 1322.99 538.84H1090.32C1082.86 538.84 1075.59 535.823 1068.49 529.789C1061.75 523.755 1058.37 516.301 1058.37 507.427C1058.37 499.618 1061.04 492.519 1066.36 486.13L1234.6 280.083C1237.44 276.179 1241.17 273.162 1245.79 271.032C1250.4 268.548 1255.55 267.305 1261.23 267.305C1270.45 267.305 1277.91 270.5 1283.59 276.889C1289.62 282.923 1292.64 290.554 1292.64 299.783V607.522C1292.64 616.751 1289.44 624.56 1283.05 630.949C1277.02 636.983 1269.39 640 1260.16 640Z" fill="white"/>
<path d="M1591.59 616.07C1591.59 626.837 1587.31 637.162 1579.7 644.777C1572.09 652.392 1561.76 656.674 1551 656.684H1399.3C1391.58 656.684 1384.13 653.83 1378.39 648.67C1372.64 643.51 1369.01 636.408 1368.18 628.73C1367.35 621.051 1369.4 613.339 1373.91 607.075C1378.43 600.812 1385.1 596.439 1392.65 594.798C1393.25 585.661 1397.3 577.094 1403.99 570.832C1410.67 564.57 1419.48 561.079 1428.63 561.067C1432.34 561.067 1436.03 561.656 1439.55 562.811C1444.89 552.471 1453.28 544.017 1463.57 538.585C1473.87 533.153 1485.58 531.004 1497.13 532.428C1508.68 533.851 1519.52 538.778 1528.19 546.546C1536.86 554.314 1542.94 564.55 1545.62 575.878C1570.3 572.47 1591.59 591.931 1591.59 616.07Z" fill="white"/>
<path d="M1235.76 477C1236.09 489.776 1236.04 502.539 1235.86 515.298C1235.8 521.679 1235.61 528.055 1235.49 534.433L1234.9 553.561L1234.11 572.683C1233.78 579.055 1233.51 585.428 1233.11 591.798C1232.37 604.539 1231.5 617.276 1230.25 630C1229.91 617.225 1229.96 604.461 1230.14 591.702C1230.19 585.322 1230.39 578.946 1230.51 572.567L1231.1 553.439L1231.9 534.317C1232.23 527.945 1232.5 521.571 1232.9 515.202C1233.64 502.461 1234.51 489.725 1235.76 477Z" fill="white"/>
<path d="M1377.84 529C1371.82 539.989 1365.49 550.784 1359.05 561.512C1355.86 566.894 1352.56 572.205 1349.31 577.55L1339.4 593.479L1329.32 609.303C1325.9 614.54 1322.54 619.814 1319.06 625.015C1312.16 635.454 1305.16 645.824 1297.84 656C1303.86 645.009 1310.19 634.212 1316.62 623.485C1319.81 618.103 1323.12 612.794 1326.36 607.447L1336.28 591.521L1346.37 575.7C1349.79 570.461 1353.15 565.19 1356.63 559.989C1363.52 549.549 1370.53 539.178 1377.84 529Z" fill="white"/>
<path d="M1309.84 496C1306.73 508.808 1303.28 521.509 1299.7 534.172C1297.95 540.514 1296.07 546.817 1294.25 553.138L1288.59 572.043L1282.75 590.889C1280.74 597.151 1278.79 603.433 1276.71 609.674C1272.62 622.178 1268.4 634.643 1263.84 647C1266.95 634.19 1270.4 621.489 1273.98 608.826C1275.73 602.484 1277.61 596.183 1279.43 589.861L1285.09 570.957L1290.94 552.112C1292.95 545.85 1294.9 539.57 1296.98 533.328C1301.07 520.824 1305.28 508.359 1309.84 496Z" fill="white"/>
<path d="M1325.75 604.586L1235.56 577.48C1232.95 576.694 1230.19 578.176 1229.41 580.789L1215.42 627.317C1214.64 629.93 1216.12 632.685 1218.73 633.471L1308.92 660.578C1311.54 661.363 1314.29 659.881 1315.08 657.268L1329.06 610.741C1329.85 608.127 1328.37 605.372 1325.75 604.586Z" fill="#CECEFC"/>
<path d="M1236 572C1235.08 576.727 1233.92 581.387 1232.68 586.021C1231.45 590.66 1230.09 595.259 1228.69 599.849C1227.26 604.426 1225.79 608.995 1224.18 613.523C1222.59 618.055 1220.91 622.562 1219 627C1219.92 622.271 1221.08 617.612 1222.32 612.978C1223.54 608.338 1224.91 603.74 1226.31 599.151C1227.75 594.574 1229.21 590.006 1230.82 585.479C1232.41 580.947 1234.09 576.438 1236 572Z" fill="white"/>
<path d="M1246 575C1245.13 579.728 1244.04 584.387 1242.87 589.022C1241.72 593.661 1240.43 598.259 1239.12 602.85C1237.77 607.427 1236.39 611.995 1234.88 616.523C1233.38 621.055 1231.8 625.562 1230 630C1230.86 625.271 1231.95 620.612 1233.12 615.978C1234.28 611.339 1235.56 606.74 1236.88 602.151C1238.23 597.575 1239.61 593.006 1241.13 588.479C1242.62 583.947 1244.2 579.439 1246 575Z" fill="white"/>
<path d="M1257 579C1256.13 583.642 1255.04 588.217 1253.87 592.767C1252.72 597.322 1251.43 601.836 1250.12 606.343C1248.77 610.837 1247.39 615.322 1245.88 619.768C1244.38 624.217 1242.8 628.643 1241 633C1241.87 628.357 1242.95 623.783 1244.12 619.233C1245.28 614.678 1246.56 610.163 1247.88 605.657C1249.23 601.164 1250.61 596.679 1252.13 592.234C1253.62 587.784 1255.2 583.358 1257 579Z" fill="white"/>
<path d="M1268 582C1267.13 586.642 1266.04 591.216 1264.87 595.767C1263.72 600.322 1262.43 604.836 1261.12 609.343C1259.77 613.837 1258.39 618.323 1256.88 622.768C1255.38 627.217 1253.8 631.643 1252 636C1252.86 631.357 1253.95 626.783 1255.12 622.233C1256.28 617.678 1257.56 613.163 1258.88 608.657C1260.23 604.164 1261.61 599.679 1263.13 595.234C1264.62 590.784 1266.2 586.358 1268 582Z" fill="white"/>
<path d="M1279.84 591C1278.97 595.814 1277.88 600.557 1276.72 605.277C1275.56 610 1274.28 614.682 1272.97 619.355C1271.61 624.016 1270.23 628.668 1268.72 633.278C1267.22 637.892 1265.64 642.482 1263.84 647C1264.71 642.185 1265.8 637.441 1266.96 632.723C1268.12 627.999 1269.4 623.317 1270.72 618.645C1272.07 613.985 1273.45 609.334 1274.97 604.723C1276.47 600.109 1278.04 595.52 1279.84 591Z" fill="white"/>
<path d="M1290.84 594C1289.97 598.814 1288.88 603.557 1287.72 608.277C1286.56 613 1285.28 617.682 1283.97 622.355C1282.61 627.016 1281.23 631.667 1279.72 636.278C1278.22 640.892 1276.64 645.482 1274.84 650C1275.71 645.185 1276.8 640.441 1277.96 635.723C1279.12 630.999 1280.4 626.317 1281.72 621.645C1283.07 616.985 1284.45 612.333 1285.97 607.723C1287.47 603.109 1289.04 598.52 1290.84 594Z" fill="white"/>
<path d="M1302.84 598C1301.92 602.728 1300.76 607.387 1299.52 612.022C1298.3 616.661 1296.93 621.259 1295.54 625.849C1294.1 630.426 1292.63 634.995 1291.02 639.522C1289.43 644.055 1287.76 648.562 1285.84 653C1286.76 648.271 1287.92 643.612 1289.16 638.977C1290.39 634.339 1291.75 629.74 1293.15 625.151C1294.59 620.575 1296.06 616.006 1297.66 611.478C1299.26 606.946 1300.93 602.439 1302.84 598Z" fill="white"/>
<path d="M1313.84 601C1312.97 605.728 1311.88 610.387 1310.72 615.022C1309.56 619.661 1308.28 624.258 1306.97 628.849C1305.61 633.426 1304.23 637.995 1302.72 642.522C1301.22 647.055 1299.64 651.562 1297.84 656C1298.71 651.271 1299.8 646.612 1300.96 641.977C1302.12 637.339 1303.4 632.74 1304.72 628.151C1306.07 623.575 1307.45 619.006 1308.97 614.478C1310.47 609.946 1312.04 605.439 1313.84 601Z" fill="white"/>
<path d="M1324.84 604C1323.92 608.9 1322.76 613.728 1321.52 618.532C1320.29 623.339 1318.93 628.104 1317.54 632.862C1316.1 637.605 1314.63 642.34 1313.02 647.032C1311.43 651.729 1309.76 656.4 1307.84 661C1308.76 656.099 1309.92 651.27 1311.16 646.467C1312.39 641.66 1313.75 636.895 1315.15 632.138C1316.59 627.396 1318.06 622.661 1319.66 617.968C1321.26 613.272 1322.93 608.6 1324.84 604Z" fill="white"/>
<path d="M1228.84 583C1237.23 585.042 1245.57 587.235 1253.87 589.579C1262.17 591.89 1270.44 594.34 1278.69 596.817C1286.94 599.337 1295.17 601.888 1303.37 604.576C1311.57 607.231 1319.73 610.039 1327.84 613C1319.45 610.961 1311.11 608.769 1302.82 606.424C1294.51 604.113 1286.25 601.663 1277.99 599.183C1269.75 596.66 1261.51 594.11 1253.32 591.421C1245.11 588.765 1236.96 585.958 1228.84 583Z" fill="white"/>
<path d="M1224.84 594C1233.31 596.042 1241.74 598.236 1250.12 600.58C1258.51 602.891 1266.86 605.34 1275.2 607.816C1283.53 610.337 1291.84 612.888 1300.12 615.576C1308.41 618.23 1316.65 621.038 1324.84 624C1316.37 621.96 1307.94 619.768 1299.56 617.424C1291.17 615.112 1282.82 612.662 1274.49 610.184C1266.16 607.659 1257.84 605.109 1249.56 602.42C1241.28 599.765 1233.04 596.958 1224.84 594Z" fill="white"/>
<path d="M1221.84 605C1230.31 607.043 1238.74 609.236 1247.12 611.58C1255.51 613.891 1263.86 616.341 1272.2 618.817C1280.53 621.338 1288.84 623.888 1297.12 626.576C1305.41 629.231 1313.65 632.039 1321.84 635C1313.37 632.96 1304.94 630.768 1296.56 628.424C1288.17 626.112 1279.82 623.663 1271.49 621.184C1263.16 618.66 1254.84 616.109 1246.56 613.42C1238.28 610.765 1230.04 607.958 1221.84 605Z" fill="white"/>
<path d="M1218.84 616C1227.31 618.042 1235.74 620.235 1244.12 622.579C1252.51 624.89 1260.86 627.34 1269.2 629.817C1277.53 632.337 1285.84 634.888 1294.12 637.576C1302.41 640.231 1310.65 643.039 1318.84 646C1310.37 643.961 1301.94 641.769 1293.56 639.424C1285.17 637.112 1276.83 634.663 1268.49 632.183C1260.16 629.66 1251.84 627.109 1243.56 624.42C1235.28 621.764 1227.04 618.958 1218.84 616Z" fill="white"/>
<path d="M1214.84 627C1223.31 628.974 1231.74 631.094 1240.12 633.36C1248.51 635.595 1256.86 637.962 1265.2 640.356C1273.53 642.793 1281.84 645.258 1290.12 647.857C1298.41 650.423 1306.65 653.137 1314.84 656C1306.37 654.029 1297.94 651.91 1289.56 649.643C1281.17 647.409 1272.83 645.041 1264.49 642.644C1256.16 640.204 1247.84 637.739 1239.56 635.14C1231.28 632.573 1223.04 629.859 1214.84 627Z" fill="white"/>
<path d="M1485.48 379.196C1505.04 314.191 1456.27 242.097 1391.19 222.56C1326.11 203.023 1245.63 236.321 1226.07 301.326C1218.52 326.427 1232.58 528.329 1232.58 528.329L1354.75 565C1354.75 565 1477.92 404.297 1485.48 379.196Z" fill="white"/>
<path d="M1391.39 222.333C1381.42 219.356 1371.12 217.566 1360.73 217C1410.47 246.015 1442.83 306.179 1426.3 361.26C1418.77 386.378 1295.84 547.187 1295.84 547.187L1355.02 565C1355.02 565 1477.95 404.191 1485.48 379.073C1505 314.025 1456.34 241.883 1391.39 222.333Z" fill="#CECEFC"/>
<path d="M1419.84 234.969C1410.84 229.724 1401.24 225.552 1391.25 222.541C1326.15 203.071 1245.64 236.255 1226.07 301.036C1218.52 326.052 1232.59 527.26 1232.59 527.26L1291.91 545C1291.91 545 1277.84 343.792 1285.4 318.777C1301.96 263.921 1362.23 231.727 1419.84 234.969Z" fill="#CECEFC"/>
<path d="M1391.08 221.986C1387.11 220.795 1383.1 219.8 1379.03 219C1438.17 243.188 1480.11 310.6 1461.72 371.752C1454.16 396.895 1330.84 557.868 1330.84 557.868L1354.59 565C1354.59 565 1477.91 404.028 1485.47 378.884C1505.05 313.771 1456.23 241.555 1391.08 221.986Z" fill="white"/>
<path d="M1403.84 226.686C1399.99 225.124 1396.08 223.746 1392.09 222.552C1326.66 203.042 1245.75 236.294 1226.08 301.207C1218.49 326.273 1232.63 527.89 1232.63 527.89L1256.48 535C1256.48 535 1242.34 333.384 1249.93 308.317C1268.4 247.354 1340.89 214.32 1403.84 226.686Z" fill="white"/>
<path d="M580 238.981C579.995 250.12 575.537 260.802 567.605 268.681C559.673 276.559 548.916 280.99 537.697 281H379.62C371.573 281.001 363.809 278.048 357.822 272.709C351.835 267.37 348.047 260.022 347.187 252.078C346.327 244.134 348.455 236.155 353.162 229.674C357.869 223.194 364.822 218.67 372.686 216.972C373.315 207.519 377.538 198.656 384.5 192.176C391.462 185.697 400.643 182.086 410.185 182.073C414.049 182.074 417.888 182.682 421.56 183.878C427.131 173.18 435.867 164.433 446.595 158.813C457.322 153.193 469.526 150.97 481.565 152.442C493.603 153.915 504.898 159.012 513.931 167.049C522.964 175.086 529.301 185.677 532.09 197.397C538.064 196.595 544.141 197.072 549.913 198.795C555.685 200.518 561.02 203.447 565.558 207.386C570.095 211.325 573.732 216.182 576.223 221.631C578.714 227.081 580.002 232.996 580 238.981Z" fill="white"/>
<path d="M361.234 506.615C368.86 506.615 375.042 500.433 375.042 492.807C375.042 485.182 368.86 479 361.234 479C353.609 479 347.427 485.182 347.427 492.807C347.427 500.433 353.609 506.615 361.234 506.615Z" fill="white"/>
<path d="M373.711 527.449C377.665 527.449 380.871 524.243 380.871 520.289C380.871 516.335 377.665 513.13 373.711 513.13C369.757 513.13 366.552 516.335 366.552 520.289C366.552 524.243 369.757 527.449 373.711 527.449Z" fill="white"/>
<path d="M354.291 548.894C358.245 548.894 361.45 545.688 361.45 541.734C361.45 537.78 358.245 534.575 354.291 534.575C350.337 534.575 347.131 537.78 347.131 541.734C347.131 545.688 350.337 548.894 354.291 548.894Z" fill="white"/>
<path d="M339.228 525.074C344.876 525.074 349.455 520.495 349.455 514.847C349.455 509.198 344.876 504.619 339.228 504.619C333.579 504.619 329 509.198 329 514.847C329 520.495 333.579 525.074 339.228 525.074Z" fill="white"/>
<path d="M1131.01 358.65C1138.64 358.65 1144.82 352.469 1144.82 344.843C1144.82 337.218 1138.64 331.036 1131.01 331.036C1123.39 331.036 1117.21 337.218 1117.21 344.843C1117.21 352.469 1123.39 358.65 1131.01 358.65Z" fill="white"/>
<path d="M1100.86 353.387C1104.82 353.387 1108.02 350.181 1108.02 346.227C1108.02 342.273 1104.82 339.068 1100.86 339.068C1096.91 339.068 1093.7 342.273 1093.7 346.227C1093.7 350.181 1096.91 353.387 1100.86 353.387Z" fill="white"/>
<path d="M1088.16 327.393C1092.11 327.393 1095.32 324.188 1095.32 320.234C1095.32 316.28 1092.11 313.074 1088.16 313.074C1084.21 313.074 1081 316.28 1081 320.234C1081 324.188 1084.21 327.393 1088.16 327.393Z" fill="white"/>
<path d="M1118.72 326.455C1124.37 326.455 1128.94 321.876 1128.94 316.228C1128.94 310.579 1124.37 306 1118.72 306C1113.07 306 1108.49 310.579 1108.49 316.228C1108.49 321.876 1113.07 326.455 1118.72 326.455Z" fill="white"/>
<path d="M1042.6 632.82C1050.22 632.82 1056.4 626.638 1056.4 619.013C1056.4 611.387 1050.22 605.206 1042.6 605.206C1034.97 605.206 1028.79 611.387 1028.79 619.013C1028.79 626.638 1034.97 632.82 1042.6 632.82Z" fill="white"/>
<path d="M1006.16 636.137C1010.11 636.137 1013.32 632.931 1013.32 628.977C1013.32 625.023 1010.11 621.818 1006.16 621.818C1002.21 621.818 999 625.023 999 628.977C999 632.931 1002.21 636.137 1006.16 636.137Z" fill="white"/>
<path d="M1024.34 595.455C1029.99 595.455 1034.57 590.876 1034.57 585.228C1034.57 579.579 1029.99 575 1024.34 575C1018.69 575 1014.11 579.579 1014.11 585.228C1014.11 590.876 1018.69 595.455 1024.34 595.455Z" fill="white"/>
<path d="M665.471 445.234C665.569 449.307 665.555 453.376 665.5 457.443C665.484 459.478 665.426 461.51 665.388 463.544L665.211 469.642L664.973 475.738C664.872 477.769 664.793 479.801 664.67 481.831C664.447 485.893 664.184 489.954 663.806 494.01C663.706 489.937 663.72 485.868 663.775 481.801C663.791 479.767 663.85 477.734 663.887 475.701L664.065 469.603L664.305 463.507C664.406 461.475 664.487 459.443 664.609 457.413C664.832 453.351 665.095 449.291 665.471 445.234Z" fill="white"/>
<path d="M709.569 460.681C707.694 464.107 705.724 467.473 703.72 470.818C702.727 472.496 701.7 474.152 700.688 475.819L697.602 480.785L694.463 485.719C693.399 487.352 692.352 488.996 691.27 490.618C689.123 493.873 686.942 497.106 684.665 500.279C686.538 496.852 688.507 493.486 690.511 490.141C691.504 488.463 692.533 486.807 693.544 485.14L696.631 480.175L699.771 475.242C700.835 473.608 701.883 471.965 702.965 470.343C705.112 467.088 707.292 463.854 709.569 460.681Z" fill="white"/>
<path d="M688.638 450.283C687.665 454.258 686.583 458.199 685.464 462.129C684.914 464.097 684.325 466.053 683.755 468.015L681.985 473.882L680.156 479.731C679.525 481.674 678.915 483.624 678.264 485.561C676.983 489.441 675.664 493.31 674.235 497.144C675.207 493.169 676.288 489.227 677.408 485.298C677.957 483.329 678.547 481.374 679.117 479.412L680.889 473.545L682.719 467.697C683.349 465.753 683.96 463.804 684.611 461.867C685.892 457.987 687.211 454.118 688.638 450.283Z" fill="white"/>
<path d="M691.24 483.351L668.042 476.378C665.926 475.743 663.695 476.942 663.06 479.058L660.151 488.735C659.515 490.85 660.715 493.081 662.831 493.717L686.029 500.689C688.145 501.325 690.375 500.125 691.011 498.01L693.919 488.333C694.555 486.217 693.356 483.986 691.24 483.351Z" fill="#CECEFC"/>
<path d="M665.541 475.627C665.258 477.117 664.903 478.586 664.523 480.047C664.147 481.509 663.728 482.959 663.301 484.406C662.861 485.849 662.411 487.289 661.919 488.717C661.431 490.145 660.917 491.566 660.33 492.965C660.612 491.475 660.966 490.006 661.347 488.545C661.723 487.082 662.141 485.633 662.569 484.186C663.011 482.743 663.461 481.303 663.953 479.876C664.442 478.447 664.955 477.026 665.541 475.627Z" fill="white"/>
<path d="M669.017 476.672C668.734 478.162 668.38 479.631 667.999 481.092C667.623 482.554 667.205 484.004 666.778 485.451C666.337 486.894 665.887 488.334 665.395 489.762C664.907 491.19 664.393 492.611 663.806 494.01C664.088 492.519 664.443 491.051 664.823 489.59C665.199 488.127 665.618 486.678 666.046 485.231C666.487 483.788 666.937 482.348 667.43 480.921C667.918 479.492 668.431 478.071 669.017 476.672Z" fill="white"/>
<path d="M672.494 477.716C672.211 479.207 671.856 480.676 671.476 482.137C671.1 483.599 670.681 485.049 670.254 486.496C669.813 487.939 669.364 489.379 668.871 490.806C668.383 492.235 667.869 493.656 667.282 495.055C667.564 493.564 667.919 492.095 668.299 490.634C668.675 489.172 669.094 487.722 669.522 486.276C669.963 484.833 670.413 483.393 670.906 481.965C671.394 480.537 671.908 479.116 672.494 477.716Z" fill="white"/>
<path d="M675.97 478.761C675.687 480.252 675.332 481.72 674.952 483.181C674.576 484.644 674.158 486.093 673.731 487.54C673.29 488.983 672.84 490.424 672.348 491.851C671.86 493.28 671.346 494.701 670.759 496.1C671.041 494.609 671.395 493.14 671.776 491.679C672.152 490.217 672.571 488.767 672.998 487.32C673.44 485.878 673.89 484.438 674.382 483.01C674.871 481.582 675.384 480.161 675.97 478.761Z" fill="white"/>
<path d="M679.446 479.806C679.164 481.297 678.809 482.765 678.428 484.226C678.053 485.689 677.634 487.138 677.207 488.585C676.766 490.028 676.317 491.469 675.824 492.896C675.336 494.325 674.822 495.746 674.235 497.145C674.517 495.654 674.872 494.185 675.252 492.724C675.628 491.262 676.047 489.812 676.475 488.365C676.916 486.923 677.366 485.482 677.859 484.055C678.347 482.626 678.861 481.205 679.446 479.806Z" fill="white"/>
<path d="M682.923 480.851C682.64 482.341 682.285 483.81 681.905 485.271C681.529 486.734 681.11 488.183 680.683 489.63C680.242 491.073 679.793 492.513 679.3 493.941C678.812 495.369 678.298 496.79 677.712 498.189C677.993 496.699 678.348 495.23 678.728 493.769C679.104 492.306 679.523 490.857 679.951 489.41C680.392 487.967 680.842 486.527 681.335 485.1C681.823 483.671 682.337 482.25 682.923 480.851Z" fill="white"/>
<path d="M686.399 481.896C686.116 483.386 685.761 484.855 685.381 486.316C685.005 487.778 684.587 489.228 684.16 490.675C683.719 492.118 683.269 493.558 682.777 494.985C682.289 496.414 681.775 497.835 681.188 499.234C681.47 497.744 681.824 496.275 682.205 494.814C682.581 493.351 683 491.902 683.427 490.455C683.869 489.012 684.319 487.572 684.811 486.145C685.3 484.716 685.813 483.295 686.399 481.896Z" fill="white"/>
<path d="M689.875 482.941C689.593 484.431 689.238 485.9 688.858 487.361C688.482 488.823 688.063 490.273 687.636 491.72C687.195 493.163 686.746 494.603 686.253 496.03C685.765 497.459 685.251 498.88 684.665 500.279C684.946 498.789 685.301 497.32 685.681 495.859C686.057 494.396 686.476 492.947 686.904 491.5C687.345 490.057 687.795 488.617 688.288 487.19C688.776 485.761 689.29 484.34 689.875 482.941Z" fill="white"/>
<path d="M693.352 483.985C693.069 485.476 692.714 486.944 692.334 488.406C691.958 489.868 691.539 491.317 691.112 492.765C690.672 494.207 690.222 495.648 689.73 497.075C689.242 498.504 688.728 499.925 688.141 501.324C688.423 499.833 688.777 498.364 689.158 496.903C689.534 495.441 689.952 493.991 690.38 492.545C690.822 491.102 691.272 489.662 691.764 488.234C692.253 486.806 692.766 485.385 693.352 483.985Z" fill="white"/>
<path d="M663.523 477.437C666.139 478.069 668.741 478.748 671.329 479.473C673.92 480.188 676.498 480.946 679.074 481.712C681.645 482.492 684.214 483.281 686.77 484.112C689.329 484.934 691.874 485.802 694.405 486.719C691.788 486.088 689.186 485.41 686.598 484.684C684.007 483.969 681.429 483.211 678.854 482.444C676.282 481.663 673.714 480.874 671.158 480.042C668.599 479.221 666.054 478.352 663.523 477.437Z" fill="white"/>
<path d="M662.51 480.807C665.126 481.439 667.728 482.118 670.316 482.843C672.907 483.558 675.485 484.316 678.061 485.082C680.632 485.862 683.201 486.651 685.757 487.483C688.316 488.304 690.861 489.173 693.392 490.089C690.775 489.458 688.173 488.78 685.585 488.054C682.994 487.339 680.416 486.581 677.841 485.814C675.269 485.033 672.701 484.244 670.145 483.413C667.586 482.591 665.041 481.723 662.51 480.807Z" fill="white"/>
<path d="M661.497 484.177C664.113 484.81 666.715 485.488 669.303 486.213C671.894 486.928 674.472 487.686 677.048 488.452C679.619 489.232 682.188 490.021 684.744 490.853C687.303 491.674 689.848 492.543 692.379 493.459C689.762 492.828 687.16 492.15 684.572 491.424C681.981 490.709 679.403 489.952 676.828 489.184C674.256 488.404 671.688 487.615 669.132 486.783C666.573 485.961 664.028 485.093 661.497 484.177Z" fill="white"/>
<path d="M660.484 487.548C663.1 488.18 665.702 488.858 668.29 489.584C670.881 490.299 673.459 491.057 676.035 491.823C678.607 492.602 681.175 493.392 683.731 494.223C686.291 495.045 688.835 495.913 691.366 496.829C688.75 496.198 686.148 495.52 683.56 494.795C680.969 494.08 678.391 493.322 675.815 492.555C673.244 491.774 670.675 490.985 668.119 490.153C665.56 489.331 663.015 488.463 660.484 487.548Z" fill="white"/>
<path d="M659.471 490.918C662.087 491.55 664.689 492.229 667.277 492.954C669.868 493.669 672.446 494.427 675.022 495.193C677.594 495.973 680.163 496.762 682.718 497.593C685.278 498.415 687.822 499.283 690.353 500.2C687.737 499.569 685.135 498.89 682.547 498.165C679.956 497.45 677.378 496.692 674.802 495.925C672.231 495.144 669.662 494.355 667.106 493.523C664.547 492.702 662.002 491.833 659.471 490.918Z" fill="white"/>
<path d="M743.069 414.159C749.111 394.056 734.049 371.761 713.947 365.719C693.844 359.678 668.987 369.975 662.945 390.078C660.612 397.84 664.957 460.277 664.957 460.277L702.69 471.618C702.69 471.618 740.736 421.921 743.069 414.159Z" fill="white"/>
<path d="M713.947 365.719C710.859 364.799 707.674 364.246 704.457 364.071C719.852 373.038 729.869 391.631 724.753 408.653C722.42 416.416 684.373 466.113 684.373 466.113L702.69 471.618C702.69 471.618 740.736 421.921 743.069 414.158C749.111 394.056 734.049 371.761 713.947 365.719Z" fill="#CECEFC"/>
<path d="M722.773 369.576C719.993 367.948 717.03 366.654 713.947 365.719C693.844 359.678 668.987 369.975 662.945 390.078C660.612 397.84 664.957 460.277 664.957 460.277L683.274 465.782C683.274 465.782 678.929 403.345 681.262 395.583C686.378 378.56 704.985 368.57 722.773 369.576Z" fill="#CECEFC"/>
<path d="M713.947 365.719C712.724 365.352 711.485 365.044 710.23 364.798C728.477 372.265 741.417 393.077 735.743 411.957C733.41 419.719 695.363 469.416 695.363 469.416L702.69 471.618C702.69 471.618 740.736 421.921 743.069 414.159C749.111 394.056 734.049 371.761 713.947 365.719Z" fill="white"/>
<path d="M717.556 367C716.374 366.516 715.171 366.089 713.947 365.719C693.844 359.678 668.987 369.975 662.945 390.078C660.612 397.84 664.957 460.277 664.957 460.277L672.284 462.479C672.284 462.479 667.939 400.042 670.272 392.28C675.946 373.4 698.215 363.17 717.556 367Z" fill="white"/>
<path d="M628.353 829.869C628.353 831.888 628.016 833.772 627.343 835.521C626.67 837.271 625.715 838.819 624.477 840.164C623.265 841.483 621.812 842.52 620.116 843.273C618.447 844.027 616.617 844.404 614.625 844.404C612.634 844.404 610.803 844.027 609.135 843.273C607.466 842.52 606.012 841.483 604.774 840.164C603.563 838.819 602.621 837.271 601.948 835.521C601.275 833.772 600.939 831.888 600.939 829.869C600.939 827.85 601.275 825.966 601.948 824.217C602.621 822.467 603.563 820.933 604.774 819.614C606.012 818.268 607.466 817.219 609.135 816.465C610.803 815.711 612.634 815.335 614.625 815.335C616.617 815.335 618.447 815.711 620.116 816.465C621.812 817.219 623.265 818.268 624.477 819.614C625.715 820.933 626.67 822.467 627.343 824.217C628.016 825.966 628.353 827.85 628.353 829.869ZM623.104 829.869C623.104 828.066 622.741 826.437 622.014 824.984C621.287 823.504 620.291 822.333 619.026 821.471C617.761 820.61 616.294 820.179 614.625 820.179C612.957 820.179 611.49 820.61 610.225 821.471C608.96 822.333 607.964 823.49 607.237 824.944C606.537 826.397 606.187 828.039 606.187 829.869C606.187 831.673 606.537 833.314 607.237 834.795C607.964 836.248 608.96 837.406 610.225 838.267C611.49 839.128 612.957 839.559 614.625 839.559C616.294 839.559 617.761 839.128 619.026 838.267C620.291 837.406 621.287 836.248 622.014 834.795C622.741 833.314 623.104 831.673 623.104 829.869ZM658.988 829.869C658.988 831.888 658.651 833.772 657.978 835.521C657.305 837.271 656.35 838.819 655.112 840.164C653.901 841.483 652.447 842.52 650.751 843.273C649.083 844.027 647.252 844.404 645.261 844.404C643.269 844.404 641.439 844.027 639.77 843.273C638.101 842.52 636.648 841.483 635.409 840.164C634.198 838.819 633.256 837.271 632.583 835.521C631.91 833.772 631.574 831.888 631.574 829.869C631.574 827.85 631.91 825.966 632.583 824.217C633.256 822.467 634.198 820.933 635.409 819.614C636.648 818.268 638.101 817.219 639.77 816.465C641.439 815.711 643.269 815.335 645.261 815.335C647.252 815.335 649.083 815.711 650.751 816.465C652.447 817.219 653.901 818.268 655.112 819.614C656.35 820.933 657.305 822.467 657.978 824.217C658.651 825.966 658.988 827.85 658.988 829.869ZM653.739 829.869C653.739 828.066 653.376 826.437 652.649 824.984C651.922 823.504 650.926 822.333 649.661 821.471C648.396 820.61 646.929 820.179 645.261 820.179C643.592 820.179 642.125 820.61 640.86 821.471C639.595 822.333 638.599 823.49 637.872 824.944C637.172 826.397 636.823 828.039 636.823 829.869C636.823 831.673 637.172 833.314 637.872 834.795C638.599 836.248 639.595 837.406 640.86 838.267C642.125 839.128 643.592 839.559 645.261 839.559C646.929 839.559 648.396 839.128 649.661 838.267C650.926 837.406 651.922 836.248 652.649 834.795C653.376 833.314 653.739 831.673 653.739 829.869ZM675.29 815.738C676.69 815.738 677.995 816.142 679.207 816.95C680.445 817.757 681.441 818.847 682.194 820.22C682.948 821.593 683.325 823.127 683.325 824.822C683.325 826.491 682.948 828.012 682.194 829.385C681.441 830.757 680.445 831.861 679.207 832.695C677.995 833.503 676.69 833.907 675.29 833.907H667.861L668.265 833.18V841.537C668.265 842.237 668.05 842.829 667.619 843.314C667.189 843.771 666.623 844 665.924 844C665.251 844 664.699 843.771 664.268 843.314C663.838 842.829 663.622 842.237 663.622 841.537V818.201C663.622 817.501 663.851 816.923 664.309 816.465C664.793 815.981 665.385 815.738 666.085 815.738H675.29ZM675.29 829.304C675.802 829.304 676.3 829.089 676.784 828.658C677.269 828.227 677.672 827.676 677.995 827.003C678.318 826.303 678.48 825.576 678.48 824.822C678.48 824.042 678.318 823.315 677.995 822.642C677.672 821.969 677.269 821.431 676.784 821.027C676.3 820.597 675.802 820.381 675.29 820.381H667.781L668.265 819.655V829.95L667.821 829.304H675.29ZM697.033 844.404C695.149 844.404 693.453 844.175 691.946 843.717C690.439 843.233 688.999 842.399 687.626 841.214C687.276 840.918 687.007 840.582 686.819 840.205C686.63 839.828 686.536 839.451 686.536 839.074C686.536 838.455 686.751 837.917 687.182 837.459C687.639 836.975 688.205 836.733 688.878 836.733C689.389 836.733 689.847 836.894 690.25 837.217C691.273 838.052 692.282 838.684 693.278 839.115C694.301 839.545 695.553 839.761 697.033 839.761C698.029 839.761 698.944 839.613 699.779 839.317C700.613 838.994 701.286 838.576 701.797 838.065C702.309 837.527 702.564 836.921 702.564 836.248C702.564 835.441 702.322 834.754 701.838 834.189C701.353 833.624 700.613 833.153 699.617 832.776C698.621 832.372 697.356 832.063 695.822 831.847C694.368 831.632 693.09 831.309 691.986 830.879C690.883 830.421 689.954 829.856 689.201 829.183C688.474 828.483 687.922 827.676 687.545 826.76C687.168 825.818 686.98 824.769 686.98 823.611C686.98 821.862 687.424 820.368 688.312 819.13C689.228 817.892 690.452 816.95 691.986 816.304C693.521 815.658 695.216 815.335 697.074 815.335C698.823 815.335 700.438 815.604 701.918 816.142C703.426 816.653 704.65 817.313 705.592 818.12C706.373 818.739 706.763 819.453 706.763 820.26C706.763 820.852 706.534 821.391 706.077 821.875C705.619 822.36 705.081 822.602 704.462 822.602C704.058 822.602 703.695 822.481 703.372 822.239C702.941 821.862 702.362 821.512 701.636 821.189C700.909 820.839 700.142 820.556 699.334 820.341C698.527 820.099 697.773 819.978 697.074 819.978C695.916 819.978 694.934 820.126 694.126 820.422C693.346 820.718 692.754 821.121 692.35 821.633C691.946 822.144 691.744 822.736 691.744 823.409C691.744 824.217 691.973 824.89 692.431 825.428C692.915 825.939 693.601 826.357 694.49 826.68C695.378 826.976 696.441 827.245 697.679 827.487C699.294 827.783 700.707 828.133 701.918 828.537C703.157 828.941 704.179 829.465 704.987 830.111C705.794 830.73 706.4 831.524 706.804 832.493C707.207 833.436 707.409 834.593 707.409 835.966C707.409 837.715 706.925 839.222 705.956 840.487C704.987 841.753 703.708 842.721 702.12 843.394C700.559 844.067 698.863 844.404 697.033 844.404ZM714.421 835.077C713.506 835.077 713.008 834.566 712.927 833.543L711.757 818.686C711.703 817.851 711.918 817.151 712.403 816.586C712.914 816.021 713.573 815.738 714.381 815.738C715.188 815.738 715.848 816.021 716.359 816.586C716.871 817.151 717.086 817.851 717.005 818.686L715.875 833.543C715.794 834.566 715.31 835.077 714.421 835.077ZM714.139 844C713.358 844 712.753 843.798 712.322 843.394C711.918 842.964 711.716 842.358 711.716 841.578V840.891C711.716 840.111 711.918 839.519 712.322 839.115C712.753 838.684 713.358 838.469 714.139 838.469H714.664C715.444 838.469 716.036 838.684 716.44 839.115C716.871 839.519 717.086 840.111 717.086 840.891V841.578C717.086 842.358 716.871 842.964 716.44 843.394C716.036 843.798 715.444 844 714.664 844H714.139ZM743.687 844C742.934 844 742.315 843.771 741.83 843.314C741.346 842.829 741.103 842.237 741.103 841.537V818.12H746.352V841.537C746.352 842.237 746.096 842.829 745.585 843.314C745.1 843.771 744.468 844 743.687 844ZM734.765 820.381C734.065 820.381 733.473 820.166 732.988 819.735C732.531 819.305 732.302 818.739 732.302 818.04C732.302 817.34 732.531 816.788 732.988 816.384C733.473 815.954 734.065 815.738 734.765 815.738H752.691C753.39 815.738 753.969 815.954 754.427 816.384C754.911 816.815 755.153 817.38 755.153 818.08C755.153 818.78 754.911 819.345 754.427 819.776C753.969 820.179 753.39 820.381 752.691 820.381H734.765ZM761.976 815.738C762.622 815.738 763.187 815.981 763.671 816.465C764.183 816.923 764.439 817.501 764.439 818.201V841.537C764.439 842.237 764.183 842.829 763.671 843.314C763.16 843.771 762.568 844 761.895 844C761.141 844 760.536 843.771 760.078 843.314C759.621 842.829 759.392 842.237 759.392 841.537V818.201C759.392 817.501 759.634 816.923 760.119 816.465C760.603 815.981 761.222 815.738 761.976 815.738ZM779.861 815.738C780.615 815.738 781.221 815.981 781.678 816.465C782.136 816.923 782.365 817.501 782.365 818.201V841.537C782.365 842.237 782.122 842.829 781.638 843.314C781.18 843.771 780.561 844 779.781 844C779.135 844 778.556 843.771 778.045 843.314C777.56 842.829 777.318 842.237 777.318 841.537V818.201C777.318 817.501 777.573 816.923 778.085 816.465C778.596 815.981 779.188 815.738 779.861 815.738ZM761.855 827.487H779.861V832.13H761.855V827.487ZM793.457 841.537C793.457 842.237 793.202 842.829 792.69 843.314C792.179 843.771 791.587 844 790.914 844C790.16 844 789.554 843.771 789.097 843.314C788.639 842.829 788.41 842.237 788.41 841.537V818.201C788.41 817.501 788.653 816.923 789.137 816.465C789.622 815.981 790.241 815.738 790.994 815.738C791.64 815.738 792.206 815.981 792.69 816.465C793.202 816.923 793.457 817.501 793.457 818.201V841.537ZM808.613 844.404C806.729 844.404 805.033 844.175 803.526 843.717C802.019 843.233 800.579 842.399 799.206 841.214C798.856 840.918 798.587 840.582 798.399 840.205C798.21 839.828 798.116 839.451 798.116 839.074C798.116 838.455 798.331 837.917 798.762 837.459C799.22 836.975 799.785 836.733 800.458 836.733C800.969 836.733 801.427 836.894 801.83 837.217C802.853 838.052 803.863 838.684 804.858 839.115C805.881 839.545 807.133 839.761 808.613 839.761C809.609 839.761 810.524 839.613 811.359 839.317C812.193 838.994 812.866 838.576 813.377 838.065C813.889 837.527 814.144 836.921 814.144 836.248C814.144 835.441 813.902 834.754 813.418 834.189C812.933 833.624 812.193 833.153 811.197 832.776C810.201 832.372 808.936 832.063 807.402 831.847C805.948 831.632 804.67 831.309 803.566 830.879C802.463 830.421 801.534 829.856 800.781 829.183C800.054 828.483 799.502 827.676 799.125 826.76C798.748 825.818 798.56 824.769 798.56 823.611C798.56 821.862 799.004 820.368 799.892 819.13C800.808 817.892 802.032 816.95 803.566 816.304C805.101 815.658 806.796 815.335 808.654 815.335C810.403 815.335 812.018 815.604 813.498 816.142C815.006 816.653 816.23 817.313 817.172 818.12C817.953 818.739 818.343 819.453 818.343 820.26C818.343 820.852 818.114 821.391 817.657 821.875C817.199 822.36 816.661 822.602 816.042 822.602C815.638 822.602 815.275 822.481 814.952 822.239C814.521 821.862 813.943 821.512 813.216 821.189C812.489 820.839 811.722 820.556 810.914 820.341C810.107 820.099 809.353 819.978 808.654 819.978C807.496 819.978 806.514 820.126 805.706 820.422C804.926 820.718 804.334 821.121 803.93 821.633C803.526 822.144 803.324 822.736 803.324 823.409C803.324 824.217 803.553 824.89 804.011 825.428C804.495 825.939 805.181 826.357 806.07 826.68C806.958 826.976 808.021 827.245 809.259 827.487C810.874 827.783 812.287 828.133 813.498 828.537C814.737 828.941 815.759 829.465 816.567 830.111C817.374 830.73 817.98 831.524 818.384 832.493C818.787 833.436 818.989 834.593 818.989 835.966C818.989 837.715 818.505 839.222 817.536 840.487C816.567 841.753 815.288 842.721 813.7 843.394C812.139 844.067 810.443 844.404 808.613 844.404ZM846.603 815.738C848.003 815.738 849.308 816.142 850.519 816.95C851.757 817.757 852.753 818.847 853.507 820.22C854.261 821.593 854.637 823.127 854.637 824.822C854.637 826.491 854.261 828.012 853.507 829.385C852.753 830.757 851.757 831.861 850.519 832.695C849.308 833.503 848.003 833.907 846.603 833.907H839.174L839.578 833.18V841.537C839.578 842.237 839.363 842.829 838.932 843.314C838.501 843.771 837.936 844 837.236 844C836.563 844 836.012 843.771 835.581 843.314C835.15 842.829 834.935 842.237 834.935 841.537V818.201C834.935 817.501 835.164 816.923 835.621 816.465C836.106 815.981 836.698 815.738 837.398 815.738H846.603ZM846.603 829.304C847.114 829.304 847.612 829.089 848.097 828.658C848.581 828.227 848.985 827.676 849.308 827.003C849.631 826.303 849.793 825.576 849.793 824.822C849.793 824.042 849.631 823.315 849.308 822.642C848.985 821.969 848.581 821.431 848.097 821.027C847.612 820.597 847.114 820.381 846.603 820.381H839.094L839.578 819.655V829.95L839.134 829.304H846.603ZM868.021 822.077L859.301 842.587C859.112 843.098 858.816 843.502 858.412 843.798C858.036 844.067 857.618 844.202 857.161 844.202C856.434 844.202 855.896 844 855.546 843.596C855.196 843.193 855.021 842.695 855.021 842.102C855.021 841.86 855.061 841.604 855.142 841.335L865.195 817.192C865.411 816.653 865.734 816.236 866.164 815.94C866.622 815.644 867.106 815.523 867.618 815.577C868.102 815.577 868.546 815.725 868.95 816.021C869.381 816.29 869.69 816.68 869.879 817.192L879.811 840.851C879.945 841.201 880.012 841.524 880.012 841.82C880.012 842.547 879.77 843.125 879.286 843.556C878.828 843.987 878.317 844.202 877.751 844.202C877.267 844.202 876.823 844.054 876.419 843.758C876.042 843.462 875.746 843.058 875.531 842.547L866.851 822.319L868.021 822.077ZM860.552 837.661L862.773 833.018H873.674L874.441 837.661H860.552ZM896.557 844.404C894.512 844.404 892.601 844.027 890.824 843.273C889.048 842.52 887.486 841.483 886.141 840.164C884.795 838.819 883.732 837.271 882.951 835.521C882.198 833.772 881.821 831.888 881.821 829.869C881.821 827.85 882.198 825.966 882.951 824.217C883.732 822.467 884.795 820.933 886.141 819.614C887.486 818.268 889.048 817.219 890.824 816.465C892.601 815.711 894.512 815.335 896.557 815.335C897.822 815.335 899.047 815.469 900.231 815.738C901.415 816.007 902.506 816.411 903.501 816.95C903.905 817.165 904.201 817.461 904.39 817.838C904.605 818.188 904.713 818.551 904.713 818.928C904.713 819.574 904.497 820.153 904.067 820.664C903.636 821.175 903.084 821.431 902.411 821.431C902.196 821.431 901.967 821.404 901.725 821.35C901.51 821.296 901.294 821.216 901.079 821.108C900.406 820.812 899.693 820.583 898.939 820.422C898.186 820.26 897.392 820.179 896.557 820.179C894.808 820.179 893.206 820.624 891.753 821.512C890.326 822.373 889.182 823.544 888.321 825.024C887.486 826.478 887.069 828.093 887.069 829.869C887.069 831.619 887.486 833.234 888.321 834.714C889.182 836.194 890.326 837.379 891.753 838.267C893.206 839.128 894.808 839.559 896.557 839.559C897.365 839.559 898.253 839.478 899.222 839.317C900.191 839.155 900.985 838.94 901.604 838.671L901.241 839.882V832.978L901.927 833.584H897.445C896.746 833.584 896.153 833.355 895.669 832.897C895.211 832.44 894.983 831.861 894.983 831.161C894.983 830.461 895.211 829.883 895.669 829.425C896.153 828.967 896.746 828.739 897.445 828.739H904.067C904.766 828.739 905.345 828.981 905.803 829.465C906.26 829.923 906.489 830.502 906.489 831.201V839.761C906.489 840.299 906.355 840.743 906.085 841.093C905.843 841.443 905.561 841.726 905.238 841.941C903.999 842.695 902.64 843.3 901.16 843.758C899.706 844.188 898.172 844.404 896.557 844.404ZM913.808 815.738H927.334C928.033 815.738 928.612 815.967 929.07 816.425C929.554 816.855 929.796 817.421 929.796 818.12C929.796 818.793 929.554 819.345 929.07 819.776C928.612 820.179 928.033 820.381 927.334 820.381H916.029L916.392 819.695V827.568L916.069 827.245H925.517C926.217 827.245 926.795 827.474 927.253 827.931C927.737 828.362 927.98 828.927 927.98 829.627C927.98 830.3 927.737 830.852 927.253 831.282C926.795 831.686 926.217 831.888 925.517 831.888H916.19L916.392 831.565V839.72L916.069 839.357H927.334C928.033 839.357 928.612 839.599 929.07 840.084C929.554 840.541 929.796 841.08 929.796 841.699C929.796 842.372 929.554 842.923 929.07 843.354C928.612 843.785 928.033 844 927.334 844H913.808C913.109 844 912.516 843.771 912.032 843.314C911.574 842.829 911.346 842.237 911.346 841.537V818.201C911.346 817.501 911.574 816.923 912.032 816.465C912.516 815.981 913.109 815.738 913.808 815.738ZM950.813 841.537C950.813 842.237 950.557 842.829 950.046 843.314C949.534 843.771 948.942 844 948.269 844C947.515 844 946.91 843.771 946.452 843.314C945.995 842.829 945.766 842.237 945.766 841.537V818.201C945.766 817.501 946.008 816.923 946.493 816.465C946.977 815.981 947.596 815.738 948.35 815.738C948.996 815.738 949.561 815.981 950.046 816.465C950.557 816.923 950.813 817.501 950.813 818.201V841.537ZM965.969 844.404C964.084 844.404 962.389 844.175 960.881 843.717C959.374 843.233 957.934 842.399 956.561 841.214C956.212 840.918 955.942 840.582 955.754 840.205C955.566 839.828 955.471 839.451 955.471 839.074C955.471 838.455 955.687 837.917 956.117 837.459C956.575 836.975 957.14 836.733 957.813 836.733C958.324 836.733 958.782 836.894 959.186 837.217C960.209 838.052 961.218 838.684 962.214 839.115C963.237 839.545 964.488 839.761 965.969 839.761C966.964 839.761 967.88 839.613 968.714 839.317C969.548 838.994 970.221 838.576 970.733 838.065C971.244 837.527 971.5 836.921 971.5 836.248C971.5 835.441 971.258 834.754 970.773 834.189C970.289 833.624 969.548 833.153 968.553 832.776C967.557 832.372 966.292 832.063 964.757 831.847C963.304 831.632 962.025 831.309 960.922 830.879C959.818 830.421 958.89 829.856 958.136 829.183C957.409 828.483 956.858 827.676 956.481 826.76C956.104 825.818 955.916 824.769 955.916 823.611C955.916 821.862 956.36 820.368 957.248 819.13C958.163 817.892 959.388 816.95 960.922 816.304C962.456 815.658 964.152 815.335 966.009 815.335C967.759 815.335 969.373 815.604 970.854 816.142C972.361 816.653 973.586 817.313 974.528 818.12C975.308 818.739 975.699 819.453 975.699 820.26C975.699 820.852 975.47 821.391 975.012 821.875C974.555 822.36 974.016 822.602 973.397 822.602C972.994 822.602 972.63 822.481 972.307 822.239C971.877 821.862 971.298 821.512 970.571 821.189C969.844 820.839 969.077 820.556 968.27 820.341C967.462 820.099 966.709 819.978 966.009 819.978C964.852 819.978 963.869 820.126 963.062 820.422C962.281 820.718 961.689 821.121 961.285 821.633C960.881 822.144 960.68 822.736 960.68 823.409C960.68 824.217 960.908 824.89 961.366 825.428C961.85 825.939 962.537 826.357 963.425 826.68C964.313 826.976 965.376 827.245 966.615 827.487C968.23 827.783 969.643 828.133 970.854 828.537C972.092 828.941 973.115 829.465 973.922 830.111C974.73 830.73 975.335 831.524 975.739 832.493C976.143 833.436 976.345 834.593 976.345 835.966C976.345 837.715 975.86 839.222 974.891 840.487C973.922 841.753 972.644 842.721 971.056 843.394C969.495 844.067 967.799 844.404 965.969 844.404ZM1001.86 844C1001.11 844 1000.49 843.771 1000 843.314C999.517 842.829 999.275 842.237 999.275 841.537V818.12H1004.52V841.537C1004.52 842.237 1004.27 842.829 1003.76 843.314C1003.27 843.771 1002.64 844 1001.86 844ZM992.936 820.381C992.237 820.381 991.644 820.166 991.16 819.735C990.702 819.305 990.474 818.739 990.474 818.04C990.474 817.34 990.702 816.788 991.16 816.384C991.644 815.954 992.237 815.738 992.936 815.738H1010.86C1011.56 815.738 1012.14 815.954 1012.6 816.384C1013.08 816.815 1013.33 817.38 1013.33 818.08C1013.33 818.78 1013.08 819.345 1012.6 819.776C1012.14 820.179 1011.56 820.381 1010.86 820.381H992.936ZM1025.93 822.077L1017.21 842.587C1017.02 843.098 1016.72 843.502 1016.32 843.798C1015.94 844.067 1015.53 844.202 1015.07 844.202C1014.34 844.202 1013.8 844 1013.45 843.596C1013.1 843.193 1012.93 842.695 1012.93 842.102C1012.93 841.86 1012.97 841.604 1013.05 841.335L1023.1 817.192C1023.32 816.653 1023.64 816.236 1024.07 815.94C1024.53 815.644 1025.01 815.523 1025.53 815.577C1026.01 815.577 1026.45 815.725 1026.86 816.021C1027.29 816.29 1027.6 816.68 1027.79 817.192L1037.72 840.851C1037.85 841.201 1037.92 841.524 1037.92 841.82C1037.92 842.547 1037.68 843.125 1037.19 843.556C1036.74 843.987 1036.22 844.202 1035.66 844.202C1035.17 844.202 1034.73 844.054 1034.33 843.758C1033.95 843.462 1033.65 843.058 1033.44 842.547L1024.76 822.319L1025.93 822.077ZM1018.46 837.661L1020.68 833.018H1031.58L1032.35 837.661H1018.46ZM1060.8 844C1060.04 844 1059.44 843.69 1058.98 843.071L1049.66 830.798L1053.33 827.043L1062.98 839.801C1063.36 840.313 1063.54 840.864 1063.54 841.456C1063.54 842.21 1063.26 842.829 1062.7 843.314C1062.13 843.771 1061.5 844 1060.8 844ZM1061.28 815.536C1061.93 815.536 1062.45 815.806 1062.86 816.344C1063.29 816.855 1063.5 817.38 1063.5 817.919C1063.5 818.484 1063.26 819.009 1062.78 819.493L1045.86 835.683L1045.66 829.91L1059.3 816.465C1059.92 815.846 1060.58 815.536 1061.28 815.536ZM1043.84 844C1043.09 844 1042.48 843.771 1042.02 843.314C1041.57 842.829 1041.34 842.237 1041.34 841.537V818.201C1041.34 817.501 1041.58 816.923 1042.07 816.465C1042.55 815.981 1043.17 815.738 1043.92 815.738C1044.68 815.738 1045.27 815.981 1045.7 816.465C1046.16 816.923 1046.39 817.501 1046.39 818.201V841.537C1046.39 842.237 1046.16 842.829 1045.7 843.314C1045.24 843.771 1044.62 844 1043.84 844ZM1072.84 841.537C1072.84 842.237 1072.59 842.829 1072.07 843.314C1071.56 843.771 1070.97 844 1070.3 844C1069.54 844 1068.94 843.771 1068.48 843.314C1068.02 842.829 1067.79 842.237 1067.79 841.537V818.201C1067.79 817.501 1068.04 816.923 1068.52 816.465C1069.01 815.981 1069.62 815.738 1070.38 815.738C1071.02 815.738 1071.59 815.981 1072.07 816.465C1072.59 816.923 1072.84 817.501 1072.84 818.201V841.537ZM1100.35 815.738C1101 815.738 1101.52 815.954 1101.93 816.384C1102.33 816.815 1102.53 817.353 1102.53 817.999V841.537C1102.53 842.237 1102.29 842.829 1101.8 843.314C1101.35 843.771 1100.77 844 1100.07 844C1099.72 844 1099.36 843.946 1098.98 843.839C1098.63 843.704 1098.36 843.529 1098.17 843.314L1082.3 823.167L1083.35 822.521V841.739C1083.35 842.385 1083.14 842.923 1082.71 843.354C1082.3 843.785 1081.77 844 1081.09 844C1080.45 844 1079.92 843.785 1079.52 843.354C1079.11 842.923 1078.91 842.385 1078.91 841.739V818.201C1078.91 817.501 1079.14 816.923 1079.6 816.465C1080.08 815.981 1080.68 815.738 1081.38 815.738C1081.75 815.738 1082.14 815.819 1082.55 815.981C1082.95 816.115 1083.25 816.33 1083.43 816.627L1098.82 836.248L1098.13 836.733V817.999C1098.13 817.353 1098.33 816.815 1098.74 816.384C1099.14 815.954 1099.68 815.738 1100.35 815.738ZM1121.93 844.404C1119.88 844.404 1117.97 844.027 1116.19 843.273C1114.42 842.52 1112.85 841.483 1111.51 840.164C1110.16 838.819 1109.1 837.271 1108.32 835.521C1107.57 833.772 1107.19 831.888 1107.19 829.869C1107.19 827.85 1107.57 825.966 1108.32 824.217C1109.1 822.467 1110.16 820.933 1111.51 819.614C1112.85 818.268 1114.42 817.219 1116.19 816.465C1117.97 815.711 1119.88 815.335 1121.93 815.335C1123.19 815.335 1124.41 815.469 1125.6 815.738C1126.78 816.007 1127.87 816.411 1128.87 816.95C1129.27 817.165 1129.57 817.461 1129.76 817.838C1129.97 818.188 1130.08 818.551 1130.08 818.928C1130.08 819.574 1129.87 820.153 1129.43 820.664C1129 821.175 1128.45 821.431 1127.78 821.431C1127.56 821.431 1127.34 821.404 1127.09 821.35C1126.88 821.296 1126.66 821.216 1126.45 821.108C1125.77 820.812 1125.06 820.583 1124.31 820.422C1123.55 820.26 1122.76 820.179 1121.93 820.179C1120.18 820.179 1118.57 820.624 1117.12 821.512C1115.69 822.373 1114.55 823.544 1113.69 825.024C1112.85 826.478 1112.44 828.093 1112.44 829.869C1112.44 831.619 1112.85 833.234 1113.69 834.714C1114.55 836.194 1115.69 837.379 1117.12 838.267C1118.57 839.128 1120.18 839.559 1121.93 839.559C1122.73 839.559 1123.62 839.478 1124.59 839.317C1125.56 839.155 1126.35 838.94 1126.97 838.671L1126.61 839.882V832.978L1127.29 833.584H1122.81C1122.11 833.584 1121.52 833.355 1121.04 832.897C1120.58 832.44 1120.35 831.861 1120.35 831.161C1120.35 830.461 1120.58 829.883 1121.04 829.425C1121.52 828.967 1122.11 828.739 1122.81 828.739H1129.43C1130.13 828.739 1130.71 828.981 1131.17 829.465C1131.63 829.923 1131.86 830.502 1131.86 831.201V839.761C1131.86 840.299 1131.72 840.743 1131.45 841.093C1131.21 841.443 1130.93 841.726 1130.61 841.941C1129.37 842.695 1128.01 843.3 1126.53 843.758C1125.07 844.188 1123.54 844.404 1121.93 844.404ZM1158.41 822.077L1149.68 842.587C1149.5 843.098 1149.2 843.502 1148.8 843.798C1148.42 844.067 1148 844.202 1147.54 844.202C1146.82 844.202 1146.28 844 1145.93 843.596C1145.58 843.193 1145.41 842.695 1145.41 842.102C1145.41 841.86 1145.45 841.604 1145.53 841.335L1155.58 817.192C1155.79 816.653 1156.12 816.236 1156.55 815.94C1157.01 815.644 1157.49 815.523 1158 815.577C1158.49 815.577 1158.93 815.725 1159.33 816.021C1159.76 816.29 1160.07 816.68 1160.26 817.192L1170.19 840.851C1170.33 841.201 1170.4 841.524 1170.4 841.82C1170.4 842.547 1170.15 843.125 1169.67 843.556C1169.21 843.987 1168.7 844.202 1168.14 844.202C1167.65 844.202 1167.21 844.054 1166.8 843.758C1166.43 843.462 1166.13 843.058 1165.91 842.547L1157.23 822.319L1158.41 822.077ZM1150.94 837.661L1153.16 833.018H1164.06L1164.82 837.661H1150.94ZM1197.77 815.738C1200.35 815.738 1202.28 816.344 1203.54 817.555C1204.81 818.766 1205.44 820.556 1205.44 822.925C1205.44 824.19 1205.13 825.307 1204.51 826.276C1203.89 827.218 1202.98 827.958 1201.76 828.496C1200.55 829.008 1199.06 829.264 1197.28 829.264L1197.44 827.447C1198.28 827.447 1199.23 827.568 1200.31 827.81C1201.39 828.025 1202.42 828.429 1203.42 829.021C1204.44 829.587 1205.28 830.394 1205.92 831.444C1206.6 832.467 1206.93 833.785 1206.93 835.4C1206.93 837.177 1206.64 838.63 1206.04 839.761C1205.48 840.891 1204.73 841.766 1203.78 842.385C1202.84 843.004 1201.83 843.435 1200.76 843.677C1199.68 843.892 1198.64 844 1197.65 844H1187.59C1186.89 844 1186.3 843.771 1185.82 843.314C1185.36 842.829 1185.13 842.237 1185.13 841.537V818.201C1185.13 817.501 1185.36 816.923 1185.82 816.465C1186.3 815.981 1186.89 815.738 1187.59 815.738H1197.77ZM1197.04 820.502H1189.85L1190.38 819.856V827.164L1189.89 826.801H1197.16C1197.94 826.801 1198.64 826.545 1199.26 826.034C1199.88 825.522 1200.19 824.782 1200.19 823.813C1200.19 822.656 1199.89 821.821 1199.3 821.31C1198.74 820.772 1197.98 820.502 1197.04 820.502ZM1197.36 831.565H1190.02L1190.38 831.242V839.761L1189.98 839.357H1197.65C1198.88 839.357 1199.87 839.034 1200.59 838.388C1201.32 837.715 1201.68 836.719 1201.68 835.4C1201.68 834.189 1201.44 833.314 1200.96 832.776C1200.47 832.238 1199.89 831.901 1199.22 831.767C1198.55 831.632 1197.93 831.565 1197.36 831.565ZM1214.49 844C1213.74 844 1213.07 843.771 1212.47 843.314C1211.88 842.829 1211.59 842.237 1211.59 841.537V818.201C1211.59 817.501 1211.82 816.923 1212.27 816.465C1212.76 815.981 1213.35 815.738 1214.05 815.738H1225.68C1227.08 815.738 1228.38 816.115 1229.59 816.869C1230.83 817.596 1231.83 818.618 1232.58 819.937C1233.33 821.229 1233.71 822.723 1233.71 824.419C1233.71 825.441 1233.5 826.437 1233.07 827.406C1232.66 828.375 1232.1 829.25 1231.37 830.031C1230.67 830.811 1229.88 831.417 1228.99 831.847L1229.03 830.919C1229.78 831.323 1230.4 831.807 1230.89 832.372C1231.4 832.911 1231.79 833.503 1232.06 834.149C1232.35 834.768 1232.53 835.441 1232.58 836.167C1232.69 836.84 1232.76 837.433 1232.78 837.944C1232.84 838.455 1232.92 838.886 1233.03 839.236C1233.16 839.586 1233.4 839.855 1233.75 840.043C1234.34 840.393 1234.71 840.905 1234.84 841.578C1235 842.224 1234.86 842.802 1234.4 843.314C1234.1 843.664 1233.72 843.892 1233.27 844C1232.81 844.081 1232.35 844.081 1231.89 844C1231.44 843.892 1231.06 843.758 1230.76 843.596C1230.31 843.327 1229.85 842.937 1229.39 842.425C1228.93 841.887 1228.56 841.174 1228.26 840.286C1227.99 839.397 1227.86 838.253 1227.86 836.854C1227.86 836.396 1227.78 835.979 1227.61 835.602C1227.45 835.199 1227.22 834.862 1226.93 834.593C1226.63 834.297 1226.26 834.081 1225.8 833.947C1225.34 833.785 1224.8 833.705 1224.18 833.705H1216.03L1216.63 832.776V841.537C1216.63 842.237 1216.44 842.829 1216.07 843.314C1215.69 843.771 1215.17 844 1214.49 844ZM1216.07 829.546H1225.48C1225.96 829.546 1226.43 829.331 1226.89 828.9C1227.35 828.443 1227.72 827.837 1228.02 827.083C1228.31 826.303 1228.46 825.455 1228.46 824.54C1228.46 823.356 1228.14 822.373 1227.49 821.593C1226.87 820.785 1226.2 820.381 1225.48 820.381H1216.15L1216.63 819.089V830.515L1216.07 829.546ZM1241.77 815.738H1255.29C1255.99 815.738 1256.57 815.967 1257.03 816.425C1257.51 816.855 1257.76 817.421 1257.76 818.12C1257.76 818.793 1257.51 819.345 1257.03 819.776C1256.57 820.179 1255.99 820.381 1255.29 820.381H1243.99L1244.35 819.695V827.568L1244.03 827.245H1253.48C1254.18 827.245 1254.75 827.474 1255.21 827.931C1255.7 828.362 1255.94 828.927 1255.94 829.627C1255.94 830.3 1255.7 830.852 1255.21 831.282C1254.75 831.686 1254.18 831.888 1253.48 831.888H1244.15L1244.35 831.565V839.72L1244.03 839.357H1255.29C1255.99 839.357 1256.57 839.599 1257.03 840.084C1257.51 840.541 1257.76 841.08 1257.76 841.699C1257.76 842.372 1257.51 842.923 1257.03 843.354C1256.57 843.785 1255.99 844 1255.29 844H1241.77C1241.07 844 1240.48 843.771 1239.99 843.314C1239.53 842.829 1239.3 842.237 1239.3 841.537V818.201C1239.3 817.501 1239.53 816.923 1239.99 816.465C1240.48 815.981 1241.07 815.738 1241.77 815.738ZM1272.78 822.077L1264.06 842.587C1263.88 843.098 1263.58 843.502 1263.18 843.798C1262.8 844.067 1262.38 844.202 1261.92 844.202C1261.2 844.202 1260.66 844 1260.31 843.596C1259.96 843.193 1259.78 842.695 1259.78 842.102C1259.78 841.86 1259.82 841.604 1259.91 841.335L1269.96 817.192C1270.17 816.653 1270.5 816.236 1270.93 815.94C1271.39 815.644 1271.87 815.523 1272.38 815.577C1272.87 815.577 1273.31 815.725 1273.71 816.021C1274.14 816.29 1274.45 816.68 1274.64 817.192L1284.57 840.851C1284.71 841.201 1284.78 841.524 1284.78 841.82C1284.78 842.547 1284.53 843.125 1284.05 843.556C1283.59 843.987 1283.08 844.202 1282.51 844.202C1282.03 844.202 1281.59 844.054 1281.18 843.758C1280.81 843.462 1280.51 843.058 1280.29 842.547L1271.61 822.319L1272.78 822.077ZM1265.32 837.661L1267.54 833.018H1278.44L1279.2 837.661H1265.32ZM1307.65 844C1306.9 844 1306.3 843.69 1305.84 843.071L1296.51 830.798L1300.19 827.043L1309.83 839.801C1310.21 840.313 1310.4 840.864 1310.4 841.456C1310.4 842.21 1310.12 842.829 1309.55 843.314C1308.99 843.771 1308.35 844 1307.65 844ZM1308.14 815.536C1308.79 815.536 1309.31 815.806 1309.71 816.344C1310.14 816.855 1310.36 817.38 1310.36 817.919C1310.36 818.484 1310.12 819.009 1309.63 819.493L1292.72 835.683L1292.51 829.91L1306.16 816.465C1306.78 815.846 1307.44 815.536 1308.14 815.536ZM1290.7 844C1289.94 844 1289.34 843.771 1288.88 843.314C1288.42 842.829 1288.19 842.237 1288.19 841.537V818.201C1288.19 817.501 1288.44 816.923 1288.92 816.465C1289.41 815.981 1290.02 815.738 1290.78 815.738C1291.53 815.738 1292.12 815.981 1292.55 816.465C1293.01 816.923 1293.24 817.501 1293.24 818.201V841.537C1293.24 842.237 1293.01 842.829 1292.55 843.314C1292.1 843.771 1291.48 844 1290.7 844ZM1316.39 843.96C1315.61 843.96 1315 843.758 1314.57 843.354C1314.17 842.923 1313.96 842.318 1313.96 841.537V840.851C1313.96 840.07 1314.17 839.478 1314.57 839.074C1315 838.644 1315.61 838.428 1316.39 838.428H1316.91C1317.69 838.428 1318.28 838.644 1318.69 839.074C1319.12 839.478 1319.33 840.07 1319.33 840.851V841.537C1319.33 842.318 1319.12 842.923 1318.69 843.354C1318.28 843.758 1317.69 843.96 1316.91 843.96H1316.39ZM776.76 891.537C776.76 892.237 776.504 892.829 775.993 893.314C775.481 893.771 774.889 894 774.216 894C773.462 894 772.857 893.771 772.399 893.314C771.942 892.829 771.713 892.237 771.713 891.537V868.201C771.713 867.501 771.955 866.923 772.44 866.465C772.924 865.981 773.543 865.738 774.297 865.738C774.943 865.738 775.508 865.981 775.993 866.465C776.504 866.923 776.76 867.501 776.76 868.201V891.537ZM788.565 869.816C788.565 870.704 788.309 871.606 787.797 872.521C787.313 873.409 786.667 874.163 785.86 874.782C785.079 875.374 784.245 875.67 783.356 875.67C783.06 875.67 782.737 875.549 782.387 875.307C782.064 875.065 781.903 874.647 781.903 874.055C781.903 873.436 782.091 873.073 782.468 872.965C782.872 872.831 783.208 872.696 783.477 872.561C783.827 872.373 784.097 872.158 784.285 871.916C784.5 871.646 784.608 871.323 784.608 870.947C784.608 870.65 784.46 870.395 784.164 870.179C783.895 869.937 783.531 869.816 783.074 869.816C782.912 869.816 782.724 869.843 782.508 869.897C782.293 869.924 782.105 869.991 781.943 870.099C781.674 869.964 781.432 869.803 781.217 869.614C781.028 869.399 780.934 869.062 780.934 868.605C780.934 867.77 781.311 867.057 782.064 866.465C782.845 865.846 783.747 865.536 784.769 865.536C785.927 865.536 786.842 865.927 787.515 866.707C788.215 867.488 788.565 868.524 788.565 869.816ZM796.494 865.698C796.87 865.698 797.261 865.806 797.664 866.021C798.095 866.209 798.418 866.465 798.633 866.788L808.444 881.888L806.426 881.807L816.479 866.788C816.99 866.061 817.649 865.698 818.457 865.698C819.103 865.698 819.682 865.927 820.193 866.384C820.704 866.842 820.96 867.434 820.96 868.161V891.537C820.96 892.237 820.731 892.829 820.274 893.314C819.816 893.771 819.211 894 818.457 894C817.703 894 817.084 893.771 816.6 893.314C816.142 892.829 815.913 892.237 815.913 891.537V872.521L817.488 872.884L809.252 885.441C809.009 885.737 808.7 885.993 808.323 886.208C807.973 886.423 807.61 886.517 807.233 886.49C806.883 886.517 806.52 886.423 806.143 886.208C805.793 885.993 805.497 885.737 805.255 885.441L797.543 873.248L798.593 871.108V891.537C798.593 892.237 798.378 892.829 797.947 893.314C797.516 893.771 796.951 894 796.251 894C795.578 894 795.027 893.771 794.596 893.314C794.165 892.829 793.95 892.237 793.95 891.537V868.161C793.95 867.488 794.192 866.909 794.677 866.425C795.188 865.94 795.794 865.698 796.494 865.698ZM870.12 865.617C870.739 865.617 871.331 865.859 871.896 866.344C872.461 866.801 872.744 867.434 872.744 868.241C872.744 868.484 872.704 868.753 872.623 869.049L864.669 892.466C864.508 892.95 864.212 893.327 863.781 893.596C863.377 893.839 862.947 893.973 862.489 894C862.031 894 861.574 893.865 861.116 893.596C860.686 893.327 860.349 892.937 860.107 892.425L854.132 878.86L854.495 879.102L848.6 892.425C848.358 892.937 848.008 893.327 847.551 893.596C847.12 893.865 846.676 894 846.218 894C845.788 893.973 845.357 893.839 844.926 893.596C844.496 893.327 844.2 892.95 844.038 892.466L836.085 869.049C836.004 868.753 835.963 868.484 835.963 868.241C835.963 867.434 836.246 866.801 836.811 866.344C837.403 865.859 838.009 865.617 838.628 865.617C839.14 865.617 839.611 865.752 840.041 866.021C840.499 866.29 840.808 866.68 840.97 867.192L847.389 886.652L846.501 886.612L852.234 872.844C852.449 872.36 852.759 871.983 853.163 871.714C853.566 871.418 854.024 871.283 854.535 871.31C855.047 871.283 855.504 871.418 855.908 871.714C856.312 871.983 856.608 872.36 856.796 872.844L862.045 886.006L861.399 886.41L867.738 867.192C867.899 866.68 868.209 866.29 868.666 866.021C869.124 865.752 869.608 865.617 870.12 865.617ZM902.236 879.869C902.236 881.888 901.9 883.772 901.227 885.521C900.554 887.271 899.598 888.819 898.36 890.164C897.149 891.483 895.696 892.52 894 893.273C892.331 894.027 890.501 894.404 888.509 894.404C886.517 894.404 884.687 894.027 883.018 893.273C881.349 892.52 879.896 891.483 878.658 890.164C877.447 888.819 876.505 887.271 875.832 885.521C875.159 883.772 874.822 881.888 874.822 879.869C874.822 877.85 875.159 875.966 875.832 874.217C876.505 872.467 877.447 870.933 878.658 869.614C879.896 868.268 881.349 867.219 883.018 866.465C884.687 865.711 886.517 865.335 888.509 865.335C890.501 865.335 892.331 865.711 894 866.465C895.696 867.219 897.149 868.268 898.36 869.614C899.598 870.933 900.554 872.467 901.227 874.217C901.9 875.966 902.236 877.85 902.236 879.869ZM896.988 879.869C896.988 878.066 896.624 876.437 895.897 874.984C895.171 873.504 894.175 872.333 892.91 871.471C891.645 870.61 890.178 870.179 888.509 870.179C886.84 870.179 885.373 870.61 884.108 871.471C882.843 872.333 881.847 873.49 881.121 874.944C880.421 876.397 880.071 878.039 880.071 879.869C880.071 881.673 880.421 883.314 881.121 884.795C881.847 886.248 882.843 887.406 884.108 888.267C885.373 889.128 886.84 889.559 888.509 889.559C890.178 889.559 891.645 889.128 892.91 888.267C894.175 887.406 895.171 886.248 895.897 884.795C896.624 883.314 896.988 881.673 896.988 879.869ZM909.778 894C909.024 894 908.351 893.771 907.759 893.314C907.167 892.829 906.871 892.237 906.871 891.537V868.201C906.871 867.501 907.099 866.923 907.557 866.465C908.041 865.981 908.634 865.738 909.333 865.738H920.961C922.361 865.738 923.666 866.115 924.877 866.869C926.115 867.596 927.111 868.618 927.865 869.937C928.619 871.229 928.995 872.723 928.995 874.419C928.995 875.441 928.78 876.437 928.35 877.406C927.946 878.375 927.381 879.25 926.654 880.031C925.954 880.811 925.16 881.417 924.272 881.847L924.312 880.919C925.066 881.323 925.685 881.807 926.169 882.372C926.681 882.911 927.071 883.503 927.34 884.149C927.636 884.768 927.811 885.441 927.865 886.167C927.973 886.84 928.04 887.433 928.067 887.944C928.121 888.455 928.201 888.886 928.309 889.236C928.444 889.586 928.686 889.855 929.036 890.043C929.628 890.393 929.991 890.905 930.126 891.578C930.287 892.224 930.139 892.802 929.682 893.314C929.386 893.664 929.009 893.892 928.551 894C928.094 894.081 927.636 894.081 927.179 894C926.721 893.892 926.344 893.758 926.048 893.596C925.591 893.327 925.133 892.937 924.675 892.425C924.218 891.887 923.841 891.174 923.545 890.286C923.276 889.397 923.141 888.253 923.141 886.854C923.141 886.396 923.061 885.979 922.899 885.602C922.738 885.199 922.509 884.862 922.213 884.593C921.917 884.297 921.54 884.081 921.082 883.947C920.625 883.785 920.086 883.705 919.467 883.705H911.312L911.917 882.776V891.537C911.917 892.237 911.729 892.829 911.352 893.314C910.975 893.771 910.45 894 909.778 894ZM911.352 879.546H920.759C921.244 879.546 921.715 879.331 922.172 878.9C922.63 878.443 923.007 877.837 923.303 877.083C923.599 876.303 923.747 875.455 923.747 874.54C923.747 873.356 923.424 872.373 922.778 871.593C922.159 870.785 921.486 870.381 920.759 870.381H911.433L911.917 869.089V880.515L911.352 879.546ZM954.048 894C953.295 894 952.689 893.69 952.232 893.071L942.905 880.798L946.579 877.043L956.229 889.801C956.605 890.313 956.794 890.864 956.794 891.456C956.794 892.21 956.511 892.829 955.946 893.314C955.381 893.771 954.748 894 954.048 894ZM954.533 865.536C955.179 865.536 955.704 865.806 956.107 866.344C956.538 866.855 956.753 867.38 956.753 867.919C956.753 868.484 956.511 869.009 956.027 869.493L939.11 885.683L938.908 879.91L952.555 866.465C953.174 865.846 953.833 865.536 954.533 865.536ZM937.091 894C936.338 894 935.732 893.771 935.275 893.314C934.817 892.829 934.588 892.237 934.588 891.537V868.201C934.588 867.501 934.83 866.923 935.315 866.465C935.799 865.981 936.418 865.738 937.172 865.738C937.926 865.738 938.518 865.981 938.949 866.465C939.406 866.923 939.635 867.501 939.635 868.201V891.537C939.635 892.237 939.406 892.829 938.949 893.314C938.491 893.771 937.872 894 937.091 894ZM966.091 891.537C966.091 892.237 965.835 892.829 965.324 893.314C964.812 893.771 964.22 894 963.547 894C962.794 894 962.188 893.771 961.73 893.314C961.273 892.829 961.044 892.237 961.044 891.537V868.201C961.044 867.501 961.286 866.923 961.771 866.465C962.255 865.981 962.874 865.738 963.628 865.738C964.274 865.738 964.839 865.981 965.324 866.465C965.835 866.923 966.091 867.501 966.091 868.201V891.537ZM993.601 865.738C994.247 865.738 994.772 865.954 995.176 866.384C995.58 866.815 995.781 867.353 995.781 867.999V891.537C995.781 892.237 995.539 892.829 995.055 893.314C994.597 893.771 994.018 894 993.319 894C992.969 894 992.605 893.946 992.228 893.839C991.879 893.704 991.609 893.529 991.421 893.314L975.554 873.167L976.604 872.521V891.739C976.604 892.385 976.388 892.923 975.958 893.354C975.554 893.785 975.016 894 974.343 894C973.697 894 973.172 893.785 972.768 893.354C972.365 892.923 972.163 892.385 972.163 891.739V868.201C972.163 867.501 972.391 866.923 972.849 866.465C973.334 865.981 973.926 865.738 974.625 865.738C975.002 865.738 975.393 865.819 975.796 865.981C976.2 866.115 976.496 866.33 976.685 866.627L992.067 886.248L991.381 886.733V867.999C991.381 867.353 991.582 866.815 991.986 866.384C992.39 865.954 992.928 865.738 993.601 865.738ZM1015.18 894.404C1013.13 894.404 1011.22 894.027 1009.44 893.273C1007.67 892.52 1006.1 891.483 1004.76 890.164C1003.41 888.819 1002.35 887.271 1001.57 885.521C1000.82 883.772 1000.44 881.888 1000.44 879.869C1000.44 877.85 1000.82 875.966 1001.57 874.217C1002.35 872.467 1003.41 870.933 1004.76 869.614C1006.1 868.268 1007.67 867.219 1009.44 866.465C1011.22 865.711 1013.13 865.335 1015.18 865.335C1016.44 865.335 1017.66 865.469 1018.85 865.738C1020.03 866.007 1021.12 866.411 1022.12 866.95C1022.52 867.165 1022.82 867.461 1023.01 867.838C1023.22 868.188 1023.33 868.551 1023.33 868.928C1023.33 869.574 1023.12 870.153 1022.68 870.664C1022.25 871.175 1021.7 871.431 1021.03 871.431C1020.81 871.431 1020.59 871.404 1020.34 871.35C1020.13 871.296 1019.91 871.216 1019.7 871.108C1019.02 870.812 1018.31 870.583 1017.56 870.422C1016.8 870.26 1016.01 870.179 1015.18 870.179C1013.43 870.179 1011.82 870.624 1010.37 871.512C1008.94 872.373 1007.8 873.544 1006.94 875.024C1006.1 876.478 1005.69 878.093 1005.69 879.869C1005.69 881.619 1006.1 883.234 1006.94 884.714C1007.8 886.194 1008.94 887.379 1010.37 888.267C1011.82 889.128 1013.43 889.559 1015.18 889.559C1015.98 889.559 1016.87 889.478 1017.84 889.317C1018.81 889.155 1019.6 888.94 1020.22 888.671L1019.86 889.882V882.978L1020.54 883.584H1016.06C1015.36 883.584 1014.77 883.355 1014.29 882.897C1013.83 882.44 1013.6 881.861 1013.6 881.161C1013.6 880.461 1013.83 879.883 1014.29 879.425C1014.77 878.967 1015.36 878.739 1016.06 878.739H1022.68C1023.38 878.739 1023.96 878.981 1024.42 879.465C1024.88 879.923 1025.11 880.502 1025.11 881.201V889.761C1025.11 890.299 1024.97 890.743 1024.7 891.093C1024.46 891.443 1024.18 891.726 1023.86 891.941C1022.62 892.695 1021.26 893.3 1019.78 893.758C1018.32 894.188 1016.79 894.404 1015.18 894.404ZM1067.28 879.869C1067.28 881.888 1066.94 883.772 1066.27 885.521C1065.6 887.271 1064.64 888.819 1063.4 890.164C1062.19 891.483 1060.74 892.52 1059.04 893.273C1057.37 894.027 1055.54 894.404 1053.55 894.404C1051.56 894.404 1049.73 894.027 1048.06 893.273C1046.39 892.52 1044.94 891.483 1043.7 890.164C1042.49 888.819 1041.55 887.271 1040.88 885.521C1040.2 883.772 1039.87 881.888 1039.87 879.869C1039.87 877.85 1040.2 875.966 1040.88 874.217C1041.55 872.467 1042.49 870.933 1043.7 869.614C1044.94 868.268 1046.39 867.219 1048.06 866.465C1049.73 865.711 1051.56 865.335 1053.55 865.335C1055.54 865.335 1057.37 865.711 1059.04 866.465C1060.74 867.219 1062.19 868.268 1063.4 869.614C1064.64 870.933 1065.6 872.467 1066.27 874.217C1066.94 875.966 1067.28 877.85 1067.28 879.869ZM1062.03 879.869C1062.03 878.066 1061.67 876.437 1060.94 874.984C1060.21 873.504 1059.22 872.333 1057.95 871.471C1056.69 870.61 1055.22 870.179 1053.55 870.179C1051.88 870.179 1050.42 870.61 1049.15 871.471C1047.89 872.333 1046.89 873.49 1046.16 874.944C1045.46 876.397 1045.11 878.039 1045.11 879.869C1045.11 881.673 1045.46 883.314 1046.16 884.795C1046.89 886.248 1047.89 887.406 1049.15 888.267C1050.42 889.128 1051.88 889.559 1053.55 889.559C1055.22 889.559 1056.69 889.128 1057.95 888.267C1059.22 887.406 1060.21 886.248 1060.94 884.795C1061.67 883.314 1062.03 881.673 1062.03 879.869ZM1093.35 865.738C1094 865.738 1094.52 865.954 1094.93 866.384C1095.33 866.815 1095.53 867.353 1095.53 867.999V891.537C1095.53 892.237 1095.29 892.829 1094.81 893.314C1094.35 893.771 1093.77 894 1093.07 894C1092.72 894 1092.36 893.946 1091.98 893.839C1091.63 893.704 1091.36 893.529 1091.17 893.314L1075.31 873.167L1076.36 872.521V891.739C1076.36 892.385 1076.14 892.923 1075.71 893.354C1075.31 893.785 1074.77 894 1074.09 894C1073.45 894 1072.92 893.785 1072.52 893.354C1072.12 892.923 1071.91 892.385 1071.91 891.739V868.201C1071.91 867.501 1072.14 866.923 1072.6 866.465C1073.09 865.981 1073.68 865.738 1074.38 865.738C1074.75 865.738 1075.14 865.819 1075.55 865.981C1075.95 866.115 1076.25 866.33 1076.44 866.627L1091.82 886.248L1091.13 886.733V867.999C1091.13 867.353 1091.33 866.815 1091.74 866.384C1092.14 865.954 1092.68 865.738 1093.35 865.738ZM1117.97 891.537C1117.97 892.237 1117.71 892.829 1117.2 893.314C1116.69 893.771 1116.1 894 1115.42 894C1114.67 894 1114.06 893.771 1113.61 893.314C1113.15 892.829 1112.92 892.237 1112.92 891.537V868.201C1112.92 867.501 1113.16 866.923 1113.65 866.465C1114.13 865.981 1114.75 865.738 1115.5 865.738C1116.15 865.738 1116.71 865.981 1117.2 866.465C1117.71 866.923 1117.97 867.501 1117.97 868.201V891.537ZM1133.61 894C1132.85 894 1132.23 893.771 1131.75 893.314C1131.26 892.829 1131.02 892.237 1131.02 891.537V868.12H1136.27V891.537C1136.27 892.237 1136.02 892.829 1135.5 893.314C1135.02 893.771 1134.39 894 1133.61 894ZM1124.68 870.381C1123.98 870.381 1123.39 870.166 1122.91 869.735C1122.45 869.305 1122.22 868.739 1122.22 868.04C1122.22 867.34 1122.45 866.788 1122.91 866.384C1123.39 865.954 1123.98 865.738 1124.68 865.738H1142.61C1143.31 865.738 1143.89 865.954 1144.35 866.384C1144.83 866.815 1145.07 867.38 1145.07 868.08C1145.07 868.78 1144.83 869.345 1144.35 869.776C1143.89 870.179 1143.31 870.381 1142.61 870.381H1124.68ZM1147.03 893.96C1146.24 893.96 1145.64 893.758 1145.21 893.354C1144.8 892.923 1144.6 892.318 1144.6 891.537V890.851C1144.6 890.07 1144.8 889.478 1145.21 889.074C1145.64 888.644 1146.24 888.428 1147.03 888.428H1147.55C1148.33 888.428 1148.92 888.644 1149.33 889.074C1149.76 889.478 1149.97 890.07 1149.97 890.851V891.537C1149.97 892.318 1149.76 892.923 1149.33 893.354C1148.92 893.758 1148.33 893.96 1147.55 893.96H1147.03Z" fill="white"/>
</g>
<defs>
<linearGradient id="paint0_linear_413_364" x1="-74" y1="-55.5" x2="1860.5" y2="994" gradientUnits="userSpaceOnUse">
<stop stop-color="#686DFE"/>
<stop offset="1" stop-color="#989AFD"/>
</linearGradient>
<clipPath id="clip0_413_364">
<rect width="1920" height="1046" fill="white"/>
</clipPath>
</defs>
</svg>
