<svg width="500" height="358" viewBox="0 0 500 358" fill="none" xmlns="http://www.w3.org/2000/svg">
<path d="M135.601 52.1606C81.9648 94.0284 49.9713 270.273 150.542 271.524C203.48 272.183 297.638 306.974 359.716 339.27C420.078 370.673 406.663 199.19 344.775 119.907C282.888 40.6238 189.237 10.2927 135.601 52.1606Z" fill="#CECEFC"/>
<path d="M386.328 356.698C381.774 356.698 376.773 355.31 371.412 352.52L371.873 351.633C384.312 358.105 394.309 356.951 401.58 348.209C414.863 332.24 417.67 292.152 408.903 243.589C399.698 192.596 379.495 143.31 354.858 111.749C287.247 25.133 184.629 -8.16778 126.103 37.5197L125.487 36.7307C184.447 -9.29472 287.696 24.0832 355.647 111.134C380.378 142.817 400.655 192.266 409.888 243.411C418.705 292.257 415.816 332.658 402.35 348.848C398.003 354.072 392.588 356.698 386.328 356.698Z" fill="#CECEFC"/>
<path d="M249.633 0.248047H239.751C236.78 0.248047 234.372 2.65631 234.372 5.62704V15.509C234.372 18.4798 236.78 20.888 239.751 20.888H249.633C252.604 20.888 255.012 18.4798 255.012 15.509V5.62704C255.012 2.65631 252.604 0.248047 249.633 0.248047Z" fill="#5858DC"/>
<path d="M188.641 356.699H180.282L214.162 204.412L231.23 209.007L188.641 356.699Z" fill="#5858DC"/>
<path d="M301.763 356.699H310.122L276.242 204.412L259.175 209.007L301.763 356.699Z" fill="#5858DC"/>
<path d="M374.665 12.4316H115.645C113.699 12.4316 112.121 14.0094 112.121 15.9556V221.806C112.121 223.752 113.699 225.33 115.645 225.33H374.665C376.611 225.33 378.189 223.752 378.189 221.806V15.9556C378.189 14.0094 376.611 12.4316 374.665 12.4316Z" fill="#CBCBFF"/>
<path d="M290.525 216.293H199.784C198.249 216.293 197.005 217.537 197.005 219.072V226.66C197.005 228.195 198.249 229.439 199.784 229.439H290.525C292.06 229.439 293.304 228.195 293.304 226.66V219.072C293.304 217.537 292.06 216.293 290.525 216.293Z" fill="#5858DC"/>
<path d="M500 355.698H0V357.698H500V355.698Z" fill="#506E93"/>
<path d="M46.1449 333.125L44.9639 344.908L65.4259 354.905H34.0049V333.125H46.1449Z" fill="#7A7AF9"/>
<path d="M79.8656 333.125L78.6856 344.908L99.1466 354.905H67.7266V333.125H79.8656Z" fill="#7A7AF9"/>
<path d="M47.7907 339.171H33.9506C33.58 339.171 33.2131 339.098 32.8708 338.957C32.5284 338.815 32.2174 338.607 31.9554 338.345C31.6934 338.083 31.4855 337.772 31.3437 337.43C31.2019 337.087 31.1289 336.72 31.1289 336.35V287.135C31.1289 277.518 32.2106 267.932 34.3534 258.557C34.7375 256.876 34.8905 255.151 34.8084 253.429C34.2052 240.756 31.9517 185.179 38.27 175.07L78.6857 172.086L50.5722 336.824C50.4602 337.481 50.1195 338.077 49.6104 338.506C49.1014 338.936 48.4568 339.171 47.7907 339.171Z" fill="#5656C6"/>
<path d="M91.8456 169.991C91.8456 169.991 93.9703 204.388 93.9703 212.475V260.194C93.9703 262.159 93.8738 264.12 93.6808 266.078L86.6042 337.836C86.5354 338.533 86.2099 339.18 85.6909 339.65C85.1719 340.121 84.4965 340.381 83.7961 340.381H67.4883C67.1005 340.381 66.7169 340.301 66.3614 340.146C66.0059 339.991 65.6861 339.765 65.422 339.481C65.1579 339.197 64.9552 338.862 64.8265 338.496C64.6978 338.13 64.6459 337.742 64.6741 337.355L69.0804 276.771C69.4853 271.204 69.1109 265.608 67.968 260.145L50.1719 175.07L91.8456 169.991Z" fill="#5656C6"/>
<path d="M123.165 115.697C123.165 115.697 123.313 111.816 129.283 105.67C135.252 99.524 140.605 95.3236 137.497 100.502L135.063 104.409C135.063 104.409 141.485 101.919 145.181 100.1C146.154 99.6021 147.261 99.4297 148.339 99.6082C149.417 99.7867 150.409 100.307 151.17 101.092C152.562 102.594 152.52 104.236 148.679 107.149C145.136 109.969 141.219 112.284 137.04 114.028C136.44 114.258 135.933 114.682 135.6 115.231L131.306 118.725L123.165 115.697Z" fill="#7A7AF9"/>
<path d="M131.306 106.223C131.821 105.74 132.408 105.339 133.046 105.035C133.361 104.88 133.686 104.747 134.02 104.639C134.357 104.522 134.707 104.445 135.062 104.409C134.506 104.835 133.908 105.202 133.278 105.506C132.651 105.823 131.989 106.064 131.306 106.223ZM140.177 105.034C141.634 104.117 143.122 103.29 144.589 102.428C146.064 101.575 147.521 100.721 148.931 99.7383C148.356 100.383 147.712 100.963 147.012 101.467C146.32 101.981 145.6 102.453 144.853 102.882C144.107 103.309 143.348 103.713 142.566 104.068C141.79 104.437 140.992 104.76 140.177 105.034ZM141.771 107.012C143.434 106.128 145.101 105.297 146.714 104.374C147.528 103.925 148.313 103.433 149.079 102.916C149.86 102.412 150.564 101.797 151.169 101.092C150.715 101.931 150.085 102.663 149.323 103.238C148.589 103.838 147.803 104.371 146.974 104.83C146.152 105.295 145.304 105.71 144.434 106.074C143.569 106.446 142.679 106.759 141.771 107.012ZM143.695 108.496L147.81 106.265C148.491 105.893 149.153 105.492 149.824 105.1C150.489 104.698 151.132 104.266 151.793 103.832C150.723 104.999 149.462 105.977 148.065 106.723C147.376 107.105 146.665 107.447 145.935 107.747C145.209 108.054 144.46 108.304 143.695 108.496Z" fill="#5E5EDD"/>
<path d="M76.5928 95.9844C76.5928 95.9844 79.827 97.4302 82.3336 98.7153C85.8082 100.497 91.2039 106.757 97.5182 122.392L101.714 132.782C101.714 132.782 114.31 118.078 125.207 108.753L135.962 117.48L111.069 146.155C109.458 148.458 107.32 150.341 104.832 151.648C99.1482 154.552 93.3444 153.595 90.1582 147.688C85.1743 138.448 79.2491 124.38 78.6823 120.46L76.5928 95.9844Z" fill="#5555FF"/>
<path d="M101.675 132.967C102.137 133.655 102.493 134.408 102.731 135.203C102.988 135.996 103.141 136.82 103.186 137.653C103.243 138.503 103.142 139.356 102.889 140.17C102.645 140.992 102.144 141.715 101.46 142.232C101.799 141.525 102.025 140.77 102.129 139.993C102.222 139.233 102.242 138.467 102.188 137.704C102.124 136.156 101.847 134.61 101.675 132.967Z" fill="#2A2AE6"/>
<path d="M53.3324 181.737C53.3324 181.737 53.3323 198.744 34.5664 194.294L35.6041 178.984L53.3324 181.737Z" fill="#2B61A3"/>
<path d="M102.301 355.976V355.904C102.301 355.353 102.148 354.813 101.859 354.344C101.57 353.875 101.156 353.495 100.664 353.247L79.426 342.544C79.2182 342.439 78.9803 342.411 78.7537 342.464C78.5272 342.517 78.3265 342.648 78.1867 342.834L74.0353 348.359C73.888 348.555 73.6733 348.689 73.4326 348.736C73.192 348.783 72.9424 348.74 72.7321 348.613L67.8595 345.69C67.709 345.6 67.5373 345.551 67.3618 345.549C67.1863 345.546 67.0133 345.591 66.8606 345.677C66.7078 345.764 66.5808 345.889 66.4924 346.041C66.404 346.192 66.3574 346.365 66.3574 346.54V355.976C66.3574 356.106 66.3831 356.235 66.4329 356.356C66.4828 356.476 66.5558 356.585 66.6479 356.678C66.74 356.77 66.8493 356.843 66.9697 356.893C67.09 356.942 67.219 356.968 67.3492 356.968H101.309C101.439 356.968 101.568 356.942 101.688 356.893C101.809 356.843 101.918 356.77 102.01 356.678C102.102 356.585 102.175 356.476 102.225 356.356C102.275 356.235 102.301 356.106 102.301 355.976Z" fill="#11335D"/>
<path d="M68.58 355.976V355.904C68.58 355.353 68.427 354.813 68.1381 354.344C67.8491 353.875 67.4356 353.495 66.9436 353.247L45.7053 342.544C45.4975 342.439 45.2596 342.411 45.033 342.464C44.8065 342.517 44.6057 342.648 44.466 342.834L40.3146 348.359C40.1673 348.555 39.9526 348.689 39.7119 348.736C39.4712 348.783 39.2217 348.74 39.0114 348.613L34.1388 345.69C33.9883 345.6 33.8165 345.551 33.641 345.549C33.4655 345.546 33.2926 345.591 33.1399 345.677C32.9871 345.764 32.8601 345.889 32.7717 346.041C32.6833 346.192 32.6367 346.365 32.6367 346.54V355.976C32.6367 356.106 32.6624 356.235 32.7122 356.356C32.7621 356.476 32.8351 356.585 32.9272 356.678C33.0193 356.77 33.1286 356.843 33.249 356.893C33.3693 356.942 33.4983 356.968 33.6285 356.968H67.5882C67.7184 356.968 67.8474 356.942 67.9677 356.893C68.088 356.843 68.1974 356.77 68.2895 356.678C68.3816 356.585 68.4546 356.476 68.5045 356.356C68.5543 356.235 68.58 356.106 68.58 355.976Z" fill="#11335D"/>
<path d="M63.7429 55.8698C66.6117 55.433 69.5432 55.6842 72.2958 56.6029C73.586 57.0603 78.3047 58.7333 80.6046 63.2009C81.4781 64.8976 81.6755 66.9386 82.0708 71.0208C82.3176 73.5705 83.2996 75.3968 83.2981 78.5066C83.247 81.0263 82.8337 83.5255 82.0708 85.9274C80.9272 89.6869 81.6636 91.8227 81.0933 92.5254C78.7951 95.3576 73.867 92.7396 73.7622 96.4353C73.6975 98.7173 75.1475 100.162 73.2428 102.209C70.8807 104.747 61.9081 103.786 58.611 102.056C58.1616 101.82 51.5678 98.2722 52.013 94.236C52.2509 92.0799 54.269 91.8568 55.6787 88.6155C56.5813 86.3683 56.8352 83.913 56.4118 81.5287C55.7762 76.8106 53.3987 76.2352 51.5243 70.532C51.0158 69.1001 50.8835 67.5616 51.1402 66.064C51.397 64.5663 52.0341 63.1597 52.9905 61.979C55.7474 58.7447 59.5532 56.5823 63.7429 55.8698Z" fill="#7A7AF9"/>
<path d="M82.0889 75.8097C82.618 75.8097 83.0469 75.2765 83.0469 74.6187C83.0469 73.961 82.618 73.4277 82.0889 73.4277C81.5598 73.4277 81.1309 73.961 81.1309 74.6187C81.1309 75.2765 81.5598 75.8097 82.0889 75.8097Z" fill="#07080A"/>
<path d="M72.0479 76.213C72.5769 76.213 73.0058 75.6798 73.0058 75.022C73.0058 74.3643 72.5769 73.8311 72.0479 73.8311C71.5188 73.8311 71.0898 74.3643 71.0898 75.022C71.0898 75.6798 71.5188 76.213 72.0479 76.213Z" fill="#07080A"/>
<path d="M74.1172 70.465C74.2446 70.4691 74.3676 70.5135 74.4683 70.5917C74.5691 70.6699 74.6425 70.778 74.6781 70.9005C74.7138 71.023 74.7097 71.1536 74.6666 71.2736C74.6235 71.3937 74.5436 71.497 74.4382 71.5689C73.3922 72.3017 72.1515 72.7059 70.8746 72.73C69.5977 72.7541 68.3426 72.3968 67.2698 71.704C67.1402 71.6102 67.053 71.4689 67.0273 71.3109C67.0017 71.153 67.0397 70.9914 67.133 70.8614C67.2263 70.7314 67.3674 70.6438 67.5252 70.6176C67.683 70.5913 67.8448 70.6288 67.9751 70.7216C68.8418 71.2823 69.8578 71.5679 70.8897 71.5408C71.9216 71.5137 72.9212 71.1752 73.7572 70.5698C73.863 70.4974 73.9891 70.4607 74.1172 70.465ZM84.0662 70.2982C84.1937 70.3023 84.3166 70.3467 84.4174 70.4249C84.5181 70.5031 84.5916 70.6112 84.6272 70.7337C84.6628 70.8562 84.6588 70.9868 84.6157 71.1068C84.5726 71.2269 84.4926 71.3302 84.3872 71.4021C83.3413 72.1349 82.1007 72.5392 80.8239 72.5633C79.547 72.5875 78.292 72.2303 77.2192 71.5376C77.0892 71.4439 77.0018 71.3025 76.976 71.1445C76.9502 70.9864 76.9882 70.8245 77.0816 70.6944C77.175 70.5643 77.3162 70.4766 77.4743 70.4505C77.6323 70.4244 77.7942 70.462 77.9245 70.5552C78.7911 71.1162 79.8071 71.4018 80.839 71.3746C81.8709 71.3475 82.8704 71.0088 83.7063 70.403C83.812 70.3305 83.9381 70.2938 84.0662 70.2982Z" fill="#07080A"/>
<path d="M75.4388 179.783C76.3202 179.783 77.0348 179.068 77.0348 178.187C77.0348 177.305 76.3202 176.591 75.4388 176.591C74.5573 176.591 73.8428 177.305 73.8428 178.187C73.8428 179.068 74.5573 179.783 75.4388 179.783Z" fill="#11335D"/>
<path d="M77.7096 73.1357C77.6147 74.1274 77.7957 75.126 78.2326 76.0213C78.6269 76.9297 79.1317 77.7859 79.7357 78.5706L80.2194 79.1469C80.4216 79.3666 80.5324 79.6552 80.5294 79.9538C80.5022 80.2302 80.4153 80.4975 80.2748 80.7371C80.1344 80.9767 79.9436 81.183 79.7157 81.3418C79.2789 81.6245 78.784 81.8053 78.2677 81.8707C77.7515 81.9362 77.2272 81.8845 76.7336 81.7197C77.2158 81.8051 77.71 81.7944 78.188 81.6884C78.666 81.5824 79.1183 81.3831 79.5192 81.102C79.8779 80.8184 80.1093 80.404 80.1625 79.9498C80.1938 79.5448 79.7365 79.2365 79.4232 78.8245C78.8096 78.0047 78.3137 77.103 77.9501 76.1458C77.5442 75.1954 77.4598 74.1385 77.7096 73.1357ZM60.0122 73.5389C59.6865 73.6461 59.3775 73.7987 59.0945 73.9922C58.8158 74.1761 58.5589 74.3909 58.3285 74.6325C57.8514 75.1274 57.4104 75.6559 57.0088 76.2138C57.0903 75.8641 57.22 75.5275 57.3942 75.2135C57.575 74.8987 57.7939 74.6073 58.0458 74.3458C58.2948 74.0759 58.5999 73.8638 58.9396 73.7244C59.2793 73.585 59.6454 73.5217 60.0122 73.5389Z" fill="#5E5EDD"/>
<path d="M59.2341 78.506C59.3378 77.7716 59.3296 77.0256 59.2098 76.2936C59.1602 75.9326 59.0708 75.5781 58.9434 75.2366C58.8333 74.884 58.6633 74.5547 58.5107 74.1963C59.0892 74.7346 59.4738 75.4489 59.6046 76.2283C59.7354 77.0076 59.6052 77.8083 59.2341 78.506Z" fill="#5E5EDD"/>
<path d="M92.2853 151.9C91.9115 148.343 91.7602 144.799 91.605 141.255C91.4698 137.708 91.3427 134.178 91.2666 130.604C92.06 134.089 92.5079 137.643 92.6036 141.215C92.7656 144.779 92.6592 148.351 92.2853 151.9Z" fill="#2A2AE6"/>
<path d="M72.7451 85.9297C72.7451 85.9297 76.5181 89.4487 79.8921 85.9297H72.7451Z" fill="#07080A"/>
<path d="M68.9561 74.8759C69.6679 74.2096 70.5709 73.7833 71.5377 73.6572C72.0225 73.5936 72.5144 73.6094 72.9942 73.7038C73.4687 73.7965 73.9219 73.9764 74.3308 74.2344C73.8777 74.1242 73.4166 74.0495 72.9518 74.011C72.4983 73.9676 72.0411 73.9828 71.5915 74.0562C70.6745 74.1851 69.7844 74.462 68.9561 74.8759ZM78.8242 74.4728C79.536 73.8064 80.439 73.3802 81.4058 73.2541C81.8906 73.1905 82.3826 73.2062 82.8623 73.3007C83.3368 73.3934 83.7901 73.5733 84.199 73.8313C83.7458 73.7211 83.2848 73.6464 82.82 73.6079C82.3665 73.5645 81.9093 73.5797 81.4597 73.6531C80.5426 73.782 79.6526 74.0588 78.8242 74.4728Z" fill="#011936"/>
<path d="M92.3687 174.818C88.6257 177.73 83.9987 179.248 79.4375 180.381C74.8264 181.445 70.1233 182.061 65.3937 182.221C63.0332 182.373 60.6714 182.249 58.3115 182.254C55.9547 182.161 53.5977 182.032 51.2486 181.84C48.9071 181.559 46.5626 181.319 44.2294 181.004C41.9081 180.595 39.5842 180.221 37.2734 179.783C39.6197 179.997 41.9526 180.274 44.2882 180.517C46.6263 180.732 48.9692 180.886 51.3063 181.073C53.6505 181.142 55.9899 181.299 58.3316 181.344C60.6729 181.31 63.0176 181.4 65.3519 181.223C70.0289 181.102 74.6863 180.571 79.2702 179.634C81.5632 179.179 83.8229 178.57 86.0336 177.811C88.2671 177.094 90.3969 176.088 92.3687 174.818Z" fill="#11335D"/>
<path d="M77.1981 180.469C76.4345 186.197 75.5627 191.908 74.6745 197.615C73.7887 203.323 72.8142 209.016 71.8884 214.717C70.8827 220.405 69.9197 226.1 68.8741 231.78L67.2861 240.298C66.7207 243.132 66.1892 245.97 65.5939 248.798C65.9656 245.932 66.4012 243.077 66.8028 240.216L68.1158 231.652C69.0042 225.944 69.9752 220.251 70.9036 214.55C71.9119 208.863 72.8714 203.167 73.9196 197.487C74.9655 191.806 76.0278 186.128 77.1981 180.469ZM85.2731 173.398C85.6227 174.426 85.7917 175.506 85.7728 176.591C85.7939 177.676 85.6248 178.756 85.2731 179.783C84.9214 178.756 84.7523 177.676 84.7734 176.591C84.7544 175.506 84.9235 174.426 85.2731 173.398ZM60.8784 176.001C61.0864 177.229 61.1076 178.482 60.9415 179.716C60.8167 180.956 60.5033 182.169 60.0121 183.314C59.802 182.086 59.7807 180.833 59.949 179.599C60.076 178.36 60.3893 177.147 60.8784 176.001Z" fill="#11335D"/>
<path d="M73.499 181.06C73.4038 183.396 73.1819 185.725 72.834 188.037C72.4973 190.343 72.0861 192.638 71.5796 194.917L71.4407 194.57C72.4395 195.416 73.4141 196.294 74.3541 197.218C73.207 196.569 72.0944 195.873 71.0061 195.146L70.8412 195.036L70.867 194.799C71.1191 192.478 71.4665 190.173 71.8882 187.881C72.3013 185.58 72.839 183.302 73.499 181.06ZM37.2734 217.9C37.6871 219.534 38.1678 221.135 38.6542 222.724C39.1401 224.306 39.7058 225.863 40.3491 227.389C40.9743 228.91 41.7296 230.374 42.6066 231.764C43.5023 233.159 44.5913 234.419 45.8412 235.507C44.3268 234.705 43.0059 233.582 41.9707 232.217C40.9363 230.852 40.0819 229.36 39.4285 227.778C38.7718 226.21 38.2612 224.585 37.9031 222.924C37.5259 221.274 37.315 219.591 37.2734 217.9ZM37.2734 229.509C38.5584 231.577 39.8033 233.594 41.1943 235.513C41.8712 236.486 42.6224 237.396 43.3786 238.308C44.1464 239.215 44.9819 240.051 45.8412 240.925C43.6522 239.79 41.7774 238.132 40.3836 236.098C39.6726 235.102 39.0469 234.047 38.5133 232.946C37.9696 231.852 37.5536 230.698 37.2734 229.509ZM73.7906 275.801C74.2042 277.435 74.6849 279.036 75.1713 280.624C75.6572 282.207 76.2229 283.764 76.8662 285.29C77.4914 286.81 78.2467 288.274 79.1237 289.665C80.0194 291.06 81.1084 292.32 82.3583 293.408C80.844 292.606 79.523 291.483 78.4877 290.118C77.4534 288.753 76.599 287.261 75.9456 285.679C75.289 284.111 74.7783 282.486 74.4202 280.825C74.043 279.175 73.8321 277.492 73.7906 275.801ZM73.7906 287.41C75.0756 289.478 76.3204 291.495 77.7114 293.414C78.3883 294.387 79.1395 295.297 79.8957 296.209C80.6635 297.116 81.499 297.952 82.3583 298.826C80.1693 297.691 78.2945 296.033 76.9008 293.999C76.1897 293.003 75.5641 291.948 75.0305 290.847C74.4867 289.753 74.0707 288.599 73.7906 287.41ZM56.6797 194.858C57.2992 196.786 57.58 198.806 57.5095 200.83C57.5356 202.959 56.7608 205.02 55.3385 206.605C54.5486 207.358 53.5621 207.873 52.4926 208.09C51.464 208.288 50.4092 208.31 49.3733 208.154C47.3731 207.827 45.4446 207.157 43.673 206.172C45.5507 206.78 47.4884 207.185 49.4527 207.378C51.3558 207.494 53.3526 207.197 54.6431 205.887C55.8959 204.464 56.6326 202.661 56.7346 200.768C56.9315 198.802 56.9131 196.82 56.6797 194.858Z" fill="#11335D"/>
<path d="M72.2348 96.7447C72.2348 96.7447 69.9617 108.25 53.8332 91.3887L38.2713 101.017C34.7487 103.257 31.9234 106.439 30.1152 110.201C23.9644 123.218 20.365 137.292 19.5117 151.663C19.5117 151.663 17.3123 166.146 38.817 194.705C38.817 194.705 50.0581 196.872 52.7462 184.898L45.8415 175.367C45.8415 175.367 82.3152 178.788 91.8457 169.991C91.8457 169.991 96.8347 107.64 75.7171 95.2134L72.2348 96.7447Z" fill="#5555FF"/>
<path d="M45.1701 123.071C44.988 125.814 44.775 128.553 44.5312 131.289C44.274 134.023 44.0508 136.761 43.7655 139.492L42.905 147.685C42.6326 150.417 42.2709 153.14 41.9583 155.868L41.96 155.785C42.0777 157.437 42.2618 159.104 42.4796 160.756C42.6798 162.413 42.9161 164.066 43.2135 165.709C43.7611 169.009 44.6414 172.244 45.841 175.367C44.3557 172.341 43.2632 169.138 42.5901 165.835C41.848 162.546 41.3332 159.209 41.0491 155.849L41.0459 155.811L41.0508 155.766C41.3491 153.037 41.5985 150.301 41.937 147.576L42.9091 139.396C43.2348 136.67 43.6226 133.95 43.9763 131.227C44.3457 128.505 44.7436 125.787 45.1701 123.071Z" fill="#2A2AE6"/>
<path d="M49.014 125.76C48.4984 127.077 47.8097 128.319 46.9662 129.455C46.1573 130.615 45.1958 131.661 44.1076 132.565C44.6213 131.247 45.3102 130.004 46.1555 128.87C46.9661 127.711 47.9274 126.665 49.014 125.76ZM41.5048 155.817C41.0856 156.18 40.5993 156.457 40.0734 156.632C39.5528 156.817 39.0085 156.927 38.4569 156.958C37.8939 156.982 37.331 156.91 36.7922 156.745C36.2483 156.574 35.764 156.252 35.3955 155.817C35.9587 155.896 36.4463 155.95 36.9387 155.978C37.4335 155.983 37.9177 155.988 38.4105 155.96C39.4016 155.92 40.3902 155.806 41.5048 155.817ZM68.7756 100.382C71.122 106.265 73.1215 112.28 74.7639 118.396C76.4377 124.507 77.7485 130.715 78.8236 136.963C79.8028 143.232 80.3926 149.555 80.5894 155.896C80.7074 162.237 80.2041 168.575 79.0865 174.818C79.3444 171.66 79.8246 168.538 79.8146 165.374C80.0216 162.225 79.874 159.069 79.8205 155.92C79.5081 149.622 78.846 143.346 77.8374 137.122C76.85 130.893 75.5314 124.719 74.0229 118.59C73.2719 115.524 72.4539 112.475 71.5692 109.442C70.7263 106.396 69.771 103.384 68.7756 100.382Z" fill="#2A2AE6"/>
<path d="M75.7165 95.2133C76.261 96.8392 76.7055 98.4969 77.0473 100.177C77.2262 101.022 77.3534 101.877 77.4283 102.737C77.5253 103.617 77.5003 104.507 77.3539 105.38C77.2797 105.87 77.0654 106.328 76.7368 106.698C76.5475 106.895 76.3116 107.04 76.0512 107.12C75.7907 107.201 75.5141 107.215 75.247 107.16C74.3438 106.956 73.5028 106.538 72.795 105.942C71.4427 104.851 70.1846 103.649 69.0338 102.347L69.85 102.05C69.8026 103.347 69.4829 104.619 68.9117 105.783C68.6177 106.41 68.168 106.952 67.6055 107.355C67.0429 107.759 66.3863 108.012 65.6982 108.09C64.384 108.131 63.0843 107.806 61.945 107.149C60.8403 106.566 59.7981 105.872 58.8345 105.077C56.9533 103.494 55.1975 101.767 53.5828 99.913C51.958 98.0815 50.4648 96.1441 49.0137 94.1826C52.1492 97.8936 55.6116 101.315 59.3592 104.407C60.2884 105.152 61.2913 105.8 62.3524 106.341C63.3417 106.899 64.465 107.174 65.5999 107.137C66.1266 107.064 66.6263 106.859 67.0527 106.541C67.4791 106.223 67.8184 105.803 68.039 105.319C68.5554 104.292 68.8537 103.169 68.9152 102.021L68.9966 100.903L69.7315 101.724C70.8267 103 72.0265 104.182 73.3185 105.258C73.9152 105.771 74.6115 106.155 75.3636 106.386C76.0612 106.584 76.5235 106.027 76.7017 105.229C76.9503 103.575 76.9309 101.892 76.6443 100.244C76.426 98.5572 76.0885 96.8822 75.7165 95.2133Z" fill="#2A2AE6"/>
<path d="M72.8149 121.971C73.3788 121.971 73.8359 121.514 73.8359 120.95C73.8359 120.386 73.3788 119.929 72.8149 119.929C72.2511 119.929 71.7939 120.386 71.7939 120.95C71.7939 121.514 72.2511 121.971 72.8149 121.971Z" fill="#11335D"/>
<path d="M69.7515 110.113C70.3154 110.113 70.7725 109.656 70.7725 109.092C70.7725 108.528 70.3154 108.071 69.7515 108.071C69.1876 108.071 68.7305 108.528 68.7305 109.092C68.7305 109.656 69.1876 110.113 69.7515 110.113Z" fill="#11335D"/>
<path d="M75.3599 135.873C75.9237 135.873 76.3809 135.416 76.3809 134.852C76.3809 134.288 75.9237 133.831 75.3599 133.831C74.796 133.831 74.3389 134.288 74.3389 134.852C74.3389 135.416 74.796 135.873 75.3599 135.873Z" fill="#11335D"/>
<path d="M77.4507 150.544C78.0146 150.544 78.4717 150.087 78.4717 149.523C78.4717 148.959 78.0146 148.502 77.4507 148.502C76.8868 148.502 76.4297 148.959 76.4297 149.523C76.4297 150.087 76.8868 150.544 77.4507 150.544Z" fill="#11335D"/>
<path d="M78.0933 166.608C78.6571 166.608 79.1143 166.151 79.1143 165.587C79.1143 165.024 78.6571 164.566 78.0933 164.566C77.5294 164.566 77.0723 165.024 77.0723 165.587C77.0723 166.151 77.5294 166.608 78.0933 166.608Z" fill="#11335D"/>
<path d="M83.2811 86.1895C83.3083 85.7296 83.2218 85.2701 83.0294 84.8515C82.8369 84.4329 82.5443 84.0681 82.1775 83.7894C81.6251 83.3701 80.9274 82.9053 80.2485 82.4903C79.2715 81.8833 78.172 81.5006 77.0293 81.37C75.8866 81.2394 74.7291 81.364 73.6403 81.7348C71.8175 82.3807 70.0404 83.1489 68.3211 84.0341C68.0381 84.176 67.7298 84.2605 67.414 84.2826C67.0982 84.3047 66.7812 84.264 66.4812 84.1629C66.1812 84.0618 65.9042 83.9022 65.6662 83.6935C65.4283 83.4847 65.234 83.2309 65.0946 82.9466C65.0946 82.9466 63.5077 76.0956 63.7982 74.1342C64.2033 71.4011 64.4058 70.0346 64.0785 68.9223C63.5546 67.142 64.4222 66.9102 65.538 64.9969C66.5853 63.2012 69.8299 64.6548 70.6396 64.3555C72.9122 63.5153 72.8281 62.5584 74.3646 62.4629C75.9403 62.3649 77.0967 61.9486 78.1147 62.9653C79.1528 64.003 81.0579 66.7614 81.5277 66.2828C82.5181 64.9639 83.1261 63.3977 83.285 61.756C83.2967 60.1378 82.9137 58.5411 82.1691 57.1044C81.7961 56.2744 80.4071 53.1855 77.5151 52.3608C75.8494 51.8858 75.5298 52.688 71.9266 52.9013C68.1894 53.1226 68.0734 52.2869 66.1162 52.8432C63.9497 53.4591 64.0321 54.4994 60.3297 56.5218C59.1022 57.1707 57.8404 57.7524 56.5498 58.2644C51.9017 60.2326 51.2938 59.9179 50.2248 60.9509C47.9202 63.178 48.2965 67.0072 48.3874 67.9322C48.6435 70.5372 49.6606 71.3199 51.8728 75.4929C55.3756 82.1012 55.9661 86.0632 57.2726 85.919C58.0446 85.8337 59.909 83.8972 59.8936 82.7333C59.8736 81.2076 58.7744 80.7261 57.4797 78.5209C56.5756 76.9797 55.2768 74.767 56.0243 72.7612C56.4767 71.5487 56.9814 71.8804 58.2377 71.9969C59.9427 72.155 60.7815 74.53 61.4652 76.2732C61.9585 77.5347 62.1712 78.8884 62.0886 80.2404C61.908 83.2568 61.9127 88.4422 63.7565 91.0052C67.6233 96.3815 74.3869 96.2562 74.3869 96.2562C81.8601 96.3219 83.0804 89.1298 83.2811 86.1895ZM78.4478 89.3019C77.7244 89.6763 76.9171 89.8594 76.1029 89.8335C75.2887 89.8077 74.4946 89.5738 73.7964 89.1542C73.5041 88.9789 71.6381 87.8123 71.8266 86.1391C72.0144 84.4661 74.0909 83.7528 74.3202 83.6819C75.2855 83.4162 76.3091 83.4524 77.2533 83.7858C78.446 84.0953 80.5353 84.64 80.8136 86.0406C81.0856 87.3867 79.5192 88.7482 78.4478 89.3019Z" fill="#07080A"/>
<path d="M291.522 68.1864C290.117 67.6714 288.84 66.8616 287.774 65.8115C286.709 64.7614 285.881 63.4953 285.346 62.0984C284.811 60.7015 284.581 59.2062 284.672 57.7131C284.763 56.22 285.172 54.7636 285.873 53.4421C286.703 51.9073 287.89 50.5943 289.333 49.6134C290.776 48.6325 292.433 48.0123 294.166 47.8051C295.898 47.5978 297.655 47.8095 299.289 48.4224C300.922 49.0352 302.385 50.0314 303.554 51.327L310.578 32.8262L357.625 50.6897C358.487 51.0152 359.277 51.5077 359.948 52.139C360.619 52.7703 361.16 53.5279 361.538 54.3685C361.915 55.209 362.124 56.1159 362.15 57.0371C362.177 57.9583 362.021 58.8757 361.692 59.7366L343.471 107.727L325.209 100.793C326.503 99.6244 327.511 98.1746 328.157 96.5551C328.669 95.2546 328.92 93.8658 328.896 92.4682C328.871 91.0705 328.572 89.6914 328.014 88.4097C327.456 87.128 326.651 85.9688 325.645 84.9984C324.639 84.028 323.451 83.2654 322.15 82.7542C319.497 81.8252 316.587 81.9675 314.037 83.1507C311.488 84.3339 309.5 86.4648 308.497 89.0904C307.905 90.7302 307.697 92.484 307.89 94.2167L289.628 87.2827L296.648 68.7937C294.915 68.9817 293.163 68.7741 291.522 68.1864Z" fill="#3C3CF7"/>
<path d="M207.654 107.816C207.671 109.312 207.368 110.794 206.764 112.163C206.16 113.531 205.271 114.755 204.155 115.751C203.039 116.747 201.723 117.493 200.294 117.938C198.866 118.383 197.359 118.517 195.875 118.331C194.146 118.099 192.497 117.456 191.068 116.456C189.638 115.455 188.47 114.125 187.662 112.579C186.853 111.033 186.427 109.316 186.42 107.571C186.413 105.826 186.825 104.105 187.622 102.553H167.832V52.2287C167.83 51.3071 168.01 50.3942 168.362 49.5424C168.714 48.6907 169.231 47.9168 169.882 47.2651C170.534 46.6134 171.308 46.0969 172.16 45.745C173.011 45.3932 173.924 45.213 174.846 45.2149H226.179V64.7489C224.627 63.9538 222.914 63.5255 221.171 63.4969C219.773 63.4794 218.386 63.7376 217.088 64.2567C215.79 64.7757 214.607 65.5455 213.607 66.522C212.606 67.4985 211.809 68.6626 211.258 69.9477C210.708 71.2327 210.417 72.6136 210.401 74.0114C210.474 76.8211 211.64 79.4915 213.651 81.455C215.663 83.4185 218.36 84.5202 221.171 84.5259C222.914 84.4974 224.627 84.0691 226.179 83.274V102.808H206.402C207.193 104.361 207.621 106.074 207.654 107.816Z" fill="#5555FF"/>
<path d="M199.52 49.1629C199.421 47.8335 199.224 46.5132 198.93 45.2129H174.85C173.928 45.2106 173.014 45.3906 172.161 45.7426C171.308 46.0946 170.533 46.6116 169.881 47.2639C169.229 47.9162 168.712 48.691 168.36 49.5438C168.008 50.3965 167.828 51.3104 167.83 52.2329V78.4029C171.927 79.0433 176.115 78.7496 180.082 77.5438C184.049 76.338 187.693 74.2513 190.74 71.4396C193.787 68.6279 196.16 65.1638 197.68 61.3064C199.201 57.4489 199.83 53.2977 199.52 49.1629Z" fill="#9B9BFF"/>
<path d="M348.534 179.79C349.753 180.657 350.772 181.775 351.523 183.068C352.274 184.362 352.74 185.802 352.888 187.29C353.036 188.779 352.864 190.282 352.383 191.698C351.901 193.115 351.122 194.411 350.098 195.502C348.893 196.763 347.403 197.718 345.752 198.284C344.102 198.85 342.34 199.011 340.614 198.755C338.888 198.498 337.249 197.831 335.834 196.809C334.42 195.788 333.271 194.442 332.485 192.884L320.834 208.88L280.157 179.252C279.411 178.711 278.779 178.028 278.297 177.242C277.816 176.456 277.495 175.583 277.351 174.673C277.208 173.762 277.246 172.833 277.464 171.937C277.681 171.041 278.072 170.197 278.617 169.454L308.838 127.96L324.628 139.46C323.072 140.246 321.717 141.379 320.668 142.771C319.831 143.891 319.222 145.165 318.878 146.519C318.533 147.874 318.459 149.283 318.66 150.667C318.86 152.05 319.331 153.381 320.046 154.582C320.761 155.783 321.706 156.831 322.826 157.667C325.14 159.262 327.985 159.892 330.757 159.422C333.528 158.953 336.006 157.421 337.666 155.152C338.669 153.726 339.332 152.089 339.602 150.367L355.392 161.867L343.749 177.854C345.47 178.129 347.106 178.791 348.534 179.79Z" fill="#5555FF"/>
<path d="M151.367 202.07C150.322 203.139 149.059 203.973 147.664 204.514C146.27 205.055 144.775 205.291 143.282 205.206C141.788 205.122 140.33 204.718 139.006 204.023C137.681 203.327 136.521 202.357 135.603 201.175C134.544 199.789 133.833 198.169 133.53 196.45C133.227 194.732 133.341 192.966 133.862 191.301C134.384 189.636 135.297 188.12 136.526 186.881C137.755 185.643 139.263 184.717 140.924 184.183L126.931 170.189L162.515 134.605C163.165 133.952 163.938 133.434 164.789 133.08C165.641 132.727 166.553 132.545 167.475 132.545C168.396 132.545 169.309 132.727 170.16 133.08C171.011 133.434 171.784 133.952 172.434 134.605L208.732 170.903L194.919 184.716C194.384 183.056 193.476 181.542 192.263 180.289C191.287 179.288 190.124 178.49 188.839 177.939C187.554 177.388 186.173 177.096 184.776 177.079C183.378 177.063 181.991 177.321 180.693 177.841C179.395 178.361 178.213 179.131 177.213 180.108C175.278 182.147 174.214 184.86 174.248 187.67C174.282 190.481 175.41 193.167 177.394 195.159C178.646 196.371 180.161 197.28 181.82 197.815L168.007 211.627L154.023 197.643C153.484 199.3 152.576 200.814 151.367 202.07Z" fill="#575DFF"/>
<path d="M252.888 168.935C251.714 168.915 250.595 168.437 249.767 167.605C248.939 166.772 248.469 165.65 248.456 164.476C248.458 163.596 248.722 162.737 249.212 162.007C249.703 161.278 250.399 160.71 251.213 160.375C252.026 160.041 252.92 159.956 253.782 160.13C254.644 160.304 255.435 160.73 256.055 161.354C256.675 161.977 257.097 162.771 257.266 163.634C257.435 164.497 257.344 165.391 257.005 166.202C256.666 167.014 256.094 167.706 255.361 168.193C254.628 168.679 253.768 168.937 252.888 168.935ZM252.888 163.245C252.646 163.25 252.411 163.327 252.212 163.465C252.014 163.604 251.86 163.797 251.771 164.023C251.682 164.248 251.661 164.494 251.712 164.731C251.762 164.968 251.881 165.185 252.054 165.354C252.227 165.524 252.447 165.638 252.684 165.684C252.922 165.729 253.168 165.703 253.392 165.609C253.615 165.515 253.805 165.358 253.94 165.156C254.074 164.955 254.145 164.718 254.145 164.476C254.148 164.311 254.117 164.148 254.055 163.995C253.992 163.843 253.899 163.705 253.782 163.59C253.664 163.475 253.524 163.385 253.371 163.326C253.217 163.266 253.053 163.239 252.888 163.245ZM252.368 155.523C251.994 155.523 251.624 155.45 251.279 155.307C250.934 155.164 250.62 154.954 250.356 154.69C250.092 154.426 249.883 154.113 249.74 153.767C249.597 153.422 249.523 153.052 249.523 152.679V139.268C249.523 138.894 249.597 138.524 249.74 138.179C249.883 137.834 250.092 137.52 250.356 137.256C250.62 136.992 250.934 136.782 251.279 136.639C251.624 136.496 251.994 136.423 252.368 136.423C254.461 136.425 256.534 136.014 258.468 135.214C260.402 134.414 262.16 133.241 263.641 131.761C265.121 130.282 266.296 128.525 267.097 126.592C267.899 124.658 268.311 122.585 268.311 120.492C268.311 118.399 267.899 116.326 267.097 114.393C266.296 112.459 265.121 110.703 263.641 109.223C262.16 107.744 260.402 106.57 258.468 105.771C256.534 104.971 254.461 104.56 252.368 104.562C248.16 104.617 244.14 106.313 241.164 109.288C238.188 112.264 236.492 116.284 236.437 120.492C236.371 121.153 236.451 121.82 236.67 122.447C237 123.125 237.048 123.907 236.803 124.62C236.557 125.334 236.038 125.92 235.36 126.251C234.682 126.582 233.9 126.63 233.187 126.384C232.474 126.138 231.887 125.619 231.556 124.941C230.933 123.545 230.656 122.019 230.748 120.492C230.823 114.782 233.125 109.326 237.163 105.288C241.202 101.249 246.657 98.9473 252.368 98.8721C257.856 98.8732 263.138 100.961 267.144 104.712C271.15 108.462 273.58 113.596 273.942 119.072C274.304 124.548 272.57 129.957 269.092 134.202C265.614 138.447 260.653 141.212 255.213 141.935V152.679C255.213 153.052 255.139 153.422 254.996 153.767C254.853 154.113 254.644 154.426 254.379 154.69C254.115 154.954 253.802 155.164 253.457 155.307C253.111 155.45 252.741 155.523 252.368 155.523Z" fill="white"/>
<path d="M65.1798 47.3711C64.663 47.371 64.1579 47.2177 63.7282 46.9305C63.2986 46.6433 62.9638 46.2352 62.7661 45.7578C62.5685 45.2803 62.5168 44.7549 62.6177 44.2481C62.7186 43.7413 62.9676 43.2758 63.3331 42.9105C63.6985 42.5451 64.1641 42.2964 64.671 42.1956C65.1778 42.0949 65.7032 42.1468 66.1806 42.3446C66.6579 42.5424 67.0659 42.8774 67.353 43.3071C67.64 43.7369 67.7931 44.2421 67.793 44.7588C67.7772 45.4468 67.4968 46.1023 67.0101 46.5888C66.5233 47.0754 65.8678 47.3556 65.1798 47.3711ZM65.1798 44.3711C65.0774 44.3716 64.9794 44.4127 64.9072 44.4852C64.835 44.5578 64.7945 44.656 64.7945 44.7583C64.7945 44.8607 64.835 44.9589 64.9072 45.0314C64.9794 45.104 65.0774 45.145 65.1798 45.1455C65.2335 45.1548 65.2886 45.1513 65.3407 45.1355C65.3928 45.1196 65.4405 45.0918 65.48 45.0542C65.5195 45.0166 65.5496 44.9704 65.568 44.9191C65.5864 44.8678 65.5926 44.8129 65.586 44.7588C65.5912 44.705 65.5841 44.6507 65.5652 44.6C65.5463 44.5493 65.5162 44.5036 65.4771 44.4663C65.4379 44.4289 65.3909 44.401 65.3394 44.3845C65.2879 44.368 65.2333 44.3634 65.1798 44.3711ZM64.8214 38.127C64.4236 38.1269 64.0421 37.9688 63.7608 37.6875C63.4795 37.4062 63.3215 37.0248 63.3214 36.627V27.3838C63.3215 26.986 63.4795 26.6046 63.7608 26.3233C64.0421 26.042 64.4236 25.8839 64.8214 25.8838C67.8541 25.881 70.7616 24.6742 72.9051 22.5288C75.0485 20.3833 76.2526 17.4747 76.2526 14.4419C76.2526 11.4092 75.0485 8.50053 72.9051 6.35506C70.7616 4.2096 67.8541 3.00287 64.8214 3.00003C61.7991 3.03985 58.9119 4.2582 56.7747 6.39552C54.6376 8.53283 53.4195 11.4202 53.3799 14.4424C53.3323 14.9683 53.403 15.4982 53.5869 15.9932C53.761 16.3509 53.7858 16.7631 53.656 17.139C53.5261 17.515 53.2522 17.824 52.8946 17.9981C52.5369 18.1721 52.1247 18.197 51.7487 18.0671C51.3727 17.9373 51.0637 17.6634 50.8897 17.3057C50.4941 16.4055 50.3193 15.4238 50.3799 14.4424C50.4299 10.6278 51.9675 6.98343 54.665 4.28574C57.3625 1.58806 61.0067 0.0502799 64.8214 0C68.5217 0.000770008 72.0807 1.42165 74.7642 3.96957C77.4476 6.51748 79.0509 9.99808 79.2433 13.6935C79.4357 17.3888 78.2025 21.0171 75.7982 23.8299C73.3938 26.6427 70.0017 28.4255 66.3214 28.8106V36.627C66.3213 37.0248 66.1632 37.4062 65.8819 37.6875C65.6006 37.9688 65.2192 38.1269 64.8214 38.127ZM199.521 49.1633C199.422 47.8338 199.224 46.5136 198.931 45.2133C197.937 40.7532 195.848 36.6107 192.853 33.1598C189.858 29.7089 186.051 27.0582 181.775 25.447C177.499 23.8357 172.889 23.3146 168.361 23.9307C163.834 24.5468 159.531 26.2807 155.841 28.9759C152.151 31.6711 149.19 35.2427 147.226 39.3685C145.262 43.4942 144.356 48.0441 144.59 52.6075C144.824 57.1709 146.191 61.6042 148.567 65.5072C150.943 69.4102 154.254 72.66 158.201 74.9633L154.131 82.0833C153.371 81.8941 152.571 81.9634 151.855 82.2804C151.14 82.5973 150.551 83.1438 150.181 83.8333L133.601 114.633C133.381 115.04 133.245 115.486 133.199 115.946C133.153 116.406 133.198 116.87 133.331 117.312C133.465 117.755 133.685 118.166 133.978 118.523C134.272 118.88 134.633 119.176 135.04 119.393C135.298 119.538 135.574 119.645 135.861 119.713C136.618 119.899 137.416 119.828 138.129 119.511C138.843 119.195 139.43 118.65 139.8 117.963L156.371 87.1633C156.708 86.5349 156.847 85.8188 156.768 85.1098C156.69 84.4008 156.398 83.7324 155.931 83.1933L160.06 75.9532C161.804 76.8098 163.635 77.4769 165.521 77.9433C166.281 78.1233 167.05 78.2833 167.831 78.4033C171.927 79.0436 176.115 78.7499 180.082 77.5441C184.05 76.3384 187.693 74.2516 190.74 71.4399C193.788 68.6282 196.16 65.1642 197.68 61.3067C199.201 57.4492 199.83 53.298 199.521 49.1633ZM190.261 66.8732C188.211 69.2693 185.706 71.2343 182.891 72.6539C180.075 74.0736 177.006 74.9198 173.861 75.1432C169.121 75.5009 164.382 74.4446 160.243 72.1079C156.104 69.7712 152.751 66.2592 150.609 62.0164C148.466 57.7735 147.631 52.9904 148.208 48.2725C148.785 43.5546 150.748 39.1139 153.85 35.5123C156.952 31.9107 161.052 29.3102 165.632 28.0398C170.212 26.7694 175.066 26.8863 179.58 28.3756C184.094 29.8649 188.064 32.6597 190.989 36.4063C193.914 40.153 195.661 44.683 196.011 49.4232C196.256 52.5678 195.874 55.7297 194.887 58.7253C193.9 61.721 192.327 64.4906 190.261 66.8732Z" fill="#3C3CF7"/>
<path d="M140.062 109.562C140.062 109.562 136.915 108.97 136.91 111.159C136.928 111.678 137.104 112.179 137.415 112.596C137.725 113.012 138.155 113.323 138.648 113.489C141.734 114.616 149.483 117.059 148.462 112.725C148.462 112.725 153.357 111.838 150.856 108.975C150.856 108.975 153.974 107.748 151.963 105.372C151.963 105.372 154.493 104.321 152.061 101.776C149.629 99.2311 139.804 98.9467 142.297 102.136L143.195 102.794C142.82 102.822 142.458 102.947 142.145 103.157C141.832 103.367 141.579 103.654 141.41 103.99C141.241 104.327 141.162 104.701 141.18 105.077C141.198 105.453 141.314 105.818 141.515 106.136C141.515 106.136 138.216 106.732 140.062 109.562Z" fill="#7A7AF9"/>
<path d="M148.462 112.725C146.971 112.503 145.509 112.113 144.104 111.564C142.685 111.052 141.329 110.38 140.062 109.562C141.554 109.783 143.016 110.172 144.42 110.723C145.838 111.237 147.194 111.909 148.462 112.725ZM150.856 108.975C149.226 108.812 147.617 108.48 146.055 107.986C144.481 107.529 142.96 106.91 141.515 106.137C143.145 106.298 144.755 106.63 146.316 107.126C147.889 107.584 149.411 108.204 150.856 108.975ZM151.963 105.372C150.433 105.253 148.92 104.965 147.452 104.514C145.974 104.101 144.546 103.524 143.195 102.794C144.726 102.911 146.239 103.199 147.706 103.652C149.184 104.067 150.612 104.644 151.963 105.372Z" fill="#5E5EDD"/>
<path d="M414.893 68.714V356.699H480V68.714C480 68.3037 479.919 67.8975 479.762 67.5184C479.605 67.1394 479.375 66.795 479.085 66.5049C478.795 66.2148 478.45 65.9847 478.071 65.8277C477.692 65.6706 477.286 65.5898 476.876 65.5898H418.017C417.606 65.5898 417.2 65.6706 416.821 65.8277C416.442 65.9847 416.098 66.2148 415.808 66.5049C415.518 66.795 415.287 67.1394 415.13 67.5184C414.973 67.8975 414.893 68.3037 414.893 68.714Z" fill="#506E93"/>
<path d="M473.283 117.982H421.609C419.884 117.982 418.485 119.381 418.485 121.106V157.878C418.485 159.604 419.884 161.002 421.609 161.002H473.283C475.009 161.002 476.407 159.604 476.407 157.878V121.106C476.407 119.381 475.009 117.982 473.283 117.982Z" fill="#7474E1"/>
<path d="M473.283 70.2764H421.609C419.884 70.2764 418.485 71.675 418.485 73.4004V110.172C418.485 111.898 419.884 113.296 421.609 113.296H473.283C475.009 113.296 476.407 111.898 476.407 110.172V73.4004C476.407 71.675 475.009 70.2764 473.283 70.2764Z" fill="#7474E1"/>
<path d="M472.728 107.836C472.948 107.996 473.125 108.208 473.242 108.454C473.359 108.7 473.412 108.971 473.396 109.243C473.369 109.762 473.151 110.253 472.784 110.62C472.418 110.988 471.927 111.207 471.409 111.235C471.136 111.251 470.864 111.198 470.618 111.08C470.372 110.963 470.159 110.785 470 110.563C470.246 110.214 470.473 109.851 470.68 109.477C470.783 109.27 470.916 109.079 471.073 108.909C471.245 108.753 471.437 108.621 471.644 108.517C472.018 108.31 472.379 108.083 472.728 107.836ZM470 73.0091C470.16 72.7885 470.372 72.6116 470.618 72.4948C470.864 72.378 471.136 72.325 471.407 72.3408C471.926 72.3675 472.417 72.5853 472.784 72.9523C473.152 73.3193 473.371 73.8094 473.399 74.3282C473.415 74.6005 473.362 74.8725 473.245 75.1187C473.127 75.3649 472.949 75.5774 472.728 75.7364C472.378 75.4907 472.015 75.2641 471.641 75.0573C471.434 74.9535 471.243 74.8209 471.073 74.6635C470.918 74.4916 470.786 74.2997 470.681 74.093C470.474 73.7193 470.247 73.3575 470 73.0091ZM422.164 75.7364C421.944 75.5769 421.767 75.3644 421.65 75.1185C421.533 74.8726 421.48 74.6012 421.496 74.3295C421.523 73.8106 421.741 73.32 422.108 72.9523C422.475 72.5845 422.965 72.3656 423.484 72.3378C423.756 72.3217 424.028 72.3748 424.274 72.4922C424.52 72.6096 424.733 72.7874 424.892 73.0091C424.646 73.359 424.419 73.7218 424.213 74.096C424.109 74.3028 423.976 74.4939 423.819 74.6635C423.647 74.8191 423.455 74.9511 423.248 75.056C422.875 75.2625 422.513 75.4896 422.164 75.7364ZM424.892 110.563C424.732 110.784 424.52 110.961 424.274 111.078C424.028 111.195 423.757 111.247 423.485 111.232C422.966 111.205 422.475 110.987 422.108 110.62C421.74 110.253 421.521 109.763 421.493 109.244C421.477 108.972 421.53 108.7 421.647 108.454C421.765 108.208 421.943 107.995 422.164 107.836C422.514 108.082 422.877 108.309 423.251 108.515C423.458 108.619 423.649 108.752 423.819 108.909C423.974 109.081 424.106 109.273 424.211 109.48C424.418 109.853 424.645 110.215 424.892 110.563ZM472.728 155.542C472.948 155.702 473.125 155.914 473.242 156.16C473.359 156.406 473.412 156.677 473.396 156.949C473.369 157.468 473.151 157.958 472.784 158.326C472.418 158.694 471.927 158.913 471.409 158.941C471.136 158.957 470.864 158.904 470.618 158.786C470.372 158.669 470.159 158.491 470 158.269C470.246 157.919 470.473 157.557 470.68 157.182C470.783 156.976 470.916 156.785 471.073 156.615C471.245 156.459 471.437 156.327 471.644 156.222C472.018 156.016 472.379 155.789 472.728 155.542ZM470 120.715C470.16 120.494 470.372 120.317 470.618 120.201C470.864 120.084 471.136 120.031 471.407 120.047C471.926 120.073 472.417 120.291 472.784 120.658C473.152 121.025 473.371 121.515 473.399 122.034C473.415 122.306 473.362 122.578 473.245 122.825C473.127 123.071 472.949 123.283 472.728 123.442C472.378 123.197 472.015 122.97 471.641 122.763C471.434 122.659 471.243 122.527 471.073 122.369C470.918 122.197 470.786 122.006 470.681 121.799C470.474 121.425 470.247 121.063 470 120.715ZM422.164 123.442C421.944 123.283 421.767 123.07 421.65 122.824C421.533 122.578 421.48 122.307 421.496 122.035C421.523 121.516 421.741 121.026 422.108 120.658C422.475 120.29 422.965 120.071 423.484 120.044C423.756 120.028 424.028 120.081 424.274 120.198C424.52 120.315 424.733 120.493 424.892 120.715C424.646 121.065 424.419 121.428 424.213 121.802C424.109 122.009 423.976 122.2 423.819 122.369C423.647 122.525 423.455 122.657 423.248 122.762C422.875 122.968 422.513 123.195 422.164 123.442ZM424.892 158.269C424.732 158.49 424.52 158.667 424.274 158.784C424.028 158.9 423.757 158.953 423.485 158.938C422.966 158.911 422.475 158.693 422.108 158.326C421.74 157.959 421.521 157.469 421.493 156.95C421.477 156.678 421.53 156.406 421.647 156.16C421.765 155.913 421.943 155.701 422.164 155.542C422.514 155.788 422.877 156.014 423.251 156.221C423.458 156.325 423.649 156.457 423.819 156.615C423.974 156.787 424.106 156.979 424.211 157.185C424.418 157.559 424.645 157.921 424.892 158.269Z" fill="#4B4BD6"/>
<path d="M473.283 213.393H421.609C419.884 213.393 418.485 214.791 418.485 216.517V253.289C418.485 255.014 419.884 256.413 421.609 256.413H473.283C475.009 256.413 476.407 255.014 476.407 253.289V216.517C476.407 214.791 475.009 213.393 473.283 213.393Z" fill="#7474E1"/>
<path d="M473.283 261.099H421.609C419.884 261.099 418.485 262.497 418.485 264.223V300.995C418.485 302.72 419.884 304.119 421.609 304.119H473.283C475.009 304.119 476.407 302.72 476.407 300.995V264.223C476.407 262.497 475.009 261.099 473.283 261.099Z" fill="#7474E1"/>
<path d="M455.14 85.9277H439.752C439.084 85.9277 438.542 86.4695 438.542 87.1377V91.2787C438.542 91.947 439.084 92.4887 439.752 92.4887H455.14C455.808 92.4887 456.35 91.947 456.35 91.2787V87.1377C456.35 86.4695 455.808 85.9277 455.14 85.9277Z" fill="#4B4BD6"/>
<path d="M455.14 229.045H439.752C439.084 229.045 438.542 229.587 438.542 230.255V234.396C438.542 235.064 439.084 235.606 439.752 235.606H455.14C455.808 235.606 456.35 235.064 456.35 234.396V230.255C456.35 229.587 455.808 229.045 455.14 229.045Z" fill="#4B4BD6"/>
<path d="M455.14 276.751H439.752C439.084 276.751 438.542 277.293 438.542 277.961V282.102C438.542 282.77 439.084 283.312 439.752 283.312H455.14C455.808 283.312 456.35 282.77 456.35 282.102V277.961C456.35 277.293 455.808 276.751 455.14 276.751Z" fill="#4B4BD6"/>
<path d="M455.14 133.634H439.752C439.084 133.634 438.542 134.176 438.542 134.844V138.985C438.542 139.653 439.084 140.195 439.752 140.195H455.14C455.808 140.195 456.35 139.653 456.35 138.985V134.844C456.35 134.176 455.808 133.634 455.14 133.634Z" fill="#4B4BD6"/>
<path d="M472.728 250.953C472.948 251.113 473.125 251.325 473.242 251.571C473.359 251.817 473.412 252.089 473.396 252.36C473.369 252.879 473.151 253.37 472.784 253.737C472.418 254.105 471.927 254.324 471.409 254.352C471.136 254.368 470.864 254.315 470.618 254.198C470.372 254.08 470.159 253.902 470 253.681C470.246 253.331 470.473 252.968 470.68 252.594C470.783 252.387 470.916 252.196 471.073 252.026C471.245 251.871 471.437 251.739 471.644 251.634C472.018 251.427 472.379 251.2 472.728 250.953ZM470 216.126C470.16 215.906 470.372 215.729 470.618 215.612C470.864 215.495 471.136 215.442 471.407 215.458C471.926 215.485 472.417 215.703 472.785 216.07C473.152 216.436 473.371 216.927 473.399 217.445C473.415 217.718 473.362 217.99 473.245 218.236C473.127 218.482 472.949 218.695 472.728 218.854C472.378 218.608 472.015 218.381 471.641 218.174C471.434 218.071 471.243 217.938 471.073 217.781C470.918 217.609 470.786 217.417 470.681 217.21C470.474 216.837 470.247 216.475 470 216.126ZM422.164 218.854C421.944 218.694 421.767 218.482 421.65 218.236C421.533 217.99 421.48 217.718 421.496 217.447C421.523 216.928 421.741 216.437 422.108 216.069C422.475 215.702 422.965 215.483 423.484 215.455C423.756 215.439 424.028 215.492 424.274 215.609C424.52 215.727 424.733 215.905 424.892 216.126C424.646 216.476 424.419 216.839 424.213 217.213C424.109 217.42 423.976 217.611 423.819 217.781C423.647 217.936 423.455 218.068 423.248 218.173C422.875 218.38 422.513 218.607 422.164 218.854ZM424.892 253.681C424.732 253.901 424.52 254.078 424.274 254.195C424.028 254.312 423.757 254.365 423.485 254.349C422.966 254.322 422.475 254.104 422.108 253.737C421.74 253.37 421.521 252.88 421.493 252.362C421.477 252.089 421.53 251.817 421.647 251.571C421.765 251.325 421.943 251.112 422.164 250.953C422.514 251.199 422.877 251.426 423.251 251.632C423.458 251.736 423.649 251.869 423.819 252.026C423.974 252.198 424.106 252.39 424.211 252.597C424.418 252.97 424.645 253.332 424.892 253.681ZM472.728 298.659C472.948 298.819 473.125 299.031 473.242 299.277C473.359 299.523 473.412 299.794 473.396 300.066C473.369 300.585 473.151 301.076 472.784 301.443C472.418 301.811 471.927 302.03 471.409 302.058C471.136 302.074 470.864 302.021 470.618 301.903C470.372 301.786 470.159 301.608 470 301.387C470.246 301.037 470.473 300.674 470.68 300.3C470.783 300.093 470.916 299.902 471.073 299.732C471.245 299.577 471.437 299.445 471.644 299.34C472.018 299.133 472.379 298.906 472.728 298.659ZM470 263.832C470.16 263.612 470.372 263.435 470.618 263.318C470.864 263.201 471.136 263.148 471.407 263.164C471.926 263.191 472.417 263.408 472.785 263.775C473.152 264.142 473.371 264.632 473.399 265.151C473.415 265.424 473.362 265.695 473.245 265.942C473.127 266.188 472.949 266.4 472.728 266.559C472.378 266.314 472.015 266.087 471.641 265.88C471.434 265.777 471.243 265.644 471.073 265.487C470.918 265.315 470.786 265.123 470.681 264.916C470.474 264.542 470.247 264.181 470 263.832ZM422.164 266.559C421.944 266.4 421.767 266.187 421.65 265.941C421.533 265.696 421.48 265.424 421.496 265.152C421.523 264.634 421.741 264.143 422.108 263.775C422.475 263.408 422.965 263.189 423.484 263.161C423.756 263.145 424.028 263.198 424.274 263.315C424.52 263.433 424.733 263.61 424.892 263.832C424.646 264.182 424.419 264.545 424.213 264.919C424.109 265.126 423.976 265.317 423.819 265.487C423.647 265.642 423.455 265.774 423.248 265.879C422.875 266.086 422.513 266.313 422.164 266.559ZM424.892 301.386C424.732 301.607 424.52 301.784 424.274 301.901C424.028 302.018 423.757 302.071 423.485 302.055C422.966 302.028 422.475 301.81 422.108 301.443C421.74 301.076 421.521 300.586 421.493 300.067C421.477 299.795 421.53 299.523 421.647 299.277C421.765 299.031 421.943 298.818 422.164 298.659C422.514 298.905 422.877 299.132 423.251 299.338C423.458 299.442 423.649 299.575 423.819 299.732C423.974 299.904 424.106 300.096 424.211 300.303C424.418 300.676 424.645 301.038 424.892 301.386Z" fill="#4B4BD6"/>
<path d="M433.782 288.048C433.782 288.048 465.563 288.693 470.391 283.323C470.391 283.323 459.984 320.61 467.84 338.904L432.493 335.172C432.493 335.172 436.627 306.294 433.782 288.048Z" fill="#93C2FF"/>
<path d="M426 292.616C426 292.616 457.781 293.261 462.609 287.891C462.609 287.891 452.202 325.178 460.058 343.472L424.711 339.739C424.711 339.739 428.845 310.861 426 292.616Z" fill="#2B2BF6"/>
<path d="M429.976 296.126C429.976 296.126 461.756 296.771 466.584 291.401C466.584 291.401 456.177 328.688 464.034 346.983L428.687 343.25C428.687 343.25 432.82 314.372 429.976 296.126Z" fill="white"/>
<path d="M433.866 147.166C433.866 147.166 465.647 147.81 470.475 142.44C470.475 142.44 460.068 179.727 467.924 198.022L432.577 194.289C432.577 194.289 436.711 165.411 433.866 147.166Z" fill="#5555FF"/>
<path d="M426.084 151.733C426.084 151.733 457.865 152.378 462.693 147.008C462.693 147.008 452.286 184.295 460.142 202.589L424.795 198.856C424.795 198.856 428.929 169.978 426.084 151.733Z" fill="#2B2BF6"/>
<path d="M430.06 155.244C430.06 155.244 461.84 155.889 466.668 150.519C466.668 150.519 456.261 187.806 464.118 206.1L428.771 202.367C428.771 202.367 432.904 173.489 430.06 155.244Z" fill="white"/>
<path d="M473.283 308.805H421.609C419.884 308.805 418.485 310.203 418.485 311.929V348.701C418.485 350.426 419.884 351.825 421.609 351.825H473.283C475.009 351.825 476.407 350.426 476.407 348.701V311.929C476.407 310.203 475.009 308.805 473.283 308.805Z" fill="#7474E1"/>
<path d="M455.14 324.457H439.752C439.084 324.457 438.542 324.999 438.542 325.667V329.808C438.542 330.476 439.084 331.018 439.752 331.018H455.14C455.808 331.018 456.35 330.476 456.35 329.808V325.667C456.35 324.999 455.808 324.457 455.14 324.457Z" fill="#4B4BD6"/>
<path d="M472.728 346.365C472.948 346.524 473.125 346.737 473.242 346.982C473.359 347.228 473.412 347.5 473.396 347.772C473.369 348.29 473.151 348.781 472.784 349.149C472.418 349.516 471.927 349.735 471.409 349.763C471.136 349.779 470.864 349.726 470.618 349.609C470.372 349.491 470.159 349.314 470 349.092C470.246 348.742 470.473 348.379 470.68 348.005C470.783 347.798 470.916 347.607 471.073 347.437C471.245 347.282 471.437 347.15 471.644 347.045C472.018 346.838 472.379 346.611 472.728 346.365ZM470 311.537C470.16 311.317 470.372 311.14 470.618 311.023C470.864 310.906 471.136 310.853 471.407 310.869C471.926 310.896 472.417 311.114 472.785 311.481C473.152 311.848 473.371 312.338 473.399 312.857C473.415 313.129 473.362 313.401 473.245 313.647C473.127 313.893 472.949 314.106 472.728 314.265C472.378 314.019 472.015 313.792 471.641 313.586C471.434 313.482 471.243 313.349 471.073 313.192C470.918 313.02 470.786 312.828 470.681 312.621C470.474 312.248 470.247 311.886 470 311.537ZM422.164 314.265C421.944 314.105 421.767 313.893 421.65 313.647C421.533 313.401 421.48 313.13 421.496 312.858C421.523 312.339 421.741 311.848 422.108 311.481C422.475 311.113 422.965 310.894 423.484 310.866C423.756 310.85 424.028 310.903 424.274 311.021C424.52 311.138 424.733 311.316 424.892 311.537C424.646 311.887 424.419 312.25 424.213 312.624C424.109 312.831 423.976 313.022 423.819 313.192C423.647 313.347 423.455 313.479 423.248 313.584C422.875 313.791 422.513 314.018 422.164 314.265ZM424.892 349.092C424.732 349.312 424.52 349.489 424.274 349.606C424.028 349.723 423.757 349.776 423.485 349.76C422.966 349.733 422.475 349.516 422.108 349.149C421.74 348.782 421.521 348.291 421.493 347.773C421.477 347.5 421.53 347.228 421.647 346.982C421.765 346.736 421.943 346.523 422.164 346.365C422.514 346.61 422.877 346.837 423.251 347.044C423.458 347.147 423.649 347.28 423.819 347.437C423.974 347.609 424.106 347.801 424.211 348.008C424.418 348.382 424.645 348.743 424.892 349.092Z" fill="#4B4BD6"/>
<path d="M473.283 165.688H421.609C419.884 165.688 418.485 167.086 418.485 168.812V205.584C418.485 207.309 419.884 208.708 421.609 208.708H473.283C475.009 208.708 476.407 207.309 476.407 205.584V168.812C476.407 167.086 475.009 165.688 473.283 165.688Z" fill="#7474E1"/>
<path d="M455.14 181.34H439.752C439.084 181.34 438.542 181.882 438.542 182.55V186.691C438.542 187.359 439.084 187.901 439.752 187.901H455.14C455.808 187.901 456.35 187.359 456.35 186.691V182.55C456.35 181.882 455.808 181.34 455.14 181.34Z" fill="#4B4BD6"/>
<path d="M472.728 203.247C472.948 203.407 473.125 203.619 473.242 203.865C473.359 204.111 473.412 204.382 473.396 204.654C473.369 205.173 473.151 205.664 472.784 206.031C472.418 206.399 471.927 206.618 471.409 206.646C471.136 206.662 470.864 206.609 470.618 206.491C470.372 206.374 470.159 206.196 470 205.975C470.246 205.625 470.473 205.262 470.68 204.888C470.783 204.681 470.916 204.49 471.073 204.32C471.245 204.165 471.437 204.033 471.644 203.928C472.018 203.721 472.379 203.494 472.728 203.247ZM470 168.42C470.16 168.2 470.372 168.023 470.618 167.906C470.864 167.789 471.136 167.736 471.407 167.752C471.926 167.779 472.417 167.996 472.784 168.363C473.152 168.73 473.371 169.221 473.399 169.739C473.415 170.012 473.362 170.284 473.245 170.53C473.127 170.776 472.949 170.989 472.728 171.148C472.378 170.902 472.015 170.675 471.641 170.468C471.434 170.365 471.243 170.232 471.073 170.075C470.918 169.903 470.786 169.711 470.681 169.504C470.474 169.13 470.247 168.769 470 168.42ZM422.164 171.148C421.944 170.988 421.767 170.776 421.65 170.53C421.533 170.284 421.48 170.012 421.496 169.741C421.523 169.222 421.741 168.731 422.108 168.363C422.475 167.996 422.965 167.777 423.484 167.749C423.756 167.733 424.028 167.786 424.274 167.903C424.52 168.021 424.733 168.199 424.892 168.42C424.646 168.77 424.419 169.133 424.213 169.507C424.109 169.714 423.976 169.905 423.819 170.075C423.647 170.23 423.455 170.362 423.248 170.467C422.875 170.674 422.513 170.901 422.164 171.148ZM424.892 205.975C424.732 206.195 424.52 206.372 424.274 206.489C424.028 206.606 423.757 206.659 423.485 206.643C422.966 206.616 422.475 206.398 422.108 206.031C421.74 205.664 421.521 205.174 421.493 204.656C421.477 204.383 421.53 204.111 421.647 203.865C421.765 203.619 421.943 203.406 422.164 203.247C422.514 203.493 422.877 203.72 423.251 203.926C423.458 204.03 423.649 204.163 423.819 204.32C423.974 204.492 424.106 204.684 424.211 204.891C424.418 205.264 424.645 205.626 424.892 205.975Z" fill="#4B4BD6"/>
</svg>