<svg width="99" height="99" viewBox="0 0 99 99" fill="none" xmlns="http://www.w3.org/2000/svg">
<path d="M49.5 99C76.8372 99 99 76.8372 99 49.5C99 22.1628 76.8372 0 49.5 0C22.1628 0 0 22.1628 0 49.5C0 76.8372 22.1628 99 49.5 99ZM27.4758 47.52L53.064 27.3108C54.4962 26.1888 56.8194 26.1888 58.2516 27.3108L58.2384 27.324C58.9446 27.8454 59.4 28.578 59.4 29.403L59.4 69.729C59.4 70.5408 58.971 71.2668 58.2846 71.7882C58.2714 71.7948 58.2648 71.808 58.2516 71.8212C56.8194 72.9432 54.4962 72.9432 53.064 71.8212L27.6078 51.6582C27.5682 51.6252 27.5154 51.6186 27.4758 51.5856C26.0436 50.4636 26.0436 48.642 27.4758 47.52Z" fill="white"/>
</svg>