<svg width="99" height="99" viewBox="0 0 99 99" fill="none" xmlns="http://www.w3.org/2000/svg">
<path d="M49.5 0C22.1628 0 0 22.1628 0 49.5C0 76.8372 22.1628 99 49.5 99C76.8372 99 99 76.8372 99 49.5C99 22.1628 76.8372 0 49.5 0ZM71.5242 51.48L45.936 71.6892C44.5038 72.8112 42.1806 72.8112 40.7484 71.6892L40.7616 71.676C40.0554 71.1546 39.6 70.422 39.6 69.597V29.271C39.6 28.4592 40.029 27.7332 40.7154 27.2118C40.7286 27.2052 40.7352 27.192 40.7484 27.1788C42.1806 26.0568 44.5038 26.0568 45.936 27.1788L71.3922 47.3418C71.4318 47.3748 71.4846 47.3814 71.5242 47.4144C72.9564 48.5364 72.9564 50.358 71.5242 51.48Z" fill="white"/>
</svg>
