<svg width="81" height="49" viewBox="0 0 81 49" fill="none" xmlns="http://www.w3.org/2000/svg">
<path d="M69.3284 23.5904C69.4785 22.7211 69.5697 21.8432 69.6015 20.9623C69.6143 16.4533 68.0855 12.0679 65.2551 8.49471C62.4246 4.92149 58.453 2.36281 53.9636 1.22045C49.4743 0.0780937 44.7217 0.416762 40.4519 2.18328C36.1822 3.94979 32.6372 7.0441 30.3736 10.9803C29.0221 10.4782 27.5941 10.1977 26.148 10.1505C24.3979 10.1501 22.6649 10.4847 21.0479 11.1351C19.4309 11.7856 17.9616 12.7391 16.724 13.9413C15.4863 15.1436 14.5046 16.5709 13.8347 18.1418C13.1649 19.7127 12.8202 21.3965 12.8202 23.0969C12.8202 23.1709 12.8614 23.2326 12.8646 23.3035C9.46281 23.5438 6.29044 25.0598 4.01802 27.5311C1.7456 30.0024 0.551183 33.2353 0.687225 36.5466C0.823266 39.8579 2.27911 42.988 4.74704 45.2755C7.21497 47.5629 10.5016 48.8284 13.9123 48.8044H66.8235C70.3322 48.8044 73.6971 47.4502 76.1781 45.0397C78.6591 42.6291 80.0529 39.3597 80.0529 35.9507C80.0259 32.9995 78.9399 30.1501 76.9821 27.8936C75.0243 25.6372 72.3175 24.1153 69.3284 23.5904Z" fill="#575DFF"/>
</svg>
