<svg width="70" height="70" viewBox="0 0 70 70" fill="none" xmlns="http://www.w3.org/2000/svg">
<circle cx="35" cy="35" r="35" fill="white"/>
<path d="M35.3209 52.5833L43.473 32.0833H47.2355L55.3876 52.5833H51.6251L49.699 47.3729H41.0095L39.0834 52.5833H35.3209ZM21.1667 47.4583L18.6584 45.0666L27.7063 36.4395C26.6612 35.443 25.7131 34.3041 24.8621 33.0229C24.011 31.7416 23.2272 30.2895 22.5105 28.6666H26.273C26.8702 29.777 27.4674 30.7451 28.0647 31.5708C28.6619 32.3965 29.3786 33.2222 30.2147 34.0479C31.2001 33.1083 32.2228 31.7915 33.2829 30.0974C34.343 28.4033 35.1417 26.7875 35.6792 25.25H15.7917V21.8333H28.3334V18.4166H31.9167V21.8333H44.4584V25.25H39.2626C38.6355 27.3 37.6949 29.4069 36.4407 31.5708C35.1865 33.7347 33.9473 35.3861 32.723 36.525L37.023 40.7104L35.6792 44.2125L30.2147 38.8739L21.1667 47.4583ZM42.1292 44.3833H48.5792L45.3542 35.6708L42.1292 44.3833Z" fill="url(#paint0_linear_243_952)"/>
<defs>
<linearGradient id="paint0_linear_243_952" x1="35.5897" y1="18.4166" x2="35.5897" y2="52.5833" gradientUnits="userSpaceOnUse">
<stop stop-color="#5790FF"/>
<stop offset="1" stop-color="#576BFF"/>
</linearGradient>
</defs>
</svg>
