<svg width="85" height="113" viewBox="0 0 85 113" fill="none" xmlns="http://www.w3.org/2000/svg">
<path d="M0 0H75C80.5228 0 85 4.47715 85 10V63C85 90.6142 62.6142 113 35 113H0V0Z" fill="#6F65FA"/>
<path d="M46.7006 51H42.3469V36.3117H46.7006V51ZM44.5214 34.3081C43.1292 34.3081 42 33.1 42 31.6415C42 30.941 42.2656 30.2691 42.7385 29.7737C43.2114 29.2783 43.8527 29 44.5214 29C45.1901 29 45.8315 29.2783 46.3043 29.7737C46.7772 30.2691 47.0428 30.941 47.0428 31.6415C47.0428 33.1 45.9131 34.3081 44.5214 34.3081ZM62.9953 51H58.6509V43.8498C58.6509 42.1458 58.6181 39.9605 56.3873 39.9605C54.1237 39.9605 53.7769 41.8118 53.7769 43.7271V51H49.4278V36.3117H53.6034V38.3153H53.6644C54.2456 37.1613 55.6655 35.9434 57.7838 35.9434C62.19 35.9434 63 38.9832 63 42.9315V51H62.9953Z" fill="white"/>
</svg>