<svg width="292" height="72" viewBox="0 0 292 72" fill="none" xmlns="http://www.w3.org/2000/svg">
<path d="M98.9837 56.3933H103.698C103.86 56.3933 103.995 56.454 104.103 56.5754C104.211 56.6834 104.265 56.8182 104.265 56.9801C104.265 57.1285 104.211 57.2566 104.103 57.3645C103.995 57.4724 103.86 57.5264 103.698 57.5264H98.9837C98.8218 57.5264 98.6802 57.4724 98.5588 57.3645C98.4509 57.2431 98.3969 57.1083 98.3969 56.9599C98.3969 56.798 98.4509 56.6631 98.5588 56.5552C98.6802 56.4473 98.8218 56.3933 98.9837 56.3933ZM101.068 53.5405C101.243 53.5405 101.385 53.6012 101.493 53.7226C101.614 53.844 101.675 53.9856 101.675 54.1475V64.3045C101.675 64.6822 101.722 64.9655 101.816 65.1543C101.924 65.3431 102.059 65.4713 102.221 65.5387C102.383 65.5927 102.545 65.6197 102.707 65.6197C102.815 65.6197 102.909 65.6062 102.99 65.5792C103.084 65.5387 103.185 65.5185 103.293 65.5185C103.415 65.5185 103.516 65.5657 103.597 65.6601C103.691 65.7545 103.738 65.8759 103.738 66.0243C103.738 66.2132 103.631 66.375 103.415 66.5099C103.199 66.6313 102.943 66.692 102.646 66.692C102.525 66.692 102.342 66.6853 102.1 66.6718C101.857 66.6448 101.607 66.5706 101.351 66.4492C101.095 66.3143 100.879 66.085 100.704 65.7613C100.542 65.4376 100.461 64.9722 100.461 64.3652V54.1475C100.461 53.9856 100.515 53.844 100.623 53.7226C100.744 53.6012 100.892 53.5405 101.068 53.5405ZM117.659 61.5123C117.659 62.5375 117.436 63.4615 116.991 64.2843C116.546 65.0936 115.939 65.7343 115.17 66.2064C114.401 66.665 113.524 66.8943 112.54 66.8943C111.582 66.8943 110.712 66.665 109.93 66.2064C109.161 65.7343 108.547 65.0936 108.088 64.2843C107.643 63.4615 107.421 62.5375 107.421 61.5123C107.421 60.4737 107.643 59.5497 108.088 58.7404C108.547 57.9311 109.161 57.2904 109.93 56.8182C110.712 56.3461 111.582 56.1101 112.54 56.1101C113.524 56.1101 114.401 56.3461 115.17 56.8182C115.939 57.2904 116.546 57.9311 116.991 58.7404C117.436 59.5497 117.659 60.4737 117.659 61.5123ZM116.445 61.5123C116.445 60.6895 116.276 59.9611 115.939 59.3272C115.602 58.6797 115.136 58.1739 114.543 57.8097C113.963 57.432 113.295 57.2431 112.54 57.2431C111.811 57.2431 111.15 57.432 110.557 57.8097C109.963 58.1739 109.491 58.6797 109.14 59.3272C108.803 59.9611 108.635 60.6895 108.635 61.5123C108.635 62.3351 108.803 63.0635 109.14 63.6975C109.491 64.3315 109.963 64.8373 110.557 65.215C111.15 65.5792 111.811 65.7613 112.54 65.7613C113.295 65.7613 113.963 65.5792 114.543 65.215C115.136 64.8373 115.602 64.3315 115.939 63.6975C116.276 63.0635 116.445 62.3351 116.445 61.5123ZM126.511 56.2719C127.347 56.2719 128.062 56.4945 128.656 56.9396C129.249 57.3713 129.654 58.0187 129.87 58.882L129.586 58.963L129.708 58.5988C129.883 58.1941 130.173 57.8164 130.578 57.4657C130.996 57.1015 131.468 56.8115 131.994 56.5957C132.52 56.3799 133.053 56.2719 133.592 56.2719C134.442 56.2719 135.123 56.454 135.636 56.8182C136.162 57.1824 136.54 57.6748 136.769 58.2953C137.012 58.9023 137.133 59.5902 137.133 60.359V66.085C137.133 66.2469 137.073 66.3885 136.951 66.5099C136.843 66.6313 136.702 66.692 136.526 66.692C136.351 66.692 136.203 66.6313 136.081 66.5099C135.973 66.3885 135.919 66.2469 135.919 66.085V60.4197C135.919 59.8667 135.832 59.3609 135.656 58.9023C135.481 58.4436 135.204 58.0794 134.827 57.8097C134.449 57.5399 133.943 57.405 133.309 57.405C132.756 57.405 132.223 57.5399 131.711 57.8097C131.212 58.0794 130.8 58.4436 130.477 58.9023C130.166 59.3609 130.011 59.8667 130.011 60.4197V66.085C130.011 66.2469 129.951 66.3885 129.829 66.5099C129.721 66.6313 129.58 66.692 129.404 66.692C129.229 66.692 129.08 66.6313 128.959 66.5099C128.851 66.3885 128.797 66.2469 128.797 66.085V60.359C128.797 59.806 128.716 59.3069 128.554 58.8618C128.393 58.4167 128.13 58.066 127.765 57.8097C127.401 57.5399 126.909 57.405 126.288 57.405C125.735 57.405 125.209 57.5399 124.71 57.8097C124.225 58.066 123.827 58.4167 123.516 58.8618C123.22 59.3069 123.071 59.806 123.071 60.359V66.085C123.071 66.2469 123.011 66.3885 122.889 66.5099C122.768 66.6313 122.626 66.692 122.464 66.692C122.275 66.692 122.127 66.6313 122.019 66.5099C121.911 66.3885 121.857 66.2469 121.857 66.085V57.0206C121.857 56.8587 121.911 56.7171 122.019 56.5957C122.141 56.4743 122.289 56.4136 122.464 56.4136C122.64 56.4136 122.781 56.4743 122.889 56.5957C123.011 56.7171 123.071 56.8587 123.071 57.0206V58.9023L122.525 59.6509C122.565 59.2462 122.694 58.8416 122.909 58.4369C123.139 58.0322 123.435 57.668 123.8 57.3443C124.164 57.0206 124.575 56.7643 125.034 56.5754C125.506 56.3731 125.998 56.2719 126.511 56.2719ZM151.562 61.5123C151.562 62.5375 151.339 63.4615 150.894 64.2843C150.449 65.0936 149.842 65.7343 149.073 66.2064C148.304 66.665 147.427 66.8943 146.443 66.8943C145.485 66.8943 144.615 66.665 143.833 66.2064C143.064 65.7343 142.45 65.0936 141.991 64.2843C141.546 63.4615 141.324 62.5375 141.324 61.5123C141.324 60.4737 141.546 59.5497 141.991 58.7404C142.45 57.9311 143.064 57.2904 143.833 56.8182C144.615 56.3461 145.485 56.1101 146.443 56.1101C147.427 56.1101 148.304 56.3461 149.073 56.8182C149.842 57.2904 150.449 57.9311 150.894 58.7404C151.339 59.5497 151.562 60.4737 151.562 61.5123ZM150.348 61.5123C150.348 60.6895 150.179 59.9611 149.842 59.3272C149.505 58.6797 149.039 58.1739 148.446 57.8097C147.866 57.432 147.198 57.2431 146.443 57.2431C145.714 57.2431 145.053 57.432 144.46 57.8097C143.866 58.1739 143.394 58.6797 143.044 59.3272C142.706 59.9611 142.538 60.6895 142.538 61.5123C142.538 62.3351 142.706 63.0635 143.044 63.6975C143.394 64.3315 143.866 64.8373 144.46 65.215C145.053 65.5792 145.714 65.7613 146.443 65.7613C147.198 65.7613 147.866 65.5792 148.446 65.215C149.039 64.8373 149.505 64.3315 149.842 63.6975C150.179 63.0635 150.348 62.3351 150.348 61.5123ZM156.367 66.692C156.179 66.692 156.03 66.6313 155.922 66.5099C155.814 66.3885 155.76 66.2469 155.76 66.085V57.0206C155.76 56.8587 155.814 56.7171 155.922 56.5957C156.044 56.4743 156.192 56.4136 156.367 56.4136C156.543 56.4136 156.684 56.4743 156.792 56.5957C156.914 56.7171 156.974 56.8587 156.974 57.0206V60.0555L156.671 60.1162C156.711 59.6441 156.826 59.1788 157.015 58.7202C157.217 58.2481 157.487 57.8164 157.824 57.4252C158.161 57.0341 158.559 56.7171 159.018 56.4743C159.49 56.2315 160.016 56.1101 160.596 56.1101C160.839 56.1101 161.075 56.164 161.304 56.2719C161.534 56.3664 161.648 56.5282 161.648 56.7575C161.648 56.9599 161.594 57.115 161.486 57.2229C161.378 57.3308 161.25 57.3848 161.102 57.3848C160.981 57.3848 160.846 57.351 160.697 57.2836C160.562 57.2162 160.38 57.1824 160.151 57.1824C159.773 57.1824 159.396 57.2971 159.018 57.5264C158.64 57.7422 158.296 58.039 157.986 58.4167C157.676 58.7943 157.426 59.2192 157.237 59.6913C157.062 60.15 156.974 60.6153 156.974 61.0874V66.085C156.974 66.2469 156.914 66.3885 156.792 66.5099C156.671 66.6313 156.529 66.692 156.367 66.692ZM165.771 66.692C165.582 66.692 165.434 66.6313 165.326 66.5099C165.218 66.3885 165.164 66.2469 165.164 66.085V57.0206C165.164 56.8587 165.218 56.7171 165.326 56.5957C165.447 56.4743 165.596 56.4136 165.771 56.4136C165.946 56.4136 166.088 56.4743 166.196 56.5957C166.317 56.7171 166.378 56.8587 166.378 57.0206V60.0555L166.075 60.1162C166.115 59.6441 166.23 59.1788 166.419 58.7202C166.621 58.2481 166.891 57.8164 167.228 57.4252C167.565 57.0341 167.963 56.7171 168.422 56.4743C168.894 56.2315 169.42 56.1101 170 56.1101C170.243 56.1101 170.479 56.164 170.708 56.2719C170.937 56.3664 171.052 56.5282 171.052 56.7575C171.052 56.9599 170.998 57.115 170.89 57.2229C170.782 57.3308 170.654 57.3848 170.506 57.3848C170.384 57.3848 170.249 57.351 170.101 57.2836C169.966 57.2162 169.784 57.1824 169.555 57.1824C169.177 57.1824 168.799 57.2971 168.422 57.5264C168.044 57.7422 167.7 58.039 167.39 58.4167C167.079 58.7943 166.83 59.2192 166.641 59.6913C166.466 60.15 166.378 60.6153 166.378 61.0874V66.085C166.378 66.2469 166.317 66.3885 166.196 66.5099C166.075 66.6313 165.933 66.692 165.771 66.692ZM183.744 61.5123C183.744 62.5375 183.522 63.4615 183.077 64.2843C182.631 65.0936 182.024 65.7343 181.256 66.2064C180.487 66.665 179.61 66.8943 178.625 66.8943C177.668 66.8943 176.798 66.665 176.015 66.2064C175.246 65.7343 174.633 65.0936 174.174 64.2843C173.729 63.4615 173.506 62.5375 173.506 61.5123C173.506 60.4737 173.729 59.5497 174.174 58.7404C174.633 57.9311 175.246 57.2904 176.015 56.8182C176.798 56.3461 177.668 56.1101 178.625 56.1101C179.61 56.1101 180.487 56.3461 181.256 56.8182C182.024 57.2904 182.631 57.9311 183.077 58.7404C183.522 59.5497 183.744 60.4737 183.744 61.5123ZM182.53 61.5123C182.53 60.6895 182.362 59.9611 182.024 59.3272C181.687 58.6797 181.222 58.1739 180.628 57.8097C180.048 57.432 179.381 57.2431 178.625 57.2431C177.897 57.2431 177.236 57.432 176.642 57.8097C176.049 58.1739 175.577 58.6797 175.226 59.3272C174.889 59.9611 174.72 60.6895 174.72 61.5123C174.72 62.3351 174.889 63.0635 175.226 63.6975C175.577 64.3315 176.049 64.8373 176.642 65.215C177.236 65.5792 177.897 65.7613 178.625 65.7613C179.381 65.7613 180.048 65.5792 180.628 65.215C181.222 64.8373 181.687 64.3315 182.024 63.6975C182.362 63.0635 182.53 62.3351 182.53 61.5123ZM200.224 56.1303C200.373 56.1303 200.508 56.1843 200.629 56.2922C200.764 56.4001 200.831 56.5485 200.831 56.7373C200.831 56.7778 200.825 56.825 200.811 56.8789C200.798 56.9329 200.784 56.9734 200.771 57.0003L197.655 66.3076C197.601 66.429 197.513 66.5302 197.392 66.6111C197.284 66.6785 197.169 66.7055 197.048 66.692C196.805 66.6785 196.623 66.5504 196.502 66.3076L193.649 59.5902L194.013 59.6711L191.484 66.3076C191.376 66.5504 191.194 66.6785 190.937 66.692C190.816 66.7055 190.695 66.6785 190.573 66.6111C190.452 66.5302 190.371 66.429 190.33 66.3076L187.134 57.0003C187.093 56.9059 187.073 56.8182 187.073 56.7373C187.073 56.562 187.127 56.4203 187.235 56.3124C187.356 56.191 187.511 56.1303 187.7 56.1303C187.822 56.1303 187.929 56.164 188.024 56.2315C188.132 56.2989 188.206 56.4001 188.246 56.535L191.12 65.1543L190.735 65.1341L193.345 58.5583C193.453 58.302 193.642 58.1739 193.912 58.1739C194.047 58.1739 194.161 58.2076 194.256 58.275C194.35 58.3425 194.424 58.4369 194.478 58.5583L197.25 65.1543L196.805 65.1745L199.658 56.535C199.739 56.2652 199.928 56.1303 200.224 56.1303ZM206.192 53.844C206.192 54.2082 206.084 54.5656 205.869 54.9163C205.653 55.2535 205.39 55.5368 205.079 55.7661C204.783 55.9819 204.479 56.0898 204.169 56.0898C204.061 56.0898 203.96 56.0561 203.866 55.9887C203.771 55.9212 203.724 55.7998 203.724 55.6245C203.724 55.4356 203.785 55.3277 203.906 55.3008C204.027 55.2738 204.189 55.2131 204.392 55.1187C204.607 54.9973 204.776 54.8556 204.897 54.6938C205.019 54.5319 205.079 54.3431 205.079 54.1272C205.079 53.9519 205.026 53.817 204.918 53.7226C204.823 53.6282 204.709 53.5809 204.574 53.5809C204.479 53.5809 204.385 53.6012 204.29 53.6416C204.196 53.6686 204.115 53.7091 204.048 53.763C203.967 53.6956 203.899 53.6214 203.845 53.5405C203.805 53.4461 203.785 53.3381 203.785 53.2167C203.812 52.9874 203.94 52.7918 204.169 52.63C204.398 52.4681 204.655 52.3872 204.938 52.3872C205.302 52.3872 205.599 52.5356 205.828 52.8323C206.071 53.1156 206.192 53.4528 206.192 53.844ZM209.74 65.0531C209.632 64.8913 209.578 64.7361 209.578 64.5878C209.592 64.4259 209.679 64.2978 209.841 64.2033C209.949 64.1089 210.07 64.0685 210.205 64.0819C210.354 64.0954 210.489 64.1629 210.61 64.2843C210.974 64.7564 211.413 65.1408 211.925 65.4376C212.451 65.7208 213.072 65.8625 213.787 65.8625C214.164 65.8625 214.535 65.8018 214.899 65.6804C215.277 65.5455 215.587 65.3499 215.83 65.0936C216.073 64.8238 216.194 64.4866 216.194 64.0819C216.194 63.6638 216.073 63.3266 215.83 63.0703C215.587 62.814 215.27 62.6117 214.879 62.4633C214.501 62.3149 214.097 62.1868 213.665 62.0789C213.207 61.9575 212.761 61.8226 212.33 61.6742C211.898 61.5123 211.514 61.3167 211.176 61.0874C210.853 60.8446 210.59 60.5546 210.387 60.2174C210.185 59.8802 210.084 59.4688 210.084 58.9832C210.084 58.4167 210.239 57.9176 210.549 57.4859C210.859 57.0543 211.278 56.7171 211.804 56.4743C212.343 56.2315 212.95 56.1101 213.625 56.1101C213.962 56.1101 214.326 56.1573 214.717 56.2517C215.108 56.3326 215.493 56.4743 215.871 56.6766C216.248 56.8789 216.585 57.1555 216.882 57.5062C217.004 57.6276 217.064 57.7692 217.064 57.9311C217.064 58.0794 216.997 58.2143 216.862 58.3357C216.754 58.4167 216.626 58.4571 216.478 58.4571C216.343 58.4571 216.228 58.4032 216.134 58.2953C215.81 57.9311 215.425 57.6545 214.98 57.4657C214.535 57.2769 214.056 57.1824 213.544 57.1824C213.153 57.1824 212.782 57.2499 212.431 57.3848C212.094 57.5062 211.81 57.695 211.581 57.9513C211.352 58.2076 211.237 58.5448 211.237 58.963C211.264 59.3541 211.399 59.6711 211.642 59.9139C211.898 60.1567 212.229 60.359 212.633 60.5209C213.051 60.6828 213.517 60.8311 214.029 60.966C214.461 61.0739 214.872 61.2021 215.264 61.3505C215.668 61.4988 216.019 61.6877 216.316 61.917C216.626 62.1328 216.869 62.4093 217.044 62.7466C217.233 63.0838 217.327 63.5087 217.327 64.0212C217.327 64.6147 217.159 65.1273 216.822 65.559C216.498 65.9906 216.059 66.3211 215.506 66.5504C214.953 66.7797 214.34 66.8943 213.665 66.8943C212.937 66.8943 212.229 66.7527 211.541 66.4695C210.866 66.1862 210.266 65.7141 209.74 65.0531ZM227.913 56.3933H232.627C232.789 56.3933 232.924 56.454 233.032 56.5754C233.14 56.6834 233.194 56.8182 233.194 56.9801C233.194 57.1285 233.14 57.2566 233.032 57.3645C232.924 57.4724 232.789 57.5264 232.627 57.5264H227.913C227.751 57.5264 227.61 57.4724 227.488 57.3645C227.38 57.2431 227.326 57.1083 227.326 56.9599C227.326 56.798 227.38 56.6631 227.488 56.5552C227.61 56.4473 227.751 56.3933 227.913 56.3933ZM229.997 53.5405C230.172 53.5405 230.314 53.6012 230.422 53.7226C230.543 53.844 230.604 53.9856 230.604 54.1475V64.3045C230.604 64.6822 230.651 64.9655 230.746 65.1543C230.854 65.3431 230.989 65.4713 231.15 65.5387C231.312 65.5927 231.474 65.6197 231.636 65.6197C231.744 65.6197 231.838 65.6062 231.919 65.5792C232.014 65.5387 232.115 65.5185 232.223 65.5185C232.344 65.5185 232.445 65.5657 232.526 65.6601C232.621 65.7545 232.668 65.8759 232.668 66.0243C232.668 66.2132 232.56 66.375 232.344 66.5099C232.128 66.6313 231.872 66.692 231.575 66.692C231.454 66.692 231.272 66.6853 231.029 66.6718C230.786 66.6448 230.537 66.5706 230.28 66.4492C230.024 66.3143 229.808 66.085 229.633 65.7613C229.471 65.4376 229.39 64.9722 229.39 64.3652V54.1475C229.39 53.9856 229.444 53.844 229.552 53.7226C229.673 53.6012 229.822 53.5405 229.997 53.5405ZM245.533 56.3529C245.709 56.3529 245.85 56.4136 245.958 56.535C246.08 56.6564 246.14 56.8048 246.14 56.9801V66.085C246.14 66.2469 246.08 66.3885 245.958 66.5099C245.837 66.6313 245.695 66.692 245.533 66.692C245.358 66.692 245.21 66.6313 245.088 66.5099C244.98 66.3885 244.926 66.2469 244.926 66.085V63.6773L245.27 63.5154C245.27 63.8931 245.163 64.2775 244.947 64.6687C244.744 65.0599 244.461 65.4241 244.097 65.7613C243.733 66.0985 243.301 66.375 242.802 66.5909C242.316 66.7932 241.79 66.8943 241.224 66.8943C240.307 66.8943 239.484 66.6583 238.755 66.1862C238.04 65.7141 237.474 65.0666 237.056 64.2438C236.651 63.421 236.449 62.497 236.449 61.4719C236.449 60.4197 236.658 59.4958 237.076 58.6999C237.494 57.8906 238.061 57.2566 238.776 56.798C239.49 56.3394 240.3 56.1101 241.204 56.1101C241.784 56.1101 242.323 56.2112 242.822 56.4136C243.335 56.6159 243.78 56.8924 244.158 57.2431C244.535 57.5938 244.825 57.9985 245.028 58.4571C245.243 58.9023 245.351 59.3676 245.351 59.8532L244.926 59.5497V56.9801C244.926 56.8048 244.98 56.6564 245.088 56.535C245.21 56.4136 245.358 56.3529 245.533 56.3529ZM241.325 65.7613C242.04 65.7613 242.674 65.5792 243.227 65.215C243.78 64.8373 244.212 64.3247 244.522 63.6773C244.846 63.0163 245.007 62.2812 245.007 61.4719C245.007 60.676 244.846 59.9611 244.522 59.3272C244.212 58.6932 243.78 58.1874 243.227 57.8097C242.674 57.432 242.04 57.2431 241.325 57.2431C240.624 57.2431 239.99 57.4252 239.423 57.7894C238.87 58.1536 238.432 58.6527 238.108 59.2867C237.798 59.9207 237.643 60.6491 237.643 61.4719C237.643 62.2812 237.798 63.0163 238.108 63.6773C238.432 64.3247 238.87 64.8373 239.423 65.215C239.976 65.5792 240.61 65.7613 241.325 65.7613ZM252.28 66.085C252.28 66.2469 252.219 66.3885 252.098 66.5099C251.977 66.6313 251.835 66.692 251.673 66.692C251.498 66.692 251.349 66.6313 251.228 66.5099C251.12 66.3885 251.066 66.2469 251.066 66.085V52.3265C251.066 52.1646 251.127 52.023 251.248 51.9016C251.37 51.7802 251.511 51.7195 251.673 51.7195C251.848 51.7195 251.99 51.7802 252.098 51.9016C252.219 52.023 252.28 52.1646 252.28 52.3265V66.085ZM261.703 66.8943C260.664 66.8943 259.747 66.6718 258.951 66.2267C258.155 65.7815 257.535 65.161 257.09 64.3652C256.644 63.5694 256.422 62.6386 256.422 61.573C256.422 60.4265 256.644 59.4486 257.09 58.6392C257.548 57.8299 258.135 57.2094 258.85 56.7778C259.578 56.3326 260.347 56.1101 261.156 56.1101C261.75 56.1101 262.323 56.218 262.876 56.4338C263.443 56.6361 263.942 56.9464 264.373 57.3645C264.819 57.7692 265.169 58.2683 265.426 58.8618C265.695 59.4553 265.844 60.1432 265.871 60.9256C265.857 61.0874 265.79 61.2291 265.668 61.3505C265.547 61.4584 265.405 61.5123 265.244 61.5123H257.13L256.887 60.4197H264.859L264.596 60.6625V60.2579C264.542 59.6239 264.34 59.0844 263.989 58.6392C263.638 58.1941 263.213 57.8569 262.714 57.6276C262.215 57.3983 261.696 57.2836 261.156 57.2836C260.752 57.2836 260.334 57.3645 259.902 57.5264C259.484 57.6883 259.099 57.9446 258.749 58.2953C258.411 58.6325 258.135 59.0709 257.919 59.6104C257.703 60.1365 257.595 60.7637 257.595 61.4921C257.595 62.2879 257.757 63.0096 258.081 63.657C258.405 64.3045 258.87 64.8171 259.477 65.1948C260.098 65.5724 260.833 65.7613 261.682 65.7613C262.155 65.7613 262.579 65.6938 262.957 65.559C263.335 65.4241 263.665 65.2487 263.949 65.0329C264.232 64.8036 264.468 64.5675 264.657 64.3247C264.805 64.2033 264.954 64.1426 265.102 64.1426C265.237 64.1426 265.351 64.1966 265.446 64.3045C265.554 64.4124 265.608 64.5338 265.608 64.6687C265.608 64.8306 265.54 64.9722 265.405 65.0936C265.001 65.5792 264.475 66.0041 263.827 66.3683C263.18 66.719 262.472 66.8943 261.703 66.8943ZM274.964 56.1101C275.854 56.1101 276.563 56.2922 277.089 56.6564C277.628 57.0071 278.013 57.4927 278.242 58.1132C278.485 58.7202 278.606 59.3946 278.606 60.1365V66.085C278.606 66.2469 278.545 66.3885 278.424 66.5099C278.303 66.6313 278.161 66.692 277.999 66.692C277.81 66.692 277.662 66.6313 277.554 66.5099C277.446 66.3885 277.392 66.2469 277.392 66.085V60.1972C277.392 59.6576 277.304 59.1653 277.129 58.7202C276.954 58.275 276.664 57.9176 276.259 57.6478C275.868 57.378 275.349 57.2431 274.701 57.2431C274.121 57.2431 273.568 57.378 273.042 57.6478C272.529 57.9176 272.111 58.275 271.788 58.7202C271.464 59.1653 271.302 59.6576 271.302 60.1972V66.085C271.302 66.2469 271.241 66.3885 271.12 66.5099C270.998 66.6313 270.857 66.692 270.695 66.692C270.506 66.692 270.358 66.6313 270.25 66.5099C270.142 66.3885 270.088 66.2469 270.088 66.085V57.0206C270.088 56.8587 270.142 56.7171 270.25 56.5957C270.371 56.4743 270.52 56.4136 270.695 56.4136C270.87 56.4136 271.012 56.4743 271.12 56.5957C271.241 56.7171 271.302 56.8587 271.302 57.0206V58.7202L270.837 59.4486C270.864 59.0169 270.998 58.6055 271.241 58.2143C271.498 57.8097 271.821 57.4522 272.212 57.142C272.604 56.8182 273.035 56.5687 273.507 56.3933C273.993 56.2045 274.479 56.1101 274.964 56.1101ZM282.736 56.3933H287.451C287.612 56.3933 287.747 56.454 287.855 56.5754C287.963 56.6834 288.017 56.8182 288.017 56.9801C288.017 57.1285 287.963 57.2566 287.855 57.3645C287.747 57.4724 287.612 57.5264 287.451 57.5264H282.736C282.574 57.5264 282.433 57.4724 282.311 57.3645C282.203 57.2431 282.149 57.1083 282.149 56.9599C282.149 56.798 282.203 56.6631 282.311 56.5552C282.433 56.4473 282.574 56.3933 282.736 56.3933ZM284.82 53.5405C284.996 53.5405 285.137 53.6012 285.245 53.7226C285.366 53.844 285.427 53.9856 285.427 54.1475V64.3045C285.427 64.6822 285.474 64.9655 285.569 65.1543C285.677 65.3431 285.812 65.4713 285.973 65.5387C286.135 65.5927 286.297 65.6197 286.459 65.6197C286.567 65.6197 286.661 65.6062 286.742 65.5792C286.837 65.5387 286.938 65.5185 287.046 65.5185C287.167 65.5185 287.268 65.5657 287.349 65.6601C287.444 65.7545 287.491 65.8759 287.491 66.0243C287.491 66.2132 287.383 66.375 287.167 66.5099C286.951 66.6313 286.695 66.692 286.398 66.692C286.277 66.692 286.095 66.6853 285.852 66.6718C285.609 66.6448 285.36 66.5706 285.103 66.4492C284.847 66.3143 284.631 66.085 284.456 65.7613C284.294 65.4376 284.213 64.9722 284.213 64.3652V54.1475C284.213 53.9856 284.267 53.844 284.375 53.7226C284.496 53.6012 284.645 53.5405 284.82 53.5405Z" fill="white"/>
<path d="M117.053 38V13.4588H119.817V35.6467H130.65V38H117.053ZM152.219 38V13.4588H154.984V38H152.219ZM178.996 38V13.4588H192.929V15.812H181.76V24.478H191.21V26.794H181.76V38H178.996ZM214.49 38V13.4588H217.255V38H214.49ZM237.98 38L246.384 13.4588H249.447L257.814 38H254.901L250.456 24.1045C250.007 22.71 249.572 21.3403 249.148 19.9956C248.75 18.626 248.339 17.219 247.916 15.7747H247.766C247.393 17.219 246.994 18.626 246.571 19.9956C246.172 21.3403 245.737 22.71 245.264 24.1045L240.781 38H237.98ZM242.238 30.2678V28.064H253.481V30.2678H242.238Z" fill="white"/>
<path d="M7.78198 63.8124L84.0454 63.8124" stroke="white" stroke-width="2.33459"/>
<rect y="63.8124" width="9.8724" height="9.8724" rx="3.11279" transform="rotate(-45 0 63.8124)" fill="white"/>
<rect x="277.038" y="27.214" width="9.8724" height="9.8724" rx="3.11279" transform="rotate(-45 277.038 27.214)" fill="white"/>
<path d="M87.3284 24.5904C87.4785 23.7211 87.5697 22.8432 87.6015 21.9623C87.6143 17.4533 86.0855 13.0679 83.2551 9.49471C80.4246 5.92149 76.453 3.36281 71.9636 2.22045C67.4743 1.07809 62.7217 1.41676 58.4519 3.18328C54.1822 4.94979 50.6372 8.0441 48.3736 11.9803C47.0221 11.4782 45.5941 11.1977 44.148 11.1505C42.3979 11.1501 40.6649 11.4847 39.0479 12.1351C37.4309 12.7856 35.9616 13.7391 34.724 14.9413C33.4863 16.1436 32.5046 17.5709 31.8347 19.1418C31.1649 20.7127 30.8202 22.3965 30.8202 24.0969C30.8202 24.1709 30.8614 24.2326 30.8646 24.3035C27.4628 24.5438 24.2904 26.0598 22.018 28.5311C19.7456 31.0024 18.5512 34.2353 18.6872 37.5466C18.8233 40.8579 20.2791 43.9881 22.747 46.2755C25.215 48.5629 28.5016 49.8284 31.9123 49.8044H84.8235C88.3322 49.8044 91.6971 48.4502 94.1781 46.0397C96.6591 43.6291 98.0529 40.3597 98.0529 36.9507C98.026 33.9995 96.9399 31.1501 94.9821 28.8936C93.0243 26.6372 90.3175 25.1153 87.3284 24.5904Z" fill="white"/>
</svg>
