<svg width="509" height="384" viewBox="0 0 509 384" fill="none" xmlns="http://www.w3.org/2000/svg">
<path d="M154.974 20.2888C213.182 -12.561 294.98 -5.86511 346.438 42.8945C374.573 69.5636 386.001 106.248 415.205 132.344C448.084 161.703 487.38 190.261 502.282 230.322C518.121 272.9 504.22 321.717 468.801 354.281C425.697 393.884 362.343 381.98 302.465 381.351C57.2703 378.718 -124.972 238.563 106.924 65.7864C126.304 51.2501 135.727 31.1052 154.974 20.2888Z" fill="#CCCDFF"/>
<path d="M458.241 146.709C456.971 147.053 450.289 151.288 450.289 151.288L442.403 155.637L442.069 153.176C442.069 153.176 438.861 147.682 434.918 147.911C434.918 147.911 439.663 152.89 440.264 156.21C440.866 159.529 441.133 161.818 441.133 161.818L435.92 166.225L444.608 175.782L464.991 162.734C464.991 162.734 459.511 146.366 458.241 146.709Z" fill="white"/>
<path d="M462.319 146.709L458.777 171.032L444.609 171.318L441.201 146.709H462.319Z" fill="#575DFF"/>
<path d="M465.392 147.052H438.66V144.648H441.2V140.871L462.919 143.618L462.986 144.992H465.392V147.338" fill="#011936"/>
<path d="M463.587 163.192C468.533 163.592 462.318 151.975 462.318 151.975C462.318 151.975 448.952 151.173 448.818 151.803C448.685 152.432 448.751 153.462 449.821 153.691C450.89 153.92 459.243 154.893 459.243 154.893C459.243 154.893 450.556 155.237 450.689 156.038C450.957 157.24 451.959 157.354 454.565 157.697C456.771 157.984 461.582 158.098 461.582 158.098C461.582 158.098 452.427 158.27 452.627 158.785C452.828 159.3 452.226 160.902 455.367 160.502C462.518 159.701 463.587 163.192 463.587 163.192Z" fill="white"/>
<path d="M403.441 209.947C403.441 209.947 417.008 292.072 410.726 309.527C404.444 326.982 401.971 342.72 401.971 342.72L370.428 334.822C370.428 334.822 380.853 293.731 382.457 285.834C383.994 277.936 367.889 213.782 367.889 213.782L403.441 209.947Z" fill="#0B0D70"/>
<path d="M388.541 215.843L373.638 347.872H343.498C343.498 347.872 353.255 208.117 351.517 206.915C349.78 205.828 388.541 215.843 388.541 215.843ZM400.436 135.378C400.436 135.378 403.644 179.674 410.527 178.071C417.477 176.526 436.056 164.966 436.056 164.966L447.35 175.61C447.35 175.61 412.933 208.403 398.765 195.011C384.664 181.562 400.436 135.378 400.436 135.378ZM391.147 369.962L393.219 361.034L371.232 353.48L367.757 366.757L368.96 366.929C373.905 368.875 397.897 378.375 401.639 378.661C405.782 379.005 391.147 369.962 391.147 369.962Z" fill="#0B0D70"/>
<path d="M338.886 239.993L341.292 242.969C341.292 242.969 342.428 244.972 345.235 248.005C345.97 248.807 346.839 249.493 347.841 250.008C349.044 250.638 350.715 251.439 351.784 251.668C353.121 251.897 353.388 253.385 352.252 253.843C351.116 254.243 347.507 253.671 344.032 251.382C340.557 249.15 342.161 254.816 342.762 256.933C343.297 258.993 344.634 265.518 344.032 266.204C343.163 267.177 341.76 266.49 341.292 264.43C340.824 262.313 338.82 256.132 337.55 256.475C336.28 256.761 339.22 267.349 339.22 267.349C339.22 267.349 340.29 269.524 338.82 269.924C336.213 270.611 334.008 259.165 333.874 258.078C333.741 257.334 332.337 257.62 332.538 258.421C332.738 259.28 335.745 268.894 333.139 269.638C331.067 270.21 331.268 260.252 329.33 258.536C327.392 256.819 330.132 266.09 328.127 266.548C327.392 266.719 326.79 266.777 326.122 261.225C325.454 255.56 326.523 240.05 326.523 240.05L339.087 240.165" fill="white"/>
<path d="M382.525 120.498C382.258 118.724 383.327 111.341 383.327 111.341C383.327 111.341 391.213 110.826 391.948 104.187C392.683 97.4916 392.75 82.0396 392.75 82.0396L378.649 75.6299L362.476 85.4161L358.801 92.7415L363.612 110.197V118.953L382.525 120.498Z" fill="white"/>
<path d="M383.326 111.341C383.326 111.341 378.047 111.227 373.102 108.079C373.102 108.079 375.24 113.058 383.126 113.001L383.326 111.341Z" fill="white"/>
<path d="M359.068 100.067C361.206 104.13 362.476 110.082 362.476 110.082C363.612 111.913 364.013 106.076 364.013 106.076C364.013 106.076 365.015 100.467 364.08 98.2927C364.08 98.2927 360.07 99.3801 359.201 93.2565C358.734 90.2233 364.08 88.7926 365.55 92.4553L368.891 92.7415C368.891 92.7415 369.159 81.2955 376.844 83.413C376.844 83.413 382.391 86.3317 385.732 84.5576C389.074 82.7835 388.806 82.154 388.806 82.154C388.806 82.154 390.41 85.1871 394.687 83.1841C398.964 81.1811 399.499 77.6901 398.029 76.0304C397.16 75.0575 396.358 73.9701 394.955 73.7412C393.551 73.5123 392.014 74.0274 391.145 74.943C392.215 73.6267 391.48 71.6809 389.876 70.7653C388.339 69.9068 386.267 69.9641 384.529 70.5363C382.792 71.1086 381.322 72.1388 379.918 73.1689C378.916 70.7653 375.908 69.0484 372.968 69.2773C369.961 69.5062 367.354 71.5665 366.82 74.0846C365.216 72.3677 362.142 71.9671 359.803 72.94C357.464 73.9129 355.994 75.9732 355.526 78.1479C355.058 80.3226 355.593 82.5546 356.595 84.6148C354.791 83.7564 352.318 84.3859 351.115 85.8167C349.912 87.2474 349.912 89.2504 350.781 90.8529C351.65 92.4553 353.32 93.6571 355.125 94.4583C353.788 95.374 353.32 97.2054 354.189 98.5217C355.058 99.8379 357.063 100.525 358.667 100.01" fill="#011936"/>
<path d="M332.07 138.067C332.07 138.067 337.483 116.721 363.613 118.953L387.538 121.013C387.538 121.013 403.978 126.965 401.639 143.733C399.367 160.501 398.231 175.839 398.832 178.758C399.434 181.734 405.181 208.116 403.443 209.948C386.202 227.918 342.161 199.246 342.161 199.246L332.07 138.067Z" fill="#575DFF"/>
<path d="M363.612 118.953L357.531 243.656L339.42 235.243L341.291 124.618C341.291 124.618 346.17 117.465 363.612 118.953Z" fill="#011936"/>
<path d="M325.854 242.225L332.069 138.01C334.007 131.6 338.15 126.678 343.496 122.558V243.599L325.854 242.225ZM382.524 120.498C382.524 120.498 398.83 127.422 398.095 150.829C397.293 174.236 407.919 240.394 407.919 240.394L421.552 238.047C421.552 238.047 405.781 175.324 405.112 164.336C404.444 153.119 405.58 137.266 396.759 126.335C390.41 118.495 382.524 120.498 382.524 120.498Z" fill="#011936"/>
<path d="M363.613 118.953C363.613 118.953 358.267 129.254 358.802 132.974C359.336 136.752 361.208 144.649 361.208 144.649C361.208 144.649 357.265 146.71 357.599 148.484C357.866 150.258 361.007 178.3 361.007 178.3L363.613 118.953ZM343.498 243.657C345.169 218.475 344.768 169.601 346.438 144.363L343.498 243.657Z" fill="#0B0D70"/>
<path d="M391.279 360.405C391.012 360.29 396.826 341.462 396.826 341.462L377.513 336.654L373.436 354.281L391.279 360.405ZM346.771 347.929H368.758V362.694H346.771V347.929Z" fill="white"/>
<path d="M370.897 370.706L368.892 361.778H345.168L347.641 374.941L348.91 374.998C354.323 375.227 380.721 376.429 384.33 375.513C388.473 374.426 370.897 370.706 370.897 370.706Z" fill="#0B0D70"/>
<path d="M185.114 81.0098L190.727 97.1485C190.994 97.8925 191.262 98.6365 191.195 99.3805C191.128 101.67 188.655 103.444 186.049 103.844C183.443 104.245 180.77 103.673 178.23 103.043C177.562 105.332 174.354 106.305 171.614 106.763C159.451 108.709 146.553 107.335 135.326 102.871C140.138 96.9196 144.081 90.5099 147.021 83.6996C156.578 84.0429 166.134 84.4435 175.691 84.7869C177.361 84.8442 179.099 84.9014 180.703 84.4435C182.307 83.9285 183.71 82.7839 183.844 81.3531" fill="#011936"/>
<path d="M74.177 151.803L71.3702 148.998C71.3702 148.998 69.3654 147.568 66.4917 144.363C65.7566 143.562 65.222 142.589 64.821 141.616C64.3532 140.414 63.8186 138.812 63.8854 137.839C63.9522 136.637 62.2815 136.065 61.4796 136.923C60.6776 137.781 60.544 141.043 62.2815 144.534C64.0191 148.025 57.804 145.278 55.5318 144.248C53.2597 143.275 46.0422 140.528 45.1066 140.872C43.77 141.387 44.171 142.703 46.51 143.676C48.849 144.649 55.465 147.854 54.8635 148.827C54.1953 149.8 42.7007 144.706 42.7007 144.706C42.7007 144.706 40.4286 143.275 39.6266 144.42C38.1564 146.48 50.9207 151.173 52.1236 151.574C52.9923 151.86 52.3241 153.004 51.3885 152.604C50.4529 152.26 40.0276 147.282 38.4905 149.342C37.3544 150.944 48.9158 153.291 50.386 155.351C51.8563 157.411 41.832 152.833 40.7627 154.378C40.3617 154.95 40.1612 155.465 46.4431 157.354C52.7919 159.3 71.1029 162.276 71.1029 162.276L74.0434 151.517" fill="white"/>
<path d="M125.836 126.393C125.836 126.393 115.411 152.203 112.203 152.432C90.2166 154.149 66.2919 146.022 66.2919 146.022L60.2773 160.559C60.2773 160.559 122.562 184.423 135.927 161.417C150.162 137.037 149.427 133.203 149.427 133.203L125.836 126.393Z" fill="white"/>
<path d="M127.24 272.328C138.401 316.224 211.778 357.028 211.778 357.028L224.275 343.923C224.275 343.923 165.266 298.883 162.793 278.853C160.254 258.822 179.834 227.403 179.834 227.403L159.518 220.021L127.24 272.328Z" fill="#0B0D70"/>
<path d="M152.033 112.485C152.367 110.654 151.565 103.1 151.565 103.1C151.565 103.1 143.478 102.356 143.011 95.4883C142.543 88.6207 143.011 72.8253 143.011 72.8253L157.713 66.6445L173.886 77.1176L171.413 111.398L152.033 112.485Z" fill="white"/>
<path d="M172.749 82.498C172.749 82.498 159.517 81.4106 157.245 71.1665L142.944 82.498C142.944 82.498 138.6 74.8864 146.553 67.8472C154.505 60.8079 159.918 62.2387 163.059 62.2387C165.933 62.2387 180.635 64.9284 184.979 79.1786C185.313 80.2088 185.58 82.7841 185.781 83.9287L172.749 82.498Z" fill="#011936"/>
<path d="M151.633 103.157C151.633 103.157 157.046 103.214 162.259 100.066C162.259 100.066 159.853 105.103 151.833 104.816L151.633 103.157Z" fill="white"/>
<path d="M134.991 189.803C134.991 192.264 135.993 195.641 135.993 195.641L192.798 209.662C192.798 209.662 196.874 187.686 186.516 175.439C181.771 169.83 182.84 161.932 184.778 155.179L191.461 132.116L182.506 110.426L146.753 112.486C146.753 112.486 126.036 110.712 118.818 134.176L132.117 151.288L132.251 157.755L134.991 189.803Z" fill="#575DFF"/>
<path d="M190.393 181.219C190.994 181.219 201.286 200.963 191.996 212.695C191.128 213.782 188.989 216.472 186.116 220.307C172.349 238.391 140.939 280.913 139.87 287.151C138.6 294.705 113.205 373.968 113.205 373.968L94.293 371.393L109.73 281.485L134.992 189.803L190.393 181.219ZM157.58 70.365C157.58 70.365 154.639 75.2295 155.909 78.8922L143.078 81.7537C143.078 81.6964 140.137 67.7896 157.58 70.365ZM185.113 82.8983C185.113 82.8983 186.583 98.6936 172.349 101.498L173.284 82.4404L185.113 82.8983Z" fill="#011936"/>
<path d="M126.838 156.495L94.9611 167.998L42.7679 168.971L17.373 132.058L71.0365 128.968L94.2928 164.679L126.638 153.92L126.838 156.495Z" fill="#575DFF"/>
<path d="M121.092 129.368L112.137 148.082L132.185 156.609L134.057 140.242L121.092 129.368Z" fill="#575DFF"/>
<path d="M159.718 109.052L152.434 111.742L153.904 124.332L163.126 110.196L159.718 109.052Z" fill="white"/>
<path d="M92.5561 371.393C92.5561 371.393 75.9158 375.17 80.0592 376.257C84.2026 377.344 113.006 374.655 113.006 374.655L113.941 371.85L92.5561 371.393Z" fill="#595BD4"/>
<path d="M113.004 374.655L118.885 361.092H93.3566L92.5547 371.393L113.004 374.655Z" fill="#595BD4"/>
<path d="M211.977 357.943C211.977 357.943 207.767 372.251 210.908 369.675C213.982 367.1 225.343 344.265 225.343 344.265L222.937 342.205L211.977 357.943Z" fill="#0B0D70"/>
<path d="M225.277 344.265L214.25 333.277L201.887 352.335L211.978 357.943L225.277 344.265Z" fill="#0B0D70"/>
<path d="M174.821 91.1391C174.754 89.9945 174.754 88.7926 175.222 87.7625C175.689 86.6751 176.759 85.7595 178.095 85.645C179.632 85.5305 181.103 86.6179 181.37 87.877C181.637 89.1932 180.702 90.5095 179.365 91.1963C178.028 91.8258 176.358 91.8258 174.888 91.3107" fill="white"/>
<path d="M165.732 190.719C165.732 190.719 164.997 127.366 167.604 122.558C167.604 122.558 170.344 110.655 180.969 110.426L176.225 110.769C176.225 110.769 166.601 110.197 163.794 126.393C161.054 142.589 161.188 191.234 161.188 191.234L165.732 190.719ZM145.149 192.951C145.149 192.951 142.276 120.155 144.548 112.486H141.674C141.674 112.486 139.135 118.724 139.602 136.179C139.937 146.652 139.602 192.951 139.602 192.951H145.149Z" fill="#011936"/>
<path d="M111.267 160.673C111.267 160.673 97.3664 168.227 94.2923 168.17C91.285 168.113 82.5305 167.941 83.4661 168.971C84.4017 170.001 94.2923 171.432 94.2923 171.432L111.267 160.673Z" fill="white"/>
<path d="M112.27 176.583C112.27 176.583 178.097 191.749 187.118 167.254C196.675 141.272 196.809 148.025 196.809 148.025L176.159 130.971C176.159 130.971 165.065 160.959 161.924 161.646C144.615 165.423 124.968 163.019 118.018 161.932C117.216 161.36 116.347 160.73 115.278 159.872C114.409 159.185 113.674 158.326 113.139 157.411C112.471 156.266 111.669 154.778 111.535 153.805C111.335 152.604 109.597 152.26 108.996 153.176C108.394 154.091 108.795 157.354 111.201 160.558C111.201 160.558 95.4963 169.2 94.2266 171.26L112.27 176.583Z" fill="white"/>
<path d="M182.506 110.426C182.506 110.426 197.542 112.887 198.144 133.146C198.745 153.405 189.189 168.914 189.189 168.914L163.66 157.526L182.506 110.426Z" fill="#575DFF"/>
<path d="M313.625 310.386H244.658C241.45 310.386 238.844 308.154 238.844 305.407C238.844 302.66 241.45 300.428 244.658 300.428H313.558C316.766 300.428 319.372 302.66 319.372 305.407C319.439 308.154 316.833 310.386 313.625 310.386Z" fill="#0068B1"/>
<path d="M264.859 373.297V368.261H324.203V373.297H264.859Z" fill="#0B0D70"/>
<path d="M270.32 372.309C270.854 374.941 268.783 377.402 265.709 377.803C262.634 378.26 259.761 376.486 259.293 373.854C258.758 371.221 260.83 368.76 263.904 368.36C266.978 367.902 269.852 369.676 270.32 372.309ZM291.304 307.124H297.185V370.306H291.304V307.124ZM329.664 372.309C330.198 374.941 328.127 377.402 325.052 377.803C321.978 378.26 319.105 376.486 318.637 373.854C318.102 371.221 320.174 368.76 323.248 368.36C326.322 367.902 329.196 369.676 329.664 372.309Z" fill="#0B0D70"/>
<path d="M331.669 310.386H266.578C262.167 310.386 258.96 306.666 260.229 302.946L291.305 211.149C292.107 208.689 294.713 206.972 297.653 206.972H362.745C367.155 206.972 370.363 210.692 369.093 214.412L338.018 306.208C337.216 308.726 334.61 310.386 331.669 310.386Z" fill="#0068B1"/>
<path d="M322.714 310.386H265.977C261.566 310.386 258.358 306.666 259.628 302.946L290.703 211.149C291.505 208.689 294.111 206.972 297.052 206.972H353.789C358.2 206.972 361.408 210.692 360.138 214.412L329.063 306.208C328.261 308.726 325.655 310.386 322.714 310.386Z" fill="#F2F2F2"/>
<path d="M331.668 310.386H262.701C259.493 310.386 256.887 308.154 256.887 305.407C256.887 302.66 259.493 300.428 262.701 300.428H331.601C334.809 300.428 337.415 302.66 337.415 305.407C337.482 308.154 334.876 310.386 331.668 310.386Z" fill="#0068B1"/>
<path d="M274.663 232.439L259.359 267.292L262.968 274.103L283.618 271.012L289.499 233.756L274.663 232.439Z" fill="white"/>
<path d="M283.953 215.499C283.953 215.499 271.857 220.936 269.184 238.791L285.156 246.289L283.953 215.499Z" fill="#167FFC"/>
<path d="M303.467 208.689L284.421 215.556L269.385 272.843L319.64 289.783L346.438 224.427C346.438 224.427 342.094 210.806 316.967 207.315L303.467 208.689Z" fill="#167FFC"/>
<path d="M354.256 275.934C354.256 275.19 353.721 270.669 353.454 269.925L345.167 224.541C343.563 218.303 335.41 215.156 328.928 218.246C324.116 220.535 321.978 225.4 323.849 229.807L333.673 268.78L354.256 275.934Z" fill="white"/>
<path d="M342.962 266.262L286.893 262.542L284.086 271.012L338.083 286.636C346.37 289.039 354.858 283.431 354.256 275.934C353.855 270.783 349.043 266.663 342.962 266.262Z" fill="white"/>
<path d="M339.555 216.872C339.555 216.872 346.706 219.505 349.78 235.415L324.519 242.053C324.519 242.053 308.012 226.201 325.655 215.613L339.555 216.872Z" fill="#167FFC"/>
<path d="M269.318 271.527C271.39 276.22 281.748 276.449 287.295 274.674C292.775 272.9 298.455 270.211 296.384 265.46C294.312 260.768 285.156 257.963 279.142 259.108C271.858 260.539 267.246 266.777 269.318 271.527Z" fill="white"/>
<path d="M299.858 277.937L259.828 273.53L260.43 269.639L300.46 274.045C301.73 274.16 302.598 275.133 302.398 276.22C302.197 277.307 301.061 278.051 299.858 277.937Z" fill="#F2F2F2"/>
<path d="M265.106 274.102L212.044 268.265C208.97 267.921 206.564 265.918 206.163 263.286L200.617 230.321C200.149 227.403 203.022 224.885 206.431 225.285L255.149 230.665C257.22 230.894 258.824 232.267 259.092 233.984L265.106 274.102Z" fill="#F2F2F2"/>
<path d="M201.686 361.148L187.92 366.013L179.232 366.585C175.222 366.814 171.881 369.332 171.079 372.652L170.678 374.197L217.859 379.233L218.794 362.98L201.686 361.148Z" fill="#0B0D70"/>
<path d="M218.796 362.98L223.407 345.296L206.366 343.293L201.688 361.149L218.796 362.98Z" fill="#FFE5CA"/>
<path d="M319.64 289.783C319.64 289.783 318.304 299.569 297.787 300.886H248.468L225.211 356.456L200.752 353.079L225.211 271.47L281.281 276.792L319.64 289.783Z" fill="#0B0D70"/>
<path d="M162.191 329.214L147.422 327.326L139.603 323.949C135.994 322.404 131.65 323.091 128.91 325.552L127.641 326.696L165.065 351.763L175.624 338.257L162.191 329.214Z" fill="#011936"/>
<path d="M175.758 338.314L188.589 324.35L175.089 315.136L162.191 329.214L175.758 338.314Z" fill="#FFE5CA"/>
<path d="M269.384 272.843L231.359 263.114C229.755 262.713 228.218 262.198 226.614 261.74C223.339 260.653 215.053 259.165 208.637 267.578C200.417 278.394 167.471 319.027 167.471 319.027L187.586 331.732L231.493 283.831C235.168 279.482 241.049 276.906 247.331 276.906L281.28 276.849L269.384 272.843Z" fill="#011936"/>
<path d="M318.303 190.834C318.971 189.746 330.733 171.776 319.973 167.255C319.973 167.255 318.57 157.755 306.207 158.785C293.843 159.815 297.185 162.906 289.299 161.36C281.413 159.815 273.995 163.306 274.597 168.972C275.198 174.638 280.21 177.041 289.299 175.668C298.388 174.294 305.605 175.325 305.605 175.325L313.224 177.213L318.303 190.834Z" fill="#575DFF"/>
<path d="M319.773 210.292L318.837 187.457L300.393 193.066L301.863 211.379C302.197 215.614 304.937 218.933 309.882 218.647L311.419 218.59C316.365 218.189 320.107 214.527 319.773 210.292Z" fill="white"/>
<path d="M317.234 190.604C317.234 190.604 320.709 209.662 301.73 210.749L300.861 201.707L317.234 190.604Z" fill="white"/>
<path d="M301.596 206.515H302.264C311.754 206.114 319.038 199.247 318.57 191.12L317.635 174.523C317.501 172.406 315.429 170.803 312.957 170.918L290.369 171.834C286.025 172.005 282.617 175.21 282.817 178.93L283.552 192.493C284.087 200.62 292.106 206.858 301.596 206.515Z" fill="white"/>
<path d="M314.226 186.14C314.36 188.888 317.1 191.005 320.307 190.833C323.515 190.719 325.988 188.372 325.787 185.625C325.654 182.878 322.914 180.761 319.706 180.933C316.565 181.047 314.092 183.393 314.226 186.14Z" fill="white"/>
<path d="M311.486 172.863L312.622 191.348C312.755 193.008 311.953 194.724 310.283 195.64C309.28 196.27 308.478 197.071 306.674 196.842C301.528 196.212 303.934 192.95 293.442 193.408C283.885 193.866 284.62 198.387 284.62 198.387C284.62 198.387 286.492 207.029 299.59 207.429C312.689 207.83 319.238 200.734 317.701 191.291L316.431 171.775L311.486 172.863Z" fill="#575DFF"/>
<path d="M283.484 176.011C283.484 176.011 289.566 176.812 298.454 174.98C307.275 173.092 314.292 179.215 314.292 179.215C314.292 179.215 316.164 182.02 316.631 181.962C317.099 181.905 319.772 180.99 319.772 180.99L319.639 172.462L313.156 168.113L295.179 167.483L284.554 169.486L283.484 176.011Z" fill="#575DFF"/>
</svg>
