<svg width="226" height="221" viewBox="0 0 226 221" fill="none" xmlns="http://www.w3.org/2000/svg">
<path d="M222.689 214.337H159.048V196.961H165.929C172.666 196.954 179.126 194.258 183.89 189.464C188.654 184.67 191.334 178.17 191.341 171.39V161.134C191.341 160.696 191.256 160.263 191.09 159.858C190.924 159.454 190.68 159.086 190.372 158.777C190.065 158.468 189.7 158.222 189.298 158.055C188.896 157.888 188.465 157.802 188.03 157.803H177.838C174.299 157.8 170.798 158.544 167.561 159.986C164.325 161.428 161.425 163.536 159.048 166.175V141.328C196.258 139.582 226 108.575 226 70.704C226 31.7187 194.479 3.45827e-05 155.737 3.45827e-05C140.276 0.00911848 125.248 5.13991 112.974 14.6001C100.731 5.11865 85.7119 -0.0153739 70.263 3.45827e-05C31.5208 -0.00440718 0 31.7142 0 70.6996C0 108.575 29.7419 139.582 66.9525 141.324V166.171C64.5753 163.532 61.6751 161.423 58.4386 159.981C55.2022 158.539 51.7014 157.796 48.1618 157.798H37.9609C37.526 157.798 37.0953 157.883 36.6934 158.051C36.2914 158.218 35.9263 158.463 35.6187 158.773C35.3112 159.082 35.0674 159.45 34.9012 159.854C34.735 160.258 34.6498 160.692 34.6504 161.129V171.386C34.6574 178.165 37.337 184.665 42.1011 189.459C46.8652 194.253 53.3247 196.95 60.0622 196.957H66.9437V214.337H3.31055C2.43254 214.337 1.59048 214.688 0.969637 215.313C0.348789 215.938 0 216.785 0 217.669C0 218.552 0.348789 219.4 0.969637 220.024C1.59048 220.649 2.43254 221 3.31055 221H113H222.689C223.567 221 224.41 220.649 225.03 220.024C225.651 219.4 226 218.552 226 217.669C226 216.785 225.651 215.938 225.03 215.313C224.41 214.688 223.567 214.337 222.689 214.337ZM66.9525 190.299H60.071C55.0888 190.294 50.3121 188.3 46.7891 184.755C43.2662 181.21 41.285 176.403 41.2803 171.39V164.465H48.1618C53.144 164.47 57.9208 166.464 61.4437 170.009C64.9666 173.554 66.9478 178.36 66.9525 183.374V190.299ZM177.838 164.465H184.72V171.39C184.715 176.403 182.734 181.21 179.211 184.755C175.688 188.3 170.911 190.294 165.929 190.299H159.048V183.374C159.052 178.36 161.033 173.554 164.556 170.009C168.079 166.464 172.856 164.47 177.838 164.465ZM6.62109 70.6996C6.62109 35.3876 35.1712 6.65824 70.263 6.65824C105.355 6.65824 133.909 35.3876 133.909 70.6996C133.924 82.7551 130.535 94.5668 124.137 104.759C123.905 105.023 123.718 105.323 123.581 105.647C117.803 114.581 109.901 121.923 100.59 127.007C91.2798 132.09 80.8557 134.755 70.263 134.759C35.1712 134.745 6.62109 106.016 6.62109 70.6996ZM187.549 50.2009C188.234 50.202 188.89 50.4762 189.374 50.9632C189.858 51.4503 190.13 52.1105 190.131 52.7993V62.8954L165.192 76.1363C164.697 74.9809 163.877 73.9963 162.833 73.3041C161.789 72.6119 160.567 72.2423 159.317 72.2409H152.157C150.906 72.2426 149.683 72.6122 148.639 73.3044C147.594 73.9965 146.773 74.9809 146.278 76.1363L140.486 73.0626C140.513 72.2764 140.531 71.4902 140.531 70.6996C140.533 63.7546 139.517 56.8473 137.516 50.2009H187.549ZM138.474 43.5382V40.9886C138.474 40.5644 138.558 40.1445 138.72 39.7529C138.882 39.3613 139.119 39.0057 139.418 38.7066C139.717 38.4074 140.072 38.1706 140.462 38.0096C140.852 37.8486 141.27 37.7666 141.691 37.7684H169.813C170.662 37.7695 171.475 38.1092 172.075 38.7129C172.675 39.3165 173.012 40.1349 173.014 40.9886V43.5382H138.474ZM159.096 78.9035V85.6639H152.378V78.9035H159.096ZM139.882 80.2716L145.757 83.3808V85.8771C145.758 87.5849 146.433 89.2224 147.633 90.43C148.833 91.6376 150.46 92.3165 152.157 92.3177H159.317C161.014 92.3153 162.64 91.636 163.84 90.4287C165.04 89.2213 165.715 87.5845 165.717 85.8771V83.3808L190.131 70.4242V101.032C190.13 101.721 189.858 102.381 189.374 102.868C188.89 103.356 188.234 103.63 187.549 103.631H132.422C136.252 96.3456 138.777 88.4384 139.882 80.2716ZM73.5736 183.374C73.5794 178.361 75.561 173.555 79.0837 170.01C82.6064 166.465 87.3825 164.471 92.3643 164.465H99.2502V171.39C99.2444 176.403 97.2627 181.209 93.7401 184.754C90.2174 188.299 85.4413 190.293 80.4595 190.299H73.5736V183.374ZM152.426 190.299H145.54C140.559 190.293 135.783 188.299 132.26 184.754C128.737 181.209 126.756 176.403 126.75 171.39V164.465H133.636C138.618 164.471 143.394 166.465 146.916 170.01C150.439 173.555 152.421 178.361 152.426 183.374V190.299ZM152.426 166.175C150.049 163.537 147.149 161.429 143.912 159.987C140.676 158.545 137.175 157.801 133.636 157.803H123.439C123.004 157.802 122.574 157.888 122.172 158.055C121.77 158.222 121.405 158.468 121.097 158.777C120.79 159.086 120.546 159.454 120.38 159.858C120.213 160.263 120.128 160.696 120.129 161.134V171.39C120.136 178.17 122.815 184.67 127.579 189.464C132.344 194.258 138.803 196.954 145.54 196.961H152.426V214.337H73.5736V196.961H80.4595C87.197 196.954 93.6565 194.258 98.4206 189.464C103.185 184.67 105.864 178.17 105.871 171.39V161.134C105.872 160.696 105.787 160.263 105.62 159.858C105.454 159.454 105.21 159.086 104.903 158.777C104.595 158.468 104.23 158.222 103.828 158.055C103.426 157.888 102.996 157.802 102.561 157.803H92.3643C88.8248 157.801 85.3242 158.545 82.0878 159.987C78.8514 161.429 75.9511 163.537 73.5736 166.175V141.328C87.8753 140.662 101.629 135.592 112.974 126.804C124.349 135.572 138.113 140.64 152.426 141.328V166.175ZM118.156 122.393C122.027 118.762 125.479 114.705 128.449 110.298H187.554C189.993 110.294 192.332 109.318 194.057 107.582C195.783 105.846 196.753 103.492 196.757 101.037V52.7993C196.753 50.3442 195.783 47.9906 194.057 46.2546C192.332 44.5186 189.993 43.5417 187.554 43.5382H179.608V40.9886C179.606 38.3682 178.57 35.8559 176.729 34.003C174.888 32.1501 172.391 31.1081 169.787 31.1057H141.691C139.655 31.1081 137.67 31.7465 136.009 32.9327C134.349 34.119 133.095 35.7946 132.422 37.7284C128.739 30.7369 123.924 24.4124 118.173 19.0152C129.083 10.993 142.243 6.66591 155.755 6.65824C190.829 6.65824 219.379 35.3876 219.379 70.6996C219.379 106.012 190.829 134.745 155.737 134.745C142.226 134.738 129.066 130.412 118.156 122.393ZM102.075 43.5382H94.1299V40.9886C94.1275 38.3682 93.0921 35.8559 91.2507 34.003C89.4094 32.1501 86.9126 31.1081 84.3086 31.1057H56.2043C53.6002 31.1081 51.1035 32.1501 49.2621 34.003C47.4208 35.8559 46.3853 38.3682 46.383 40.9886V43.5382H38.4377C35.9979 43.5417 33.659 44.5186 31.9338 46.2546C30.2086 47.9906 29.2378 50.3442 29.2343 52.7993V101.037C29.2378 103.492 30.2086 105.846 31.9338 107.582C33.659 109.318 35.9979 110.294 38.4377 110.298H102.075C104.515 110.296 106.855 109.319 108.58 107.583C110.306 105.847 111.276 103.492 111.279 101.037V52.7993C111.275 50.3442 110.304 47.9906 108.579 46.2546C106.854 44.5186 104.515 43.5417 102.075 43.5382ZM53.0041 40.9886C53.0052 40.1349 53.3428 39.3165 53.9427 38.7129C54.5426 38.1092 55.3559 37.7695 56.2043 37.7684H84.3086C85.157 37.7695 85.9703 38.1092 86.5702 38.7129C87.1701 39.3165 87.5076 40.1349 87.5088 40.9886V43.5382H53.0041V40.9886ZM104.649 101.037C104.649 101.726 104.377 102.387 103.892 102.874C103.408 103.362 102.751 103.635 102.066 103.635H38.4509C37.7664 103.634 37.1103 103.36 36.6263 102.873C36.1423 102.386 35.8698 101.726 35.8687 101.037V70.4242L60.2829 83.3853V85.8815C60.2852 87.589 60.9603 89.2258 62.1601 90.4331C63.3599 91.6404 64.9865 92.3198 66.6833 92.3221H73.8428C75.54 92.3209 77.1673 91.642 78.3673 90.4344C79.5674 89.2268 80.2421 87.5893 80.2432 85.8815V83.3853L104.657 70.4242L104.649 101.037ZM66.8951 85.6639V78.9035H73.6133V85.6639H66.8951ZM104.649 62.8954L79.7136 76.1363C79.2177 74.9809 78.397 73.9965 77.3524 73.3044C76.3077 72.6122 75.0848 72.2426 73.834 72.2409H66.6833C65.433 72.2423 64.2105 72.6119 63.1665 73.3041C62.1225 73.9963 61.3027 74.9809 60.8081 76.1363L35.8687 62.8954V52.7993C35.8698 52.1105 36.1423 51.4503 36.6263 50.9632C37.1103 50.4762 37.7664 50.202 38.4509 50.2009H102.075C102.76 50.202 103.416 50.4762 103.9 50.9632C104.384 51.4503 104.656 52.1105 104.657 52.7993L104.649 62.8954Z" fill="url(#paint0_linear_271_409)"/>
<defs>
<linearGradient id="paint0_linear_271_409" x1="126" y1="24" x2="236" y2="234" gradientUnits="userSpaceOnUse">
<stop stop-color="#575DFF"/>
<stop offset="1" stop-color="#A4A6FD"/>
</linearGradient>
</defs>
</svg>
