<svg width="42" height="42" viewBox="0 0 42 42" fill="none" xmlns="http://www.w3.org/2000/svg">
<path d="M30.6836 33C19.4866 33.0165 10.9882 24.0075 11 12.3791C11 11.6187 11.588 11 12.3125 11H15.7775C16.4272 11 16.9798 11.5005 17.0756 12.1742C17.3041 13.7899 17.7527 15.3629 18.4078 16.8451L18.5429 17.1504C18.6338 17.3558 18.6533 17.588 18.5982 17.8068C18.5431 18.0257 18.4168 18.2176 18.2411 18.3494C17.1674 19.1524 16.7579 20.768 17.594 22.0275C18.6466 23.6133 19.9604 24.9901 21.4738 26.0934C22.6773 26.9679 24.2195 26.5389 24.9847 25.4155C25.1103 25.2309 25.2936 25.0981 25.5029 25.0401C25.7121 24.9821 25.9341 25.0025 26.1305 25.0979L26.4206 25.2381C27.8354 25.9256 29.3369 26.3959 30.8791 26.6351C31.5222 26.7355 32 27.3144 32 27.9964V31.625C32 31.8057 31.966 31.9846 31.9 32.1515C31.8339 32.3184 31.7371 32.47 31.6151 32.5977C31.4931 32.7254 31.3483 32.8267 31.1889 32.8957C31.0295 32.9647 30.8587 33.0002 30.6862 33H30.6836Z" fill="#6F65FA"/>
<circle cx="21" cy="21" r="20.5" stroke="#6F65FA"/>
</svg>
